# This file uses centimeters as units for non-parametric coordinates.

mtllib left_eye.mtl
g default
v 5.309200 36.462196 18.095650
v 5.125800 35.143497 17.281250
v 5.273400 35.388802 17.371050
v 5.018400 35.394600 17.668650
v 4.858099 35.140099 17.584049
v 4.673800 35.824696 18.324852
v 4.862400 36.171295 18.367149
v 5.054500 36.558197 18.389549
v 4.792500 36.679996 18.673351
v 4.527300 36.828094 18.941450
v 4.756700 35.438396 17.968651
v 4.586699 35.178596 17.888451
v 5.519400 35.421200 17.082451
v 5.430500 35.671299 17.440453
v 5.187400 35.688995 17.734550
v 5.118600 36.081696 18.074850
v 4.934200 35.739899 18.031651
v 4.337400 36.440098 18.916550
v 4.600600 36.290695 18.649750
v 4.222600 35.638096 18.550949
v 4.410000 35.942997 18.608450
v 3.415400 35.152397 18.580151
v 3.770700 35.535095 18.754749
v 4.040200 35.376995 18.478851
v 4.490300 35.519695 18.264652
v 4.313100 35.257896 18.188349
v 4.423500 34.961201 17.793049
v 4.984600 34.936501 17.175449
v 4.704800 34.926495 17.483850
v 3.589800 35.321796 18.674049
v 3.863600 35.160095 18.392849
v 4.556400 34.754601 17.371349
v 4.142300 35.039497 18.097651
v 3.978000 34.865196 17.993950
v 3.693600 34.987495 18.293749
v 3.258000 35.030396 18.477749
v 2.871900 35.156796 18.640450
v 2.742500 35.481094 19.001150
v 2.642700 35.386696 18.869249
v 3.128400 34.958897 18.371552
v 3.404700 34.795895 18.080452
v 3.693500 34.670998 17.784550
v 3.538000 34.864300 18.187550
v 3.826300 34.740601 17.886452
v 4.117300 34.662296 17.579050
v 4.405400 34.632996 17.270149
v 3.978700 34.592896 17.490150
v 4.244500 34.570396 17.203449
v 4.846700 34.769001 17.058250
v 4.985500 34.723099 16.657249
v 5.136100 34.832001 16.750950
v 4.784700 34.681702 16.631750
v 5.068000 34.814499 16.349251
v 4.463500 34.747498 16.784750
v 4.507500 34.600800 16.919149
v 4.266300 34.787102 17.685049
v 4.693800 34.653099 16.962051
v 1.986900 36.845295 19.810852
v 2.120500 36.943295 19.917252
v 2.268100 36.556396 19.746149
v 2.632700 36.336395 19.619749
v 2.820700 36.502895 19.670849
v 3.260100 35.957195 19.253651
v 3.028800 36.215897 19.473049
v 3.449200 36.197495 19.309547
v 3.887600 36.275597 19.126450
v 3.217700 36.440796 19.521549
v 4.077200 36.614895 19.164852
v 4.004300 37.184498 19.418652
v 3.824600 36.810795 19.391651
v 3.638500 36.481895 19.355450
v 3.008300 36.706596 19.710550
v 2.641800 36.818195 19.846752
v 2.452900 36.673496 19.805252
v 2.307400 37.042496 19.968849
v 3.404300 36.708694 19.561550
v 3.584600 37.021496 19.594749
v 2.828100 36.993195 19.875954
v 3.004700 37.201397 19.898151
v 3.190400 36.950996 19.743050
v 3.164600 37.455597 19.920252
v 3.362100 37.240696 19.771851
v 2.131500 36.449097 19.639252
v 2.086900 36.333797 19.454449
v 2.517100 35.515297 18.808849
v 2.249200 35.973995 19.271851
v 2.436500 35.656395 19.074350
v 2.991300 35.236595 18.750950
v 1.858000 37.159996 19.751051
v 2.893900 35.603195 19.104149
v 3.147400 35.358196 18.851051
v 1.955900 36.729797 19.615047
v 2.096000 36.951996 19.328150
v 3.956700 35.792698 18.822250
v 3.697400 35.980198 19.075951
v 4.146400 36.094597 18.876549
v 3.509100 35.729397 19.013849
v 3.325100 35.522297 18.939152
v 3.074000 35.759598 19.185749
v 2.841500 36.031696 19.413052
v 2.514300 35.764698 19.231552
v 2.659600 35.885498 19.338451
v 2.449400 36.203495 19.552849
v 2.309000 36.088097 19.445250
v 3.498900 35.800198 17.719551
v 3.589900 36.139702 17.659950
v 4.467100 35.702301 16.767750
v 3.693600 36.522400 17.594051
v 2.763800 37.005402 18.586149
v 2.731600 36.200996 18.541950
v 2.736400 36.584095 18.572250
v 2.159900 36.535397 19.226452
v 4.117899 35.159595 17.070450
v 3.421400 35.504101 17.773449
v 3.357800 35.251396 17.822451
v 4.709600 34.903301 16.543751
v 4.290000 35.406998 16.917452
v 4.956399 35.110600 16.311852
v 3.802800 34.808994 17.382050
v 4.229900 34.642601 17.026751
v 3.952100 34.960094 17.226349
v 4.020300 34.587894 17.261551
v 3.876900 34.601196 17.463852
v 3.628400 34.658997 17.672449
v 3.315400 34.798302 17.986752
v 3.679800 34.706799 17.534550
v 3.291800 34.887695 17.920849
v 3.312900 35.044994 17.870350
v 2.846800 35.295998 18.376650
v 2.787700 35.553394 18.438950
v 2.374100 35.812096 18.960449
v 2.253100 36.154896 19.103149
v 2.748900 35.857098 18.496952
v 2.676200 35.272495 18.658550
v 2.841600 35.128395 18.539251
v 3.019600 34.968895 18.304449
v 2.924900 35.091198 18.318949
v 4.263100 36.997795 19.190849
v 3.196000 39.677696 20.247652
v 3.650200 38.990597 20.001850
v 3.377900 39.115295 20.143852
v 3.538200 38.544994 19.998251
v 3.422300 38.134396 19.978350
v 3.663600 37.965195 19.823353
v 3.518800 37.580597 19.800350
v 3.754800 37.381096 19.622551
v 4.176499 37.597496 19.433552
v 4.443700 37.418995 19.202150
v 4.617000 37.873398 19.196650
v 4.781200 38.354298 19.171654
v 3.283900 38.675797 20.132751
v 3.915400 37.781998 19.641350
v 4.067000 38.218895 19.647354
v 3.799400 38.389194 19.836052
v 3.927800 38.844395 19.831951
v 3.867700 39.946697 19.933853
v 3.760200 39.460796 19.981552
v 3.474800 39.580597 20.129654
v 3.286000 40.159096 20.208252
v 3.379800 40.646797 20.135551
v 3.476600 41.132397 20.029751
v 4.344400 39.171795 19.601650
v 3.098200 40.725494 20.224651
v 3.573100 40.062298 20.086752
v 3.972100 40.439697 19.855551
v 3.156400 43.157097 19.451653
v 3.256900 42.664692 19.663952
v 3.400700 42.148796 19.810852
v 3.138800 42.226295 19.859753
v 3.295100 41.690197 19.978954
v 3.576000 41.607395 19.891151
v 3.770700 41.038097 19.904953
v 3.671900 40.550896 20.011854
v 3.510400 42.582695 19.619352
v 3.869100 41.515594 19.766453
v 4.586700 40.180897 19.455151
v 4.277900 40.315395 19.669052
v 4.167400 39.815495 19.751553
v 3.516200 43.442493 19.221352
v 3.382600 43.072094 19.449251
v 3.623600 42.985294 19.411156
v 3.778500 42.498596 19.537352
v 3.677000 42.065098 19.725252
v 3.966100 41.976997 19.601751
v 4.171600 41.415295 19.607552
v 3.879300 42.901493 19.334555
v 3.018900 42.741497 19.672955
v 3.106900 43.623993 19.177052
v 4.480599 41.306698 19.417053
v 4.265300 41.883896 19.443153
v 4.353100 42.331593 19.258850
v 4.149900 42.825397 19.216652
v 4.060400 42.415592 19.416054
v 3.739600 43.350094 19.192854
v 3.977800 43.266991 19.124153
v 3.858000 43.668392 18.973953
v 4.571600 41.785194 19.252552
v 4.432800 42.753094 19.061354
v 4.070000 43.585194 18.918653
v 5.415500 40.934597 18.691853
v 5.500401 41.443798 18.527451
v 4.959300 42.151997 18.850552
v 5.023700 42.602791 18.654652
v 4.653900 42.244698 19.068851
v 4.725300 42.680592 18.872253
v 4.501900 43.143192 18.857452
v 4.232600 43.200394 19.010754
v 4.553900 43.498093 18.656254
v 4.302500 43.533497 18.809851
v 4.353600 43.817291 18.625751
v 4.822500 43.464291 18.466351
v 5.324400 42.514694 18.413754
v 4.151800 43.846092 18.730654
v 4.837500 43.806793 18.271454
v 4.582500 43.814293 18.466951
v 4.362200 44.057392 18.472153
v 4.211200 44.014393 18.589352
v 4.304900 44.259193 18.363054
v 3.978200 43.931190 18.764353
v 4.120400 44.130795 18.561455
v 3.816700 44.046692 18.749653
v 3.651100 44.166794 18.709351
v 3.469700 43.874992 18.965752
v 3.660100 43.769394 18.986256
v 3.305700 43.536697 19.214554
v 5.109700 43.786198 18.047554
v 4.823000 44.114594 18.089653
v 4.524800 44.337692 18.155754
v 4.576499 44.093594 18.297455
v 4.203500 44.435192 18.274456
v 4.080200 44.597790 18.182156
v 3.994900 44.270092 18.512154
v 3.853500 44.408791 18.447556
v 3.484600 44.278996 18.647055
v 4.438200 44.550694 18.031052
v 3.942900 44.739292 18.084156
v 3.703000 44.535294 18.368454
v 3.213600 44.416191 18.426655
v 5.947500 42.757095 17.681952
v 5.959899 43.187996 17.479452
v 5.676701 43.288197 17.748854
v 5.673300 43.678299 17.544453
v 5.367499 44.087597 17.606354
v 5.041400 44.406197 17.678953
v 5.090300 44.114594 17.856754
v 4.773500 44.387398 17.926254
v 4.694900 44.625298 17.776653
v 5.659500 42.865192 17.953253
v 4.474400 44.996296 17.501053
v 4.593100 44.828693 17.636253
v 4.327799 44.736691 17.912153
v 4.870800 44.876095 17.354752
v 4.966900 44.660294 17.512253
v 5.318901 44.392296 17.418354
v 5.247400 44.657196 17.239056
v 5.600000 44.344498 17.148352
v 5.953000 43.585194 17.275452
v 5.648100 44.031593 17.343351
v 5.926099 43.944592 17.072556
v 6.224300 43.464497 17.001053
v 6.234300 43.063992 17.202854
v 6.495000 42.915398 16.923653
v 6.482200 43.315697 16.725853
v 6.491100 42.480099 17.117151
v 5.878600 44.261898 16.873154
v 5.340200 45.029797 16.604855
v 5.812100 44.536198 16.678553
v 5.531000 44.615795 16.960051
v 6.149601 44.144497 16.596851
v 6.196200 43.826195 16.798351
v 6.453000 43.676296 16.525251
v 6.723300 43.143494 16.453854
v 5.728300 44.766396 16.489754
v 4.928400 45.203495 16.746553
v 7.112600 43.084698 15.756355
v 7.169100 43.517395 14.961553
v 7.215300 43.342094 15.159354
v 7.075200 43.370598 15.566655
v 6.873400 43.600796 15.803854
v 6.914100 43.299995 15.999954
v 6.693400 43.499294 16.257751
v 6.650100 43.809795 16.057751
v 6.593600 44.074898 15.856655
v 6.347300 44.263695 16.122753
v 6.407800 43.992397 16.323555
v 6.085800 44.418697 16.398153
v 6.006000 44.647896 16.204054
v 5.911699 44.832294 16.016056
v 6.821800 43.855694 15.604154
v 6.758700 44.065296 15.403955
v 6.523900 44.294395 15.656956
v 6.441200 44.469498 15.461756
v 6.272200 44.489597 15.925056
v 5.804300 44.971897 15.835655
v 5.517400 45.093796 16.133156
v 5.402600 45.187298 15.973756
v 5.295200 45.229298 15.837255
v 4.985900 45.284496 16.035254
v 4.793200 45.291695 16.190754
v 6.183200 44.670498 15.732758
v 5.110800 45.265396 16.281055
v 5.015500 45.307896 16.138153
v 6.683300 44.231495 15.207155
v 5.182600 45.221096 15.774555
v 6.907300 43.958996 14.973055
v 6.594500 44.355995 15.017555
v 6.081100 44.806995 15.548056
v 5.691000 45.063595 15.672456
v 5.971800 44.897797 15.383355
v 6.238900 44.691895 15.110955
v 6.345400 44.600998 15.274156
v 5.578800 45.103798 15.535854
v 5.484301 45.080597 15.448655
v 5.792399 44.911697 15.143356
v 6.022900 44.758297 14.961255
v 5.861199 44.941696 15.250755
v 6.124200 44.744793 14.989255
v 6.485700 44.447495 14.859957
v 6.826499 44.073895 14.782454
v 6.139900 44.608894 14.796055
v 6.349900 44.514896 14.758757
v 6.553400 44.245197 14.553755
v 6.750100 43.929096 14.368455
v 6.714400 44.164497 14.631755
v 6.442100 44.069996 14.501055
v 6.927000 43.842495 14.427755
v 7.119800 43.484196 14.252355
v 6.931900 43.572395 14.208655
v 6.708200 43.354595 14.294955
v 7.224800 42.756199 13.985254
v 7.090799 43.180695 14.080154
v 7.289300 43.092197 14.109755
v 7.398700 43.022896 14.246355
v 7.230400 43.406097 14.392655
v 7.039000 43.756897 14.572755
v 7.111400 43.654396 14.763855
v 6.974400 43.805298 15.170555
v 7.029700 43.610096 15.370155
v 7.294200 43.318596 14.584453
v 7.433400 42.668297 14.002655
v 6.970000 41.016201 14.292655
v 7.462500 41.315300 13.908553
v 7.411000 41.818802 13.900954
v 7.639201 41.735397 13.900554
v 7.331600 42.300598 13.926055
v 7.550200 42.214500 13.933556
v 7.542400 42.608795 14.136754
v 7.492400 42.860699 14.639256
v 7.454500 42.952496 14.439555
v 7.342000 43.202297 14.782454
v 7.591500 42.556702 14.332753
v 7.814099 41.207500 14.036553
v 7.750800 41.696999 14.034056
v 7.659999 42.165501 14.066752
v 7.704300 42.131901 14.267553
v 7.726200 42.092094 14.478054
v 7.620500 42.491096 14.536254
v 7.516100 42.748497 14.834453
v 7.377700 43.054096 14.978556
v 7.529300 42.617096 15.014355
v 7.431400 42.639496 15.332352
v 7.405300 42.870796 15.164255
v 7.253200 43.124596 15.350954
v 7.792000 41.681297 14.240653
v 7.285999 42.860195 15.531454
v 7.317000 42.543797 15.696054
v 7.462700 42.347195 15.475254
v 7.848900 40.701698 14.070253
v 7.632000 42.418095 14.735253
v 7.800900 41.660801 14.685656
v 7.808900 41.665695 14.459753
v 7.867800 41.213600 14.476355
v 7.888700 40.717098 14.287854
v 7.731501 40.719398 13.934553
v 7.733700 40.192799 13.995053
v 7.447400 39.727901 14.097754
v 7.481200 40.264599 14.009954
v 7.853900 41.208099 14.248954
v 7.726800 42.055698 14.689054
v 7.707100 42.032101 14.891454
v 7.706400 41.732899 15.141355
v 7.767700 41.677101 14.913155
v 7.901400 40.740601 14.522353
v 7.854300 40.184399 14.131454
v 7.829200 39.661098 14.216454
v 7.705400 39.660801 14.079953
v 7.772201 39.137199 14.321753
v 7.895100 40.212700 14.352755
v 7.854800 41.232899 14.714854
v 7.813600 41.275002 14.960653
v 7.907700 40.251099 14.592354
v 7.885001 39.751598 14.682453
v 7.891000 40.303902 14.847553
v 7.885700 40.778500 14.770654
v 7.840400 40.837200 15.029654
v 7.743500 41.348698 15.212052
v 7.614400 41.846294 15.369554
v 7.492700 42.001095 15.603453
v 7.659900 42.059200 15.086854
v 7.843299 40.375099 15.115554
v 7.658900 41.037701 15.570252
v 7.764900 40.922001 15.296853
v 7.613500 42.281502 15.055652
v 7.577700 42.174999 15.276855
v 7.523600 41.178398 15.849355
v 7.643600 41.462799 15.466953
v 7.514900 41.608200 15.727055
v 7.358200 41.776199 15.993653
v 7.165100 42.372501 16.104954
v 7.342300 42.180695 15.848753
v 7.545300 42.436096 15.166055
v 7.628700 42.343998 14.917853
v 7.143300 42.750298 15.935255
v 6.944600 42.952595 16.189051
v 6.739000 42.747097 16.645252
v 6.963200 42.563698 16.371452
v 7.175500 41.956299 16.266953
v 7.171200 41.508598 16.422852
v 7.360300 41.338001 16.133854
v 7.513100 40.721401 15.973853
v 7.624900 40.112202 15.796453
v 7.480100 40.245300 16.099552
v 6.739500 42.314995 16.831053
v 6.968500 42.138195 16.546951
v 6.723700 41.853199 17.010452
v 6.958200 41.682301 16.715851
v 7.344100 40.873798 16.272251
v 7.149000 41.036095 16.574154
v 7.244000 39.897701 16.541052
v 7.306300 40.391300 16.408152
v 7.421200 39.758400 16.225554
v 7.334800 39.268299 16.349951
v 7.484000 39.144100 16.037451
v 7.568799 39.629398 15.916152
v 7.368500 38.664299 16.157951
v 7.485000 38.551800 15.855952
v 7.600600 39.028999 15.734653
v 6.690000 41.367699 17.182354
v 7.219100 38.782597 16.470554
v 7.155500 39.400299 16.669151
v 7.040000 40.044495 16.859951
v 6.882101 40.704800 17.033352
v 7.106100 40.545799 16.720154
v 6.930100 41.202396 16.878351
v 6.470000 42.015491 17.304552
v 6.200100 42.164993 17.595251
v 6.226201 42.628998 17.401751
v 6.812100 40.195900 17.179651
v 6.637000 40.864399 17.345253
v 6.949100 39.538700 16.992052
v 6.431100 41.527199 17.484051
v 6.563200 40.349297 17.497452
v 6.373400 41.020802 17.653551
v 6.094200 41.170998 17.955252
v 6.156200 41.677197 17.780752
v 5.623401 42.413795 18.153954
v 5.390200 43.744293 17.803551
v 5.389200 43.365498 18.006451
v 5.102800 43.423096 18.247349
v 5.072800 43.027596 18.451649
v 5.916600 42.297497 17.879751
v 6.013900 40.651794 18.115952
v 6.198700 39.976395 17.952652
v 6.296100 40.501999 17.810453
v 5.719300 40.796196 18.410854
v 5.868000 41.814198 18.069550
v 5.802100 41.312096 18.247753
v 5.570000 41.938496 18.346752
v 5.265900 42.050491 18.608452
v 5.366400 42.954296 18.211452
v 4.783299 43.087997 18.668951
v 4.073400 40.931896 19.746754
v 4.773600 39.523197 19.308651
v 5.202500 39.892296 18.957054
v 4.895800 40.038998 19.216852
v 5.316000 40.415695 18.836254
v 5.504100 39.743595 18.678551
v 5.915100 40.124699 18.259951
v 5.619800 40.271698 18.555552
v 5.192500 41.566097 18.790752
v 4.881700 41.679596 19.033754
v 4.793000 41.190197 19.198551
v 5.105700 41.065998 18.955650
v 4.694201 40.688896 19.340553
v 4.382300 40.814896 19.557552
v 5.006400 40.555298 19.099052
v 4.050600 39.322495 19.804852
v 4.470100 39.672997 19.542252
v 4.209800 38.684597 19.635754
v 4.639801 39.014397 19.373951
v 4.495100 38.519295 19.414951
v 4.340400 38.044796 19.433552
v 5.075200 39.370197 19.053352
v 4.934400 38.855396 19.124352
v 5.372600 39.217697 18.778851
v 5.797800 39.595200 18.384453
v 5.662800 39.068695 18.487953
v 5.065600 38.195595 18.908251
v 5.225800 38.699696 18.855053
v 5.511200 38.550797 18.568850
v 5.943100 38.926296 18.183552
v 6.210100 38.790600 17.869152
v 6.080500 39.449398 18.077652
v 6.718801 39.681900 17.315651
v 6.467600 39.828297 17.636852
v 4.713700 37.253597 18.949451
v 4.982600 37.105896 18.678249
v 5.435900 37.434296 18.372150
v 4.894000 37.711494 18.939049
v 5.168099 37.563595 18.663254
v 5.502100 36.877197 18.094151
v 5.246800 36.980698 18.391453
v 5.552600 36.391602 17.797253
v 5.365400 36.021797 17.778454
v 5.617600 37.913395 18.331251
v 5.345400 38.047195 18.627251
v 5.878400 37.793301 18.024647
v 5.693500 37.322598 18.070452
v 5.744600 36.794701 17.791752
v 5.780300 36.343697 17.500851
v 5.815000 35.984200 17.201950
v 5.873300 35.732098 16.892952
v 5.988100 36.315800 17.213150
v 5.598800 35.989899 17.485050
v 5.660200 35.686001 17.156349
v 6.051900 38.284302 17.957150
v 5.787700 38.412495 18.268250
v 6.124200 37.686195 17.711550
v 6.300200 38.165794 17.639553
v 6.351100 37.589600 17.396749
v 6.162400 37.146599 17.454350
v 5.937100 37.227695 17.762749
v 5.969900 36.730099 17.489950
v 6.173500 36.679996 17.194553
v 6.315600 36.287495 16.703751
v 6.168900 36.299702 16.944149
v 6.349400 36.635502 16.912151
v 6.365200 37.076096 17.150349
v 6.349300 39.306995 17.761551
v 6.460599 38.661594 17.548252
v 6.734400 37.950901 17.000952
v 6.554999 37.500801 17.084553
v 6.682500 36.936600 16.574951
v 6.491400 36.587601 16.649250
v 6.592000 36.520401 16.408249
v 6.529000 38.055199 17.319450
v 6.876100 37.326302 16.485149
v 6.731500 37.414700 16.779251
v 6.540300 37.008595 16.855551
v 6.912600 37.849701 16.688053
v 6.897800 38.421101 16.902254
v 6.691000 38.538696 17.224751
v 6.600901 39.168697 17.439453
v 6.831900 39.035000 17.114651
v 6.787499 36.852501 16.311253
v 7.059500 37.748600 16.384453
v 7.077300 38.307598 16.584255
v 6.592700 36.038799 15.621451
v 6.878200 36.633301 15.841151
v 6.851400 36.748901 16.067551
v 6.985500 37.231400 16.205551
v 7.056600 37.125801 15.943452
v 7.248200 37.539101 15.818452
v 7.172300 37.645802 16.093452
v 7.341100 38.088402 15.976453
v 7.225901 38.196896 16.274651
v 7.039100 38.906197 16.790552
v 6.637200 36.164902 15.802353
v 7.288800 37.432098 15.559953
v 6.836700 36.398300 15.432153
v 6.871800 36.513401 15.629751
v 7.420100 37.981499 15.692952
v 7.091700 37.014702 15.698451
v 7.093200 36.903198 15.470052
v 7.064800 36.797901 15.257852
v 6.262500 35.604801 15.669751
v 6.526600 35.928299 15.449152
v 7.271901 37.231701 15.094851
v 7.295700 37.327999 15.318652
v 7.464301 37.878399 15.425253
v 7.738700 39.994999 15.501054
v 7.684700 39.512699 15.615454
v 7.682500 38.924301 15.444153
v 7.565900 38.445499 15.567351
v 7.730300 38.830502 15.168052
v 7.625300 38.256802 15.037251
v 7.612400 38.346802 15.293952
v 7.474699 37.781399 15.174653
v 7.010000 36.705700 15.061353
v 7.220400 37.147900 14.888852
v 6.777200 36.297199 15.247252
v 7.606900 38.177299 14.798853
v 7.454100 37.693501 14.942153
v 7.404799 37.618000 14.728752
v 7.554300 38.602001 14.309754
v 7.430200 38.085999 14.448552
v 6.736701 38.879799 14.711852
v 7.383800 39.190800 14.206054
v 7.290300 38.658501 14.331754
v 6.833000 39.414799 14.583154
v 6.468000 37.840099 15.001251
v 7.013500 37.630199 14.625652
v 7.166400 38.136501 14.472053
v 6.298000 37.346500 15.158952
v 6.107300 36.877899 15.325250
v 6.627300 36.687099 14.968953
v 6.832700 37.145199 14.791053
v 7.090800 37.108398 14.765952
v 7.275200 37.586300 14.601052
v 6.880300 36.658199 14.943952
v 6.647100 36.241299 15.136052
v 6.400000 36.261799 15.159652
v 6.395200 35.863701 15.344052
v 6.154900 35.875099 15.364854
v 5.442300 35.680801 15.882152
v 5.201400 35.369701 16.090851
v 5.895800 35.532902 15.586151
v 6.128900 35.531200 15.570050
v 5.851700 35.248402 15.814952
v 5.626101 35.239799 15.824151
v 5.349300 35.000401 16.079252
v 5.567200 35.019699 16.079651
v 6.337400 35.725201 15.829251
v 5.988500 35.331100 15.910651
v 6.074400 35.462002 16.058151
v 5.708300 35.111599 16.173151
v 6.394600 35.864101 15.992352
v 6.147200 35.615101 16.204451
v 5.807000 35.253300 16.310654
v 5.277700 34.844799 16.361351
v 5.423500 34.945496 16.454250
v 5.261700 34.992699 16.873552
v 5.388000 35.189602 16.986149
v 5.897800 35.422100 16.443052
v 5.535900 35.097401 16.583549
v 5.645200 35.281502 16.704752
v 5.983300 35.609795 16.562351
v 6.206500 35.777901 16.342751
v 6.444100 36.144600 16.317551
v 6.251900 35.937798 16.466452
v 5.756100 35.494202 16.810352
v 6.066000 35.808102 16.660650
v 6.169099 36.029797 16.715351
v 6.007300 35.999199 16.941250
v 6.278700 36.068501 16.557949
v 6.412500 36.246498 16.494152
v 6.643600 36.418400 16.191750
v 6.655600 36.295200 15.992352
v 6.431200 36.008301 16.156151
v 2.132700 37.874798 20.225651
v 2.009200 37.362595 20.064152
v 1.937000 37.812798 20.184952
v 1.877400 37.274696 19.957552
v 1.795200 37.622295 19.860054
v 1.805300 37.735294 20.077152
v 2.062700 37.402798 19.405750
v 1.764900 38.111694 19.940250
v 2.077800 38.386696 19.483150
v 2.057400 37.882698 19.457850
v 2.855300 37.452698 20.025049
v 2.684100 37.298996 20.017550
v 2.584400 37.632298 20.136652
v 2.498400 37.161594 20.000549
v 2.394700 37.535297 20.132149
v 2.335100 37.941097 20.241352
v 2.199600 37.442997 20.109449
v 2.102400 38.333797 20.315552
v 1.900400 38.289295 20.277653
v 1.767800 38.222195 20.167652
v 1.764400 38.622997 19.989952
v 1.761900 38.730495 20.226952
v 2.104600 38.816196 20.377052
v 2.758600 37.726894 20.127148
v 2.730800 38.045998 20.208050
v 2.536900 38.001595 20.234550
v 2.313700 38.376396 20.326252
v 1.896100 38.787598 20.340151
v 1.783400 39.254295 20.253254
v 1.828100 39.787895 20.244551
v 1.905100 40.229797 19.940752
v 1.837800 39.687897 19.991253
v 2.530700 38.405994 20.310852
v 2.324800 38.838398 20.385151
v 1.919400 39.301895 20.370052
v 2.133700 39.316498 20.407352
v 1.790000 39.150394 20.007553
v 2.180900 39.442898 19.447252
v 2.257600 39.983498 19.384552
v 1.975300 40.860897 20.119051
v 1.989200 40.770096 19.855453
v 2.184000 39.828995 20.403751
v 1.965500 39.826694 20.365051
v 2.031100 40.355896 20.324152
v 1.893000 40.325397 20.200054
v 2.089000 41.303394 19.736752
v 2.450000 41.060795 19.169754
v 2.333300 42.326893 19.406654
v 2.335500 40.865295 20.289352
v 2.113200 40.883495 20.246254
v 2.073700 41.388695 20.002752
v 2.490000 40.326096 20.374451
v 2.210600 41.403496 20.132351
v 2.187200 41.903091 19.852451
v 2.203600 41.824097 19.586151
v 2.316200 42.398991 19.671352
v 2.322000 41.910194 19.983551
v 2.478300 42.806591 19.201452
v 2.826700 42.584694 18.652952
v 2.461200 42.870995 19.462952
v 2.447900 42.398098 19.803452
v 2.540700 41.874393 20.031353
v 2.432000 41.376396 20.177853
v 2.670300 41.335697 20.191654
v 2.574500 40.833797 20.300854
v 2.924700 41.281296 20.172451
v 2.829100 40.787495 20.279652
v 3.008500 40.234196 20.296551
v 3.111900 39.212296 20.256752
v 3.194000 41.213497 20.118654
v 3.028000 41.762997 20.030851
v 2.776300 41.824898 20.047752
v 2.892400 42.295498 19.873352
v 2.796200 42.808693 19.649353
v 2.588700 42.861794 19.595753
v 2.662000 42.353687 19.853851
v 2.944200 43.233891 19.422152
v 2.745300 43.295998 19.364452
v 3.286400 43.974091 18.917454
v 2.918600 43.695698 19.113453
v 3.109800 44.055592 18.846252
v 2.801500 43.722492 18.978653
v 3.550100 44.637691 18.275852
v 3.320200 44.370892 18.566151
v 2.998200 44.091591 18.709553
v 3.010000 44.053993 18.464455
v 2.816300 43.675293 18.727253
v 2.639100 43.257793 18.973854
v 2.622700 43.313896 19.230854
v 4.201100 44.892494 17.794754
v 4.065801 45.014893 17.674555
v 3.799700 44.852196 17.978153
v 3.698900 44.915398 17.830353
v 3.447300 44.692097 18.132656
v 3.965500 45.086491 17.521755
v 3.220400 44.388493 18.188454
v 3.447000 44.674591 17.901852
v 3.689100 44.908295 17.607056
v 4.209001 45.219097 17.002655
v 3.944000 45.089695 17.306553
v 4.345301 45.126698 17.367054
v 4.634100 45.188992 17.057051
v 4.758200 45.052692 17.203854
v 5.048300 45.063496 16.904354
v 5.156000 44.881195 17.068153
v 5.443399 44.844395 16.778952
v 4.244100 45.205597 17.209253
v 4.530200 45.274498 16.896654
v 4.478100 45.298496 16.704754
v 5.629399 44.952393 16.307655
v 5.224200 45.171394 16.437754
v 4.819600 45.294392 16.587955
v 4.745100 45.329491 16.421953
v 4.573500 45.235497 16.418653
v 2.999800 37.653496 20.037151
v 3.105200 37.931896 20.068352
v 2.891100 37.803696 20.108452
v 2.919400 38.035595 20.154951
v 2.970200 38.374596 20.202152
v 2.749500 38.411594 20.270149
v 2.792000 38.825695 20.316151
v 2.554700 38.844696 20.364851
v 2.252400 40.347496 20.364952
v 2.418000 39.819695 20.411751
v 2.361800 39.321396 20.414751
v 3.300900 37.768898 19.949650
v 3.192900 38.276497 20.104750
v 3.035500 38.772396 20.238850
v 2.852600 39.275394 20.339554
v 2.602000 39.309998 20.392151
v 2.925700 39.747894 20.333954
v 2.665700 39.794098 20.388651
v 2.742400 40.289295 20.351852
v 6.074900 41.965897 15.070952
v 6.966200 41.530998 14.237655
v 6.092501 42.441101 14.995053
v 6.093700 42.888298 14.938654
v 5.139400 43.369595 15.907355
v 5.071400 42.956196 16.033054
v 4.206400 43.847794 16.898556
v 6.938100 42.027302 14.208155
v 6.885600 42.499897 14.206855
v 5.200800 43.745296 15.792456
v 6.078300 43.302692 14.903555
v 6.808900 42.943798 14.235254
v 6.046300 43.679794 14.891356
v 6.585300 43.730495 14.384055
v 3.498700 44.221191 17.722256
v 3.696800 44.525291 17.465054
v 4.344100 44.184193 16.704155
v 4.484700 44.473198 16.512354
v 5.255100 44.078598 15.690254
v 5.998700 44.018696 14.901056
v 5.936800 44.318695 14.931855
v 5.808800 44.780697 15.053757
v 5.423800 44.981796 15.433558
v 5.381800 44.822495 15.466657
v 5.870200 44.574398 14.983055
v 6.289900 44.365395 14.640255
v 5.052300 45.163998 15.836856
v 4.912200 45.059795 15.975555
v 5.343100 44.617897 15.524354
v 4.769900 44.910496 16.141853
v 5.302500 44.369396 15.600855
v 4.626999 44.715298 16.324551
v 3.905800 44.778294 17.202953
v 4.123600 44.980595 16.937853
v 4.348300 45.132298 16.672054
v 5.176900 37.315899 16.201853
v 3.807500 36.943398 17.520950
v 5.005499 36.857899 16.340054
v 3.928600 37.397797 17.439749
v 2.875900 37.942799 18.560249
v 2.811200 37.459995 18.582554
v 4.827800 36.432499 16.479752
v 5.898701 36.440201 15.500253
v 5.675800 36.039200 15.685553
v 5.338400 37.800598 16.063950
v 4.178700 38.383099 17.248451
v 3.140700 39.501099 18.369854
v 3.243200 40.037796 18.263451
v 2.347600 40.524597 19.291553
v 4.647300 36.045700 16.622049
v 2.689400 42.096096 18.847553
v 2.563900 41.586395 19.020752
v 5.923700 40.426102 15.390654
v 5.840000 39.892502 15.518353
v 5.739300 39.357800 15.651752
v 4.301700 38.902199 17.136852
v 4.419900 39.431301 17.014553
v 5.621400 38.827202 15.788254
v 5.487400 38.306301 15.926152
v 6.614600 38.353001 14.851652
v 3.350200 40.573601 18.137051
v 4.532400 39.964901 16.883051
v 4.737400 41.023499 16.599951
v 6.949399 40.488400 14.370653
v 6.040900 41.468102 15.164052
v 4.997000 42.509396 16.167751
v 3.941500 43.050797 17.286951
v 4.072000 43.468491 17.093552
v 3.138000 43.477097 18.212353
v 3.312200 43.870396 17.972153
v 4.638199 40.497395 16.743851
v 3.460800 41.103100 17.992352
v 3.575000 41.620895 17.832052
v 3.693100 42.121696 17.659054
v 2.976200 43.046795 18.440151
v 4.916600 42.034798 16.308851
v 3.815200 42.600098 17.476353
v 4.830100 41.537701 16.453953
v 5.990600 40.952999 15.271553
v 7.871400 39.700699 14.439853
v 7.728400 38.677101 14.666154
v 7.816200 39.186901 14.545352
v 7.831100 39.248402 14.788753
v 7.744999 38.747898 14.908051
v 7.815200 39.322701 15.049653
v 7.868300 39.816200 14.941752
v 7.766600 39.410599 15.325852
v 7.819700 39.896900 15.215353
v 7.764400 40.467701 15.394053
v 7.653700 40.584599 15.680652
v 7.559500 38.110001 14.580052
v 7.682499 38.618301 14.443954
v 7.645800 39.128799 14.185852
v 6.903800 39.952801 14.468551
v 7.486001 40.795502 13.945853
v 7.699800 41.235298 13.902056
v 4.053501 37.879700 17.349352
v 2.954600 38.447895 18.518051
v 2.120100 38.908695 19.480051
v 3.043700 38.969196 18.454651
vt 0.575675 0.092325
vt 0.438425 0.790425
vt 0.258125 0.276225
vt 0.343475 0.312975
vt 0.113600 -1.968100
vt 0.746975 0.571875
vt 0.204425 0.287925
vt 0.572525 0.763875
vt 0.742175 0.258525
vt 0.718175 0.560175
vt 0.660425 0.768975
vt 0.732275 0.425925
vt 0.362375 0.383925
vt 0.302525 0.368325
vt 0.492875 0.493275
vt 0.390275 0.462375
vt 0.402425 0.148125
vt 0.848375 0.387225
vt 0.571025 0.515325
vt 0.779975 0.506925
vt 0.372275 0.808425
vt 0.074300 -1.914200
vt 0.308825 0.506175
vt 0.412925 0.680325
vt 0.545525 0.677775
vt 0.342275 0.730275
vt 0.549575 0.202425
vt 0.197075 0.377325
vt 0.725525 0.686175
vt 0.636725 0.664125
vt 0.752225 0.499275
vt 0.125000 -1.837700
vt 0.486425 0.416025
vt 0.481175 0.726675
vt 0.358325 0.686025
vt 0.795125 0.510375
vt 0.238025 0.653025
vt 0.128700 -1.810000
vt 0.101100 -1.870300
vt 0.315125 0.474375
vt 0.045200 -1.871100
vt 0.154700 -1.921600
vt 0.310025 0.680625
vt 0.609425 0.729675
vt 0.456875 0.520125
vt 0.311825 0.732375
vt 0.176825 0.537825
vt 0.422975 0.740775
vt 0.790325 0.333225
vt 0.335375 0.206775
vt 0.082500 -1.819400
vt 0.599225 0.705225
vt 0.284675 0.802275
vt 0.245375 0.388575
vt 0.647825 0.745725
vt 0.424325 0.219525
vt 0.776225 0.630675
vt 0.805775 0.234675
vt 0.312275 0.792675
vt 0.760775 0.309525
vt 0.094300 -1.802200
vt 0.506375 0.729225
vt 0.665375 0.803325
vt 0.540275 0.614175
vt 0.087200 -1.810400
vt 0.143400 -1.950200
vt 0.367175 0.822075
vt 0.672875 0.579075
vt 0.682775 0.212625
vt 0.605525 0.720375
vt 0.239525 0.493275
vt 0.693425 0.245925
vt 0.748325 0.216525
vt 0.292625 0.400125
vt 0.802175 0.473025
vt 0.455075 0.336525
vt 0.075700 -1.845900
vt 0.465275 0.305175
vt 0.277175 0.464925
vt 0.456275 0.141225
vt 0.264425 0.704925
vt 0.581225 0.705225
vt 0.102200 -1.965000
vt 0.826475 0.394275
vt 0.640475 0.099225
vt 0.267125 0.428775
vt 0.804875 0.553875
vt 0.807125 0.363075
vt 0.652625 0.300675
vt 0.481625 0.154125
vt 0.471125 0.665775
vt 0.722675 0.277875
vt 0.737975 0.366375
vt 0.666725 0.251475
vt 0.101800 -1.937400
vt 0.638225 0.184275
vt 0.708125 0.330975
vt 0.574325 0.405375
vt 0.609575 0.561225
vt 0.814925 0.513975
vt 0.317675 0.573225
vt 0.129300 -1.905000
vt 0.652475 0.150225
vt 0.383825 0.322275
vt 0.632675 0.723975
vt 0.145800 -1.830700
vt 0.715625 0.159375
vt 0.652025 0.670725
vt 0.122600 -1.950200
vt 0.791975 0.592875
vt 0.546725 0.077175
vt 0.520625 0.840825
vt 0.218075 0.629325
vt 0.766625 0.503325
vt 0.550775 0.291675
vt 0.486275 0.855975
vt 0.173525 0.371475
vt 0.270275 0.359025
vt 0.720575 0.203175
vt 0.678425 0.615525
vt 0.466475 0.794325
vt 0.434375 0.808875
vt 0.079500 -1.944500
vt 0.561275 0.157875
vt 0.711575 0.522075
vt 0.255875 0.316725
vt 0.121600 -1.824500
vt 0.723725 0.337125
vt 0.129500 -1.878700
vt 0.216575 0.381975
vt 0.102000 -1.950500
vt 0.550325 0.750675
vt 0.547925 0.065925
vt 0.406325 0.220125
vt 0.224825 0.300375
vt 0.599525 0.655575
vt 0.796175 0.294975
vt 0.632225 0.567075
vt 0.623375 0.227025
vt 0.348275 0.174375
vt 0.434525 0.402075
vt 0.102100 -1.960800
vt 0.077900 -1.937700
vt 0.751925 0.398175
vt 0.322625 0.442275
vt 0.101000 -1.824700
vt 0.384125 0.774675
vt 0.696275 0.780975
vt 0.778175 0.335625
vt 0.691325 0.140025
vt 0.610325 0.627525
vt 0.784475 0.301425
vt 0.482075 0.105075
vt 0.268625 0.321675
vt 0.101000 -1.845500
vt 0.609875 0.088425
vt 0.380525 0.237225
vt 0.511625 0.117225
vt 0.390575 0.186975
vt 0.638525 0.463425
vt 0.693875 0.622425
vt 0.388925 0.670725
vt 0.337775 0.147075
vt 0.125800 -1.937100
vt 0.521375 0.810975
vt 0.432725 0.164775
vt 0.742175 0.289425
vt 0.743675 0.653775
vt 0.222875 0.421125
vt 0.669125 0.112875
vt 0.430325 0.199275
vt 0.711125 0.308775
vt 0.056300 -1.831800
vt 0.488375 0.699825
vt 0.631625 0.123075
vt 0.666875 0.338925
vt 0.078600 -1.831400
vt 0.312725 0.600675
vt 0.068300 -1.814500
vt 0.088300 -1.965100
vt 0.621425 0.597975
vt 0.548675 0.770475
vt 0.364025 0.194025
vt 0.443375 0.769875
vt 0.510275 0.134175
vt 0.608075 0.279375
vt 0.475025 0.275325
vt 0.460025 0.244575
vt 0.377975 0.792525
vt 0.779975 0.220875
vt 0.397475 0.537375
vt 0.127500 -1.853200
vt 0.580475 0.823275
vt 0.700925 0.384825
vt 0.390725 0.754575
vt 0.373325 0.721725
vt 0.419675 0.363075
vt 0.454625 0.628125
vt 0.748625 0.429675
vt 0.634325 0.825825
vt 0.165275 0.415275
vt 0.570425 0.853275
vt 0.323075 0.543675
vt 0.307175 0.816375
vt 0.208175 0.682425
vt 0.567125 0.330975
vt 0.422675 0.861375
vt 0.410975 0.783825
vt 0.574925 0.208575
vt 0.398375 0.093075
vt 0.195575 0.649425
vt 0.073000 -1.879400
vt 0.438425 0.587775
vt 0.619925 0.154425
vt 0.452225 0.098475
vt 0.640475 0.734625
vt 0.194675 0.531675
vt 0.454925 0.125925
vt 0.490025 0.844125
vt 0.763925 0.432225
vt 0.129600 -1.896300
vt 0.773525 0.468675
vt 0.397625 0.732225
vt 0.101100 -1.853400
vt 0.731975 0.295575
vt 0.605825 0.488925
vt 0.497075 0.775425
vt 0.736775 0.494775
vt 0.048100 -1.854100
vt 0.659375 0.712425
vt 0.101000 -1.801600
vt 0.291875 0.713925
vt 0.509075 0.535275
vt 0.368375 0.259725
vt 0.793475 0.366375
vt 0.355325 0.224025
vt 0.519125 0.500775
vt 0.751475 0.719025
vt 0.095700 -1.973100
vt 0.406925 0.160875
vt 0.680075 0.651525
vt 0.129000 -1.870000
vt 0.642125 0.603375
vt 0.380825 0.212475
vt 0.308975 0.804675
vt 0.645875 0.328725
vt 0.196325 0.494475
vt 0.625775 0.765975
vt 0.763625 0.242925
vt 0.615875 0.349125
vt 0.481625 0.866775
vt 0.456425 0.158025
vt 0.490475 0.310125
vt 0.631475 0.777675
vt 0.326375 0.198075
vt 0.295475 0.469125
vt 0.373775 0.631875
vt 0.690575 0.585375
vt 0.123600 -1.806300
vt 0.101900 -1.944300
vt 0.415925 0.241875
vt 0.367175 0.141525
vt 0.598925 0.592725
vt 0.602675 0.113025
vt 0.242825 0.350625
vt 0.808025 0.283875
vt 0.447425 0.554325
vt 0.154200 -1.852800
vt 0.248525 0.213075
vt 0.079600 -1.968700
vt 0.685025 0.152175
vt 0.102300 -1.973500
vt 0.151700 -1.845000
vt 0.410675 0.174225
vt 0.093300 -1.970900
vt 0.225125 0.492825
vt 0.540725 0.117675
vt 0.299075 0.565875
vt 0.302675 0.437025
vt 0.546275 0.847275
vt 0.454925 0.176475
vt 0.764525 0.276825
vt 0.539075 0.431475
vt 0.642575 0.535425
vt 0.669425 0.180375
vt 0.313775 0.337275
vt 0.272975 0.739425
vt 0.260525 0.638025
vt 0.493925 0.065775
vt 0.108900 -1.972900
vt 0.157200 -1.869600
vt 0.786875 0.471225
vt 0.515075 0.608775
vt 0.209525 0.338175
vt 0.325925 0.307725
vt 0.635375 0.790575
vt 0.084700 -1.814500
vt 0.476375 0.450675
vt 0.515975 0.853425
vt 0.394175 0.123675
vt 0.296225 0.214425
vt 0.405125 0.611325
vt 0.555275 0.473775
vt 0.089600 -1.807000
vt 0.663575 0.785175
vt 0.693275 0.516225
vt 0.264875 0.585375
vt 0.549425 0.804975
vt 0.360125 0.843225
vt 0.339125 0.279825
vt 0.675575 0.407325
vt 0.613775 0.707475
vt 0.284375 0.680025
vt 0.425225 0.851175
vt 0.542375 0.227925
vt 0.721925 0.362775
vt 0.260225 0.461775
vt 0.795575 0.251025
vt 0.737525 0.700725
vt 0.711125 0.215475
vt 0.520925 0.065775
vt 0.728225 0.527625
vt 0.470225 0.773925
vt 0.823625 0.355875
vt 0.366125 0.660075
vt 0.177275 0.498075
vt 0.470375 0.375075
vt 0.565025 0.439425
vt 0.389375 0.570075
vt 0.482975 0.527925
vt 0.502775 0.458325
vt 0.344675 0.648525
vt 0.766025 0.176775
vt 0.077100 -1.838400
vt 0.489425 0.602775
vt 0.083500 -1.956200
vt 0.512225 0.101775
vt 0.311225 0.404925
vt 0.249425 0.645675
vt 0.567425 0.234225
vt 0.052900 -1.838500
vt 0.324275 0.273675
vt 0.593375 0.145275
vt 0.521675 0.826725
vt 0.065000 -1.956300
vt 0.507875 0.152775
vt 0.421025 0.651225
vt 0.051200 -1.930600
vt 0.759725 0.619575
vt 0.450725 0.271875
vt 0.482975 0.119925
vt 0.156125 0.502725
vt 0.558125 0.363525
vt 0.074700 -1.853800
vt 0.535175 0.542325
vt 0.701825 0.484125
vt 0.718625 0.146625
vt 0.668825 0.438675
vt 0.320975 0.373275
vt 0.659525 0.274875
vt 0.381725 0.495675
vt 0.292325 0.615675
vt 0.297275 0.332025
vt 0.358325 0.488025
vt 0.456125 0.085425
vt 0.282275 0.326925
vt 0.525425 0.285075
vt 0.704825 0.356625
vt 0.358325 0.762975
vt 0.101500 -1.913900
vt 0.649175 0.637725
vt 0.266225 0.609825
vt 0.393875 0.843825
vt 0.636575 0.110025
vt 0.534275 0.255525
vt 0.250175 0.557475
vt 0.316325 0.232275
vt 0.448925 0.747225
vt 0.276125 0.244275
vt 0.565925 0.138675
vt 0.298775 0.260025
vt 0.084300 -1.970700
vt 0.311075 0.171675
vt 0.526325 0.753075
vt 0.254225 0.613575
vt 0.343925 0.448425
vt 0.761825 0.193275
vt 0.206675 0.637125
vt 0.334775 0.819975
vt 0.599375 0.413925
vt 0.152400 -1.929300
vt 0.416675 0.763425
vt 0.606575 0.823725
vt 0.576725 0.837375
vt 0.394925 0.293625
vt 0.508175 0.866925
vt 0.522575 0.389175
vt 0.660725 0.368175
vt 0.157900 -1.896000
vt 0.050500 -1.846300
vt 0.216125 0.457125
vt 0.524975 0.575925
vt 0.129600 -1.887500
vt 0.575225 0.587475
vt 0.285725 0.363525
vt 0.555875 0.179025
vt 0.748625 0.313275
vt 0.594425 0.754425
vt 0.538025 0.134925
vt 0.676625 0.732225
vt 0.482675 0.091575
vt 0.573875 0.780375
vt 0.047100 -1.914500
vt 0.643775 0.089475
vt 0.606275 0.795525
vt 0.222425 0.527175
vt 0.209375 0.563325
vt 0.318125 0.187275
vt 0.073100 -1.897000
vt 0.430175 0.331425
vt 0.128000 -1.921800
vt 0.653675 0.216825
vt 0.271775 0.497025
vt 0.372275 0.203775
vt 0.187475 0.417225
vt 0.654875 0.756525
vt 0.646775 0.430875
vt 0.118900 -1.804400
vt 0.238925 0.688725
vt 0.638225 0.694275
vt 0.422225 0.545925
vt 0.044800 -1.879900
vt 0.101600 -1.922100
vt 0.668225 0.722325
vt 0.708725 0.171075
vt 0.635675 0.806475
vt 0.631025 0.289725
vt 0.362825 0.317775
vt 0.827975 0.561225
vt 0.138100 -1.818900
vt 0.742925 0.154125
vt 0.236675 0.526425
vt 0.101100 -1.861700
vt 0.327275 0.240075
vt 0.663875 0.541725
vt 0.743675 0.462075
vt 0.336125 0.480825
vt 0.700025 0.183075
vt 0.492575 0.813525
vt 0.142400 -1.824000
vt 0.424325 0.122175
vt 0.731975 0.267675
vt 0.692825 0.659475
vt 0.265775 0.751275
vt 0.318425 0.779625
vt 0.350375 0.709425
vt 0.209225 0.528525
vt 0.524075 0.198075
vt 0.548675 0.397125
vt 0.714875 0.675825
vt 0.544475 0.088425
vt 0.598325 0.128325
vt 0.430025 0.715725
vt 0.456425 0.855225
vt 0.806525 0.435825
vt 0.329075 0.695625
vt 0.430925 0.825375
vt 0.396875 0.641925
vt 0.463475 0.812775
vt 0.741125 0.168375
vt 0.478925 0.173775
vt 0.057200 -1.944700
vt 0.395675 0.357675
vt 0.614975 0.455625
vt 0.259925 0.392025
vt 0.505475 0.640575
vt 0.371975 0.153675
vt 0.719825 0.131475
vt 0.516725 0.076425
vt 0.146700 -1.943600
vt 0.331475 0.610575
vt 0.614525 0.741375
vt 0.405875 0.266625
vt 0.413525 0.579225
vt 0.455525 0.722175
vt 0.463775 0.595725
vt 0.101300 -1.896700
vt 0.576275 0.795675
vt 0.352625 0.415875
vt 0.425375 0.095325
vt 0.530525 0.645225
vt 0.720275 0.637125
vt 0.772775 0.305325
vt 0.780725 0.367425
vt 0.366125 0.560925
vt 0.591875 0.339675
vt 0.397175 0.832275
vt 0.608525 0.683775
vt 0.791525 0.435675
vt 0.162725 0.587475
vt 0.708875 0.452325
vt 0.506375 0.348525
vt 0.358925 0.591825
vt 0.101000 -1.814200
vt 0.645875 0.238725
vt 0.530975 0.729975
vt 0.310175 0.302025
vt 0.780725 0.400275
vt 0.409325 0.395625
vt 0.738275 0.225675
vt 0.124300 -1.944000
vt 0.179825 0.576675
vt 0.083000 -1.804900
vt 0.759125 0.465675
vt 0.279725 0.587025
vt 0.301475 0.646875
vt 0.808325 0.399075
vt 0.683825 0.744075
vt 0.765275 0.338025
vt 0.340925 0.378375
vt 0.468125 0.219075
vt 0.053700 -1.938200
vt 0.229925 0.698925
vt 0.589625 0.681525
vt 0.406325 0.326775
vt 0.118400 -1.960600
vt 0.455075 0.866625
vt 0.184475 0.664125
vt 0.112300 -1.806700
vt 0.681425 0.377025
vt 0.664925 0.123525
vt 0.440675 0.300975
vt 0.260375 0.670575
vt 0.516125 0.316125
vt 0.686525 0.348375
vt 0.384575 0.175725
vt 0.593225 0.723675
vt 0.101400 -1.905400
vt 0.222275 0.560625
vt 0.513425 0.088125
vt 0.714725 0.421125
vt 0.475175 0.751275
vt 0.375575 0.422175
vt 0.734375 0.605025
vt 0.661325 0.609225
vt 0.365825 0.126075
vt 0.773675 0.681675
vt 0.701975 0.229575
vt 0.102000 -1.956000
vt 0.270875 0.284175
vt 0.396875 0.240375
vt 0.674525 0.230775
vt 0.236675 0.423225
vt 0.363425 0.833325
vt 0.613625 0.173025
vt 0.770825 0.542475
vt 0.124900 -1.968200
vt 0.044400 -1.888700
vt 0.195725 0.567975
vt 0.803075 0.328275
vt 0.542675 0.102075
vt 0.107600 -1.802000
vt 0.500075 0.279525
vt 0.460175 0.408975
vt 0.365825 0.743475
vt 0.101000 -1.831000
vt 0.102300 -1.971000
vt 0.286175 0.199575
vt 0.399575 0.428775
vt 0.704375 0.667725
vt 0.673625 0.509925
vt 0.134800 -1.960700
vt 0.139100 -1.955400
vt 0.060700 -1.951200
vt 0.149300 -1.837300
vt 0.128400 -1.861400
vt 0.427625 0.269175
vt 0.437675 0.688575
vt 0.417125 0.297225
vt 0.793775 0.400575
vt 0.773825 0.584025
vt 0.786125 0.263475
vt 0.473225 0.562275
vt 0.836975 0.517575
vt 0.452675 0.111825
vt 0.689975 0.760425
vt 0.199025 0.699825
vt 0.294425 0.760875
vt 0.653375 0.573075
vt 0.592325 0.739725
vt 0.501125 0.753375
vt 0.211475 0.492975
vt 0.845975 0.474075
vt 0.767225 0.368175
vt 0.287825 0.634575
vt 0.512825 0.423525
vt 0.351425 0.347475
vt 0.129900 -1.964400
vt 0.399875 0.206175
vt 0.737525 0.181575
vt 0.356075 0.184125
vt 0.466475 0.485475
vt 0.619175 0.659325
vt 0.224525 0.593025
vt 0.665525 0.644175
vt 0.450275 0.443175
vt 0.254375 0.715275
vt 0.157700 -1.878400
vt 0.817475 0.318825
vt 0.101000 -1.806700
vt 0.606875 0.193875
vt 0.119500 -1.819000
vt 0.778175 0.434175
vt 0.228125 0.345525
vt 0.638975 0.358725
vt 0.630875 0.204375
vt 0.263375 0.230625
vt 0.256175 0.354675
vt 0.207425 0.419175
vt 0.156100 -1.913200
vt 0.045500 -1.906200
vt 0.109900 -1.804100
vt 0.374375 0.289725
vt 0.683675 0.548025
vt 0.613325 0.076425
vt 0.719975 0.489825
vt 0.718475 0.248025
vt 0.282425 0.727425
vt 0.820175 0.270225
vt 0.451325 0.196725
vt 0.491525 0.829725
vt 0.295925 0.296025
vt 0.350825 0.520425
vt 0.459125 0.843525
vt 0.517175 0.223275
vt 0.496475 0.381975
vt 0.372875 0.352575
vt 0.284975 0.531375
vt 0.244475 0.459525
vt 0.587825 0.164175
vt 0.241925 0.740325
vt 0.532325 0.355575
vt 0.707675 0.629775
vt 0.521375 0.674925
vt 0.706625 0.591825
vt 0.081400 -1.950700
vt 0.595925 0.522225
vt 0.649475 0.702825
vt 0.757625 0.537825
vt 0.753125 0.282975
vt 0.736025 0.395325
vt 0.287525 0.253275
vt 0.069400 -1.961400
vt 0.076400 -1.930300
vt 0.645425 0.166275
vt 0.499175 0.569475
vt 0.303425 0.536775
vt 0.246275 0.726375
vt 0.116000 -1.964700
vt 0.721175 0.598425
vt 0.307475 0.625425
vt 0.462275 0.072525
vt 0.405125 0.707475
vt 0.550475 0.581925
vt 0.654125 0.398925
vt 0.073300 -1.810800
vt 0.705575 0.716325
vt 0.378425 0.164475
vt 0.444725 0.368925
vt 0.579425 0.809625
vt 0.073900 -1.862100
vt 0.238775 0.757425
vt 0.615875 0.252075
vt 0.766775 0.399675
vt 0.602375 0.839625
vt 0.101000 -1.804100
vt 0.486725 0.079125
vt 0.785675 0.547575
vt 0.756725 0.206625
vt 0.310925 0.266925
vt 0.278825 0.609675
vt 0.541775 0.323025
vt 0.101000 -1.810100
vt 0.691325 0.196875
vt 0.169925 0.628425
vt 0.432725 0.181125
vt 0.150000 -1.937000
vt 0.736625 0.316125
vt 0.155525 0.546375
vt 0.212225 0.597075
vt 0.101200 -1.879100
vt 0.352925 0.254175
vt 0.696125 0.298575
vt 0.847175 0.430725
vt 0.406025 0.503775
vt 0.306125 0.224475
vt 0.115600 -1.972300
vt 0.752075 0.339525
vt 0.724325 0.315375
vt 0.599675 0.216975
vt 0.796025 0.644325
vt 0.325025 0.636675
vt 0.529925 0.174975
vt 0.724025 0.300525
vt 0.597725 0.768825
vt 0.265475 0.557925
vt 0.344525 0.795525
vt 0.293525 0.664875
vt 0.344975 0.215625
vt 0.583325 0.372075
vt 0.089100 -1.972700
vt 0.295475 0.592425
vt 0.381425 0.601725
vt 0.504125 0.173325
vt 0.482825 0.136125
vt 0.730025 0.192525
vt 0.743525 0.532875
vt 0.073600 -1.905700
vt 0.424475 0.435825
vt 0.275675 0.395925
vt 0.158300 -1.887200
vt 0.695825 0.414675
vt 0.564875 0.618825
vt 0.251675 0.526575
vt 0.101300 -1.887900
vt 0.445925 0.659175
vt 0.373625 0.528675
vt 0.072900 -1.888300
vt 0.548375 0.788625
vt 0.624875 0.687675
vt 0.560375 0.705375
vt 0.733175 0.566025
vt 0.480575 0.342075
vt 0.092000 -1.804400
vt 0.575225 0.726825
vt 0.492125 0.220425
vt 0.251375 0.425625
vt 0.775625 0.271125
vt 0.285275 0.786675
vt 0.391625 0.218475
vt 0.200525 0.456825
vt 0.331775 0.342525
vt 0.413075 0.187725
vt 0.580925 0.481425
vt 0.539375 0.860025
vt 0.821975 0.473775
vt 0.682175 0.477825
vt 0.638375 0.263025
vt 0.085900 -1.961000
vt 0.523325 0.774225
vt 0.496475 0.671025
vt 0.255125 0.494475
vt 0.422525 0.109275
vt 0.229775 0.623925
vt 0.045000 -1.897400
vt 0.834575 0.305925
vt 0.619925 0.528825
vt 0.568475 0.679725
vt 0.303725 0.151575
vt 0.126400 -1.845200
vt 0.537425 0.704775
vt 0.652325 0.503175
vt 0.078400 -1.807000
vt 0.281825 0.560625
vt 0.320675 0.715275
vt 0.101000 -1.838000
vt 0.545375 0.508125
vt 0.697025 0.117075
vt 0.111200 -1.970700
vt 0.128800 -1.913600
vt 0.223625 0.712725
vt 0.550925 0.833925
vt 0.090900 -1.968400
vt 0.075200 -1.922500
vt 0.841475 0.346575
vt 0.237425 0.589425
vt 0.608675 0.808725
vt 0.601775 0.782625
vt 0.395225 0.108975
vt 0.480125 0.635025
vt 0.569675 0.121575
vt 0.046700 -1.862600
vt 0.715325 0.290925
vt 0.709625 0.261825
vt 0.461225 0.829275
vt 0.334175 0.748875
vt 0.521825 0.793425
vt 0.381125 0.697425
vt 0.289625 0.500775
vt 0.120200 -1.970300
vt 0.318125 0.660075
vt 0.188975 0.329625
vt 0.685625 0.264975
vt 0.114800 -1.810000
vt 0.577925 0.652275
vt 0.623525 0.422475
vt 0.274625 0.693225
vt 0.366575 0.455025
vt 0.572975 0.105975
vt 0.262625 0.765075
vt 0.242825 0.264375
vt 0.080400 -1.825000
vt 0.534575 0.153975
vt 0.430625 0.079275
vt 0.629675 0.496125
vt 0.678875 0.287025
vt 0.059700 -1.825100
vt 0.437075 0.243075
vt 0.623525 0.318525
vt 0.087700 -1.802800
vt 0.199775 0.603375
vt 0.429575 0.620175
vt 0.287975 0.773475
vt 0.395825 0.197625
vt 0.261725 0.779775
vt 0.484175 0.246975
vt 0.513275 0.702975
vt 0.606575 0.099675
vt 0.677225 0.165375
vt 0.235775 0.558525
vt 0.580625 0.071175
vt 0.303125 0.747525
vt 0.631475 0.390075
vt 0.585725 0.555225
vt 0.625925 0.137925
vt 0.592025 0.242475
vt 0.180725 0.457725
vt 0.365975 0.106875
vt 0.155700 -1.861200
vt 0.554075 0.728925
vt 0.719075 0.390975
vt 0.074500 -1.965100
vt 0.529175 0.466125
vt 0.560825 0.548925
vt 0.270725 0.660075
vt 0.242075 0.310125
vt 0.474425 0.195375
vt 0.578225 0.081225
vt 0.430925 0.149475
vt 0.674225 0.102675
vt 0.588275 0.623175
vt 0.584225 0.270075
vt 0.226475 0.250575
vt 0.073300 -1.870700
vt 0.498875 0.195825
vt 0.156875 0.459075
vt 0.338825 0.808725
vt 0.696575 0.705225
vt 0.607775 0.381075
vt 0.431225 0.512025
vt 0.270875 0.630825
vt 0.366875 0.231525
vt 0.726875 0.457575
vt 0.559475 0.261975
vt 0.463025 0.695025
vt 0.630725 0.632175
vt 0.276125 0.182325
vt 0.687125 0.696225
vt 0.691325 0.322125
vt 0.231875 0.385575
vt 0.341825 0.162825
vt 0.329225 0.512775
vt 0.572525 0.746175
vt 0.127000 -1.929700
vt 0.811925 0.602775
vt 0.117200 -1.814100
vt 0.665225 0.678525
vt 0.301175 0.698475
vt 0.427925 0.839625
vt 0.676775 0.687225
vt 0.337175 0.673425
vt 0.581675 0.185325
vt 0.401225 0.818325
vt 0.694925 0.128325
vt 0.554825 0.648975
vt 0.825875 0.433725
vt 0.048700 -1.922900
vt 0.551075 0.820125
vt 0.701675 0.554175
vt 0.759575 0.577425
vt 0.280325 0.648675
vt 0.445175 0.218925
vt 0.738275 0.339675
vt 0.216725 0.669075
vt 0.672875 0.311775
vt 0.249575 0.680175
vt 0.405725 0.801975
vt 0.689525 0.445875
vt 0.351875 0.621225
vt 0.575825 0.299625
vt 0.728225 0.236025
vt 0.624425 0.714225
vt 0.415025 0.469875
vt 0.746525 0.611625
vt 0.590375 0.447525
vt 0.101700 -1.930000
vt 0.351275 0.780225
vt 0.772925 0.233925
vt 0.114200 -1.802500
vt 0.334925 0.129225
vt 0.241925 0.618525
vt 0.344075 0.551925
vt 0.331175 0.410175
vt 0.385325 0.389625
vt 0.278975 0.625125
vt 0.355775 0.285225
vt 0.600125 0.308775
vt 0.661475 0.197475
vt 0.267725 0.528225
vt 0.753125 0.368025
vt 0.102200 -1.968300
vt 0.390425 0.855975
vt 0.620075 0.753675
vt 0.218975 0.728625
vt 0.250925 0.586575
vt 0.101000 -1.819100
vt 0.120600 -1.955800
vt 0.282875 0.290025
vt 0.412325 0.202725
vt 0.229775 0.458025
vt 0.284225 0.432525
vt 0.157500 -1.904800
vt 0.427925 0.135225
vt 0.659225 0.135975
vt 0.509075 0.250575
vt 0.661025 0.470775
vt 0.133700 -1.813700
vt 0.226925 0.660075
vt 0.326225 0.765225
vt 0.494375 0.795375
vt 0.185975 0.614025
vt 0.731675 0.644475
vt 0.440525 0.477675
vt 0.714725 0.732075
vt 0.123400 -1.830800
vt 0.723875 0.749925
vt 0.064000 -1.819800
vt 0.758075 0.666825
vt 0.397325 0.136275
vt 0.386075 0.263775
vt 0.339275 0.247575
vt 0.329825 0.830475
vt 0.337625 0.582225
vt 0.752975 0.250275
vt 0.785975 0.205725
vt 0.701975 0.278325
s 1
g vn_lyra_reference_001
usemtl vn_lyra_reference_001SG1
f 3/750 4/227 5/930
f 101/813 102/588 103/287
f 283/96 284/555 285/611
f 432/762 433/571 434/747
f 561/371 562/605 563/120
f 692/592 693/401 694/741
f 838/39 839/691 840/129
f 16/34 1/174 8/855
f 513/817 1/174 16/34
f 16/34 514/62 513/817
f 507/726 9/578 8/855
f 28/165 632/308 633/729
f 633/729 2/787 28/165
f 28/165 2/787 5/930
f 5/930 2/787 3/750
f 15/591 4/227 3/750
f 11/323 4/227 15/591
f 15/591 17/542 11/323
f 11/323 17/542 6/378
f 6/378 17/542 16/34
f 16/34 7/485 6/378
f 8/855 7/485 16/34
f 19/463 7/485 8/855
f 8/855 9/578 19/463
f 19/463 9/578 10/24
f 10/24 9/578 507/726
f 507/726 506/347 10/24
f 10/24 506/347 148/468
f 5/930 4/227 11/323
f 11/323 12/121 5/930
f 3/750 2/787 633/729
f 633/729 13/182 3/750
f 3/750 13/182 525/132
f 525/132 14/384 3/750
f 3/750 14/384 15/591
f 15/591 14/384 524/506
f 524/506 514/62 15/591
f 15/591 514/62 16/34
f 16/34 17/542 15/591
f 10/24 18/663 19/463
f 19/463 18/663 96/223
f 96/223 21/48 19/463
f 20/392 21/48 96/223
f 6/378 21/48 20/392
f 19/463 21/48 6/378
f 6/378 7/485 19/463
f 98/897 91/707 22/21
f 22/21 30/189 98/897
f 98/897 30/189 23/147
f 23/147 30/189 31/887
f 31/887 24/208 23/147
f 26/2 24/208 31/887
f 20/392 24/208 26/2
f 26/2 25/184 20/392
f 20/392 25/184 6/378
f 6/378 25/184 11/323
f 11/323 25/184 26/2
f 26/2 12/121 11/323
f 27/469 12/121 26/2
f 5/930 12/121 27/469
f 27/469 29/449 5/930
f 5/930 29/449 28/165
f 28/165 29/449 32/631
f 32/631 49/344 28/165
f 31/887 30/189 22/21
f 22/21 35/873 31/887
f 32/631 29/449 27/469
f 27/469 56/785 32/631
f 28/165 49/344 51/878
f 51/878 632/308 28/165
f 27/469 33/122 34/467
f 26/2 33/122 27/469
f 31/887 33/122 26/2
f 34/467 33/122 31/887
f 31/887 35/873 34/467
f 34/467 35/873 43/497
f 43/497 35/873 22/21
f 22/21 36/67 43/497
f 88/847 36/67 22/21
f 40/554 36/67 88/847
f 88/847 37/389 40/554
f 40/554 37/389 135/942
f 135/942 37/389 39/245
f 39/245 134/204 135/942
f 85/53 134/204 39/245
f 88/847 38/59 39/245
f 39/245 37/389 88/847
f 43/497 36/67 40/554
f 40/554 41/373 43/497
f 135/942 136/309 40/554
f 40/554 136/309 125/912
f 125/912 41/373 40/554
f 42/314 41/373 125/912
f 43/497 41/373 42/314
f 42/314 44/869 43/497
f 43/497 44/869 34/467
f 34/467 44/869 45/634
f 45/634 44/869 42/314
f 42/314 47/464 45/634
f 123/527 47/464 42/314
f 48/116 47/464 123/527
f 123/527 122/251 48/116
f 48/116 122/251 120/396
f 48/116 46/219 45/634
f 45/634 47/464 48/116
f 42/314 124/207 123/527
f 125/912 124/207 42/314
f 57/112 49/344 32/631
f 51/878 49/344 57/112
f 57/112 50/772 51/878
f 52/280 50/772 57/112
f 630/193 50/772 52/280
f 52/280 53/394 630/193
f 116/202 53/394 52/280
f 52/280 54/745 116/202
f 120/396 54/745 52/280
f 52/280 55/299 120/396
f 120/396 55/299 48/116
f 48/116 55/299 57/112
f 57/112 46/219 48/116
f 32/631 46/219 57/112
f 45/634 46/219 32/631
f 32/631 56/785 45/634
f 45/634 56/785 34/467
f 34/467 56/785 27/469
f 57/112 55/299 52/280
f 63/786 97/369 95/565
f 95/565 65/26 63/786
f 59/429 58/523 83/658
f 83/658 60/607 59/429
f 103/287 60/607 83/658
f 74/81 60/607 103/287
f 103/287 61/628 74/81
f 74/81 61/628 62/232
f 62/232 61/628 100/822
f 100/822 64/46 62/232
f 63/786 64/46 100/822
f 67/765 64/46 63/786
f 63/786 65/26 67/765
f 67/765 65/26 71/456
f 71/456 65/26 95/565
f 95/565 66/196 71/456
f 96/223 66/196 95/565
f 68/788 66/196 96/223
f 96/223 18/663 68/788
f 68/788 18/663 10/24
f 71/456 66/196 68/788
f 68/788 70/35 71/456
f 67/765 72/868 62/232
f 62/232 64/46 67/765
f 103/287 102/588 100/822
f 100/822 61/628 103/287
f 74/81 75/886 59/429
f 59/429 60/607 74/81
f 148/468 138/162 10/24
f 10/24 138/162 68/788
f 68/788 138/162 69/325
f 69/325 70/35 68/788
f 77/871 70/35 69/325
f 71/456 70/35 77/871
f 77/871 76/466 71/456
f 71/456 76/466 67/765
f 67/765 76/466 80/43
f 80/43 72/868 67/765
f 78/313 72/868 80/43
f 62/232 72/868 78/313
f 78/313 73/797 62/232
f 62/232 73/797 74/81
f 74/81 73/797 663/533
f 663/533 75/886 74/81
f 666/37 75/886 663/533
f 59/429 75/886 666/37
f 80/43 76/466 77/871
f 663/533 73/797 78/313
f 78/313 661/835 663/533
f 660/881 661/835 78/313
f 78/313 79/708 660/881
f 80/43 79/708 78/313
f 81/516 79/708 80/43
f 80/43 82/791 81/516
f 77/871 82/791 80/43
f 145/702 82/791 77/871
f 77/871 146/332 145/702
f 69/325 146/332 77/871
f 666/37 651/928 59/429
f 59/429 651/928 653/884
f 653/884 58/523 59/429
f 92/771 58/523 653/884
f 83/658 58/523 92/771
f 92/771 84/641 83/658
f 83/658 84/641 86/800
f 86/800 84/641 132/672
f 132/672 131/815 86/800
f 86/800 131/815 85/53
f 85/53 87/739 86/800
f 39/245 87/739 85/53
f 101/813 87/739 39/245
f 39/245 38/59 101/813
f 101/813 38/59 90/455
f 90/455 38/59 88/847
f 88/847 91/707 90/455
f 22/21 91/707 88/847
f 653/884 89/205 92/771
f 98/897 99/929 90/455
f 90/455 91/707 98/897
f 132/672 84/641 92/771
f 92/771 112/914 132/672
f 93/587 112/914 92/771
f 92/771 89/205 93/587
f 93/587 89/205 654/211
f 654/211 656/528 93/587
f 23/147 24/208 20/392
f 20/392 94/195 23/147
f 96/223 94/195 20/392
f 95/565 94/195 96/223
f 23/147 94/195 95/565
f 95/565 97/369 23/147
f 23/147 97/369 98/897
f 98/897 97/369 63/786
f 63/786 99/929 98/897
f 100/822 99/929 63/786
f 90/455 99/929 100/822
f 100/822 102/588 90/455
f 90/455 102/588 101/813
f 103/287 104/454 101/813
f 83/658 104/454 103/287
f 86/800 104/454 83/658
f 101/813 104/454 86/800
f 86/800 87/739 101/813
f 106/146 105/916 110/51
f 114/504 105/916 117/612
f 117/612 105/916 106/146
f 106/146 107/127 117/612
f 832/935 107/127 106/146
f 106/146 108/566 832/935
f 832/935 108/566 819/766
f 819/766 108/566 109/177
f 109/177 108/566 106/146
f 106/146 111/802 109/177
f 110/51 111/802 106/146
f 93/807 111/802 110/51
f 110/51 112/937 93/807
f 132/179 112/937 110/51
f 93/807 656/173 109/177
f 109/177 111/802 93/807
f 117/612 113/866 114/504
f 128/610 129/304 130/65
f 130/65 115/683 128/610
f 114/504 115/683 130/65
f 121/794 115/683 114/504
f 114/504 113/866 121/794
f 121/794 113/866 116/927
f 116/927 113/866 117/612
f 117/612 118/440 116/927
f 616/450 118/440 117/612
f 117/612 107/127 616/450
f 128/610 115/683 121/794
f 121/794 119/529 128/610
f 128/610 119/529 126/622
f 121/794 54/38 120/259
f 116/927 54/38 121/794
f 120/259 119/529 121/794
f 126/622 119/529 120/259
f 120/259 122/428 126/622
f 126/622 122/428 123/899
f 123/899 124/562 126/622
f 126/622 124/562 125/231
f 125/231 127/676 126/622
f 126/622 127/676 128/610
f 128/610 127/676 137/734
f 137/734 129/304 128/610
f 85/763 129/304 137/734
f 130/65 129/304 85/763
f 85/763 131/666 130/65
f 130/65 131/666 132/179
f 132/179 133/297 130/65
f 110/51 133/297 132/179
f 114/504 133/297 110/51
f 110/51 105/916 114/504
f 130/65 133/297 114/504
f 137/734 134/513 85/763
f 135/810 134/513 137/734
f 137/734 136/61 135/810
f 125/231 136/61 137/734
f 137/734 127/676 125/231
f 69/325 138/162 148/468
f 159/256 139/789 158/23
f 158/23 139/789 718/638
f 718/638 141/657 158/23
f 151/278 141/657 718/638
f 140/203 141/657 151/278
f 151/278 142/101 140/203
f 140/203 142/101 154/943
f 154/943 142/101 143/178
f 143/178 144/481 154/943
f 145/702 144/481 143/178
f 152/889 144/481 145/702
f 145/702 146/332 152/889
f 152/889 146/332 69/325
f 69/325 147/257 152/889
f 148/468 147/257 69/325
f 492/713 147/257 148/468
f 148/468 149/302 492/713
f 492/713 149/302 150/484
f 140/203 157/862 158/23
f 158/23 141/657 140/203
f 151/278 776/712 143/178
f 143/178 142/101 151/278
f 154/943 144/481 152/889
f 152/889 153/503 154/943
f 152/889 147/257 492/713
f 492/713 153/503 152/889
f 489/495 153/503 492/713
f 154/943 153/503 489/495
f 489/495 155/902 154/943
f 154/943 155/902 140/203
f 140/203 155/902 487/633
f 487/633 157/862 140/203
f 156/447 157/862 487/633
f 158/23 157/862 156/447
f 156/447 164/40 158/23
f 158/23 164/40 159/256
f 159/256 164/40 173/145
f 173/145 160/279 159/256
f 161/338 160/279 173/145
f 163/921 160/279 161/338
f 161/338 719/74 163/921
f 163/921 719/74 715/720
f 489/495 162/727 487/633
f 487/633 155/902 489/495
f 159/256 160/279 163/921
f 163/921 717/79 159/256
f 173/145 164/40 156/447
f 156/447 165/386 173/145
f 161/338 171/359 170/14
f 170/14 719/74 161/338
f 180/342 166/680 187/632
f 187/632 167/507 180/342
f 180/342 167/507 174/295
f 174/295 167/507 169/363
f 169/363 168/286 174/295
f 170/14 168/286 169/363
f 183/742 168/286 170/14
f 170/14 171/359 183/742
f 183/742 171/359 175/520
f 175/520 171/359 161/338
f 161/338 172/903 175/520
f 173/145 172/903 161/338
f 472/489 172/903 173/145
f 173/145 165/386 472/489
f 472/489 165/386 177/798
f 177/798 165/386 156/447
f 156/447 178/364 177/798
f 487/633 178/364 156/447
f 183/742 182/4 174/295
f 174/295 168/286 183/742
f 169/363 167/507 187/632
f 187/632 722/366 169/363
f 175/520 172/903 472/489
f 472/489 185/13 175/520
f 488/361 176/16 177/798
f 177/798 178/364 488/361
f 225/444 179/941 224/236
f 224/236 179/941 194/692
f 194/692 179/941 180/342
f 180/342 181/310 194/692
f 174/295 181/310 180/342
f 186/906 181/310 174/295
f 174/295 182/4 186/906
f 186/906 182/4 193/438
f 193/438 182/4 183/742
f 183/742 184/597 193/438
f 175/520 184/597 183/742
f 190/637 184/597 175/520
f 175/520 185/13 190/637
f 190/637 185/13 189/904
f 189/904 185/13 472/489
f 190/637 191/104 193/438
f 193/438 184/597 190/637
f 194/692 181/310 186/906
f 186/906 195/234 194/692
f 187/632 166/680 726/381
f 726/381 166/680 225/444
f 225/444 166/680 180/342
f 180/342 179/941 225/444
f 225/444 188/377 726/381
f 189/904 482/509 481/197
f 481/197 197/473 189/904
f 189/904 197/473 190/637
f 190/637 197/473 204/525
f 204/525 191/104 190/637
f 198/395 191/104 204/525
f 193/438 191/104 198/395
f 198/395 192/623 193/438
f 193/438 192/623 186/906
f 186/906 192/623 207/940
f 207/940 195/234 186/906
f 199/157 195/234 207/940
f 194/692 195/234 199/157
f 199/157 196/852 194/692
f 194/692 196/852 224/236
f 224/236 196/852 219/244
f 219/244 221/424 224/236
f 204/525 197/473 481/197
f 207/940 192/623 198/395
f 219/244 196/852 199/157
f 204/525 205/579 198/395
f 207/940 209/551 199/157
f 476/606 200/564 483/141
f 483/141 200/564 201/327
f 201/327 480/669 483/141
f 469/76 480/669 201/327
f 481/197 480/669 469/76
f 469/76 202/420 481/197
f 481/197 202/420 204/525
f 204/525 202/420 203/532
f 203/532 205/579 204/525
f 471/577 205/579 203/532
f 198/395 205/579 471/577
f 471/577 206/483 198/395
f 198/395 206/483 207/940
f 207/940 206/483 208/261
f 208/261 209/551 207/940
f 210/134 209/551 208/261
f 199/157 209/551 210/134
f 210/134 213/740 199/157
f 471/577 211/808 208/261
f 208/261 206/483 471/577
f 469/76 212/78 203/532
f 203/532 202/420 469/76
f 199/157 213/740 219/244
f 219/244 213/740 217/599
f 217/599 213/740 210/134
f 210/134 216/919 217/599
f 459/188 211/808 471/577
f 214/882 211/808 459/188
f 208/261 211/808 214/882
f 214/882 215/56 208/261
f 208/261 215/56 210/134
f 210/134 215/56 229/171
f 229/171 216/919 210/134
f 218/743 216/919 229/171
f 217/599 216/919 218/743
f 218/743 220/814 217/599
f 217/599 220/814 219/244
f 219/244 220/814 232/159
f 232/159 221/424 219/244
f 222/183 221/424 232/159
f 224/236 221/424 222/183
f 222/183 223/709 224/236
f 224/236 223/709 225/444
f 225/444 223/709 728/50
f 728/50 223/709 222/183
f 222/183 234/601 728/50
f 214/882 227/630 229/171
f 229/171 215/56 214/882
f 218/743 230/274 232/159
f 232/159 220/814 218/743
f 459/188 226/521 214/882
f 214/882 226/521 245/837
f 245/837 227/630 214/882
f 246/281 227/630 245/837
f 229/171 227/630 246/281
f 246/281 228/686 229/171
f 229/171 228/686 218/743
f 218/743 228/686 235/166
f 235/166 230/274 218/743
f 231/240 230/274 235/166
f 232/159 230/274 231/240
f 231/240 233/536 232/159
f 232/159 233/536 222/183
f 222/183 233/536 237/668
f 237/668 234/601 222/183
f 733/140 234/601 237/668
f 728/50 234/601 733/140
f 733/140 730/255 728/50
f 246/281 247/252 235/166
f 235/166 228/686 246/281
f 231/240 236/17 237/668
f 237/668 233/536 231/240
f 733/140 238/861 734/418
f 734/418 730/255 733/140
f 457/736 243/845 245/837
f 245/837 226/521 457/736
f 261/854 240/375 239/367
f 257/315 240/375 261/854
f 241/925 240/375 257/315
f 257/315 242/635 241/925
f 241/925 242/635 457/736
f 457/736 242/635 258/458
f 258/458 243/845 457/736
f 254/714 243/845 258/458
f 245/837 243/845 254/714
f 254/714 244/471 245/837
f 245/837 244/471 246/281
f 246/281 244/471 253/90
f 253/90 247/252 246/281
f 250/80 247/252 253/90
f 235/166 247/252 250/80
f 250/80 251/839 235/166
f 235/166 251/839 231/240
f 231/240 251/839 739/923
f 258/458 242/635 257/315
f 253/90 244/471 254/714
f 239/367 240/375 241/925
f 241/925 248/563 239/367
f 258/458 256/703 254/714
f 250/80 252/715 752/351
f 253/90 252/715 250/80
f 752/351 751/153 750/585
f 750/585 249/218 752/351
f 752/351 249/218 250/80
f 250/80 249/218 739/923
f 739/923 251/839 250/80
f 739/923 249/218 750/585
f 752/351 252/715 754/185
f 754/185 252/715 253/90
f 253/90 255/346 754/185
f 254/714 255/346 253/90
f 268/803 255/346 254/714
f 254/714 256/703 268/803
f 268/803 256/703 265/406
f 265/406 256/703 258/458
f 258/458 259/27 265/406
f 257/315 259/27 258/458
f 270/209 259/27 257/315
f 257/315 260/340 270/209
f 270/209 260/340 263/826
f 263/826 260/340 261/854
f 261/854 262/842 263/826
f 264/890 262/842 261/854
f 415/186 262/842 264/890
f 264/890 423/907 415/186
f 261/854 260/340 257/315
f 754/185 255/346 268/803
f 268/803 755/409 754/185
f 265/406 259/27 270/209
f 270/209 269/872 265/406
f 261/854 447/115 264/890
f 425/496 423/907 264/890
f 266/277 755/409 273/380
f 273/380 755/409 268/803
f 268/803 267/124 273/380
f 265/406 267/124 268/803
f 286/640 267/124 265/406
f 265/406 269/872 286/640
f 286/640 269/872 285/611
f 285/611 269/872 270/209
f 270/209 271/700 285/611
f 263/826 271/700 270/209
f 281/139 271/700 263/826
f 263/826 272/673 281/139
f 281/139 272/673 414/748
f 414/748 272/673 415/186
f 415/186 272/673 263/826
f 263/826 262/842 415/186
f 286/640 287/343 273/380
f 273/380 267/124 286/640
f 281/139 282/616 285/611
f 285/611 271/700 281/139
f 266/277 760/561 274/337
f 274/337 753/158 266/277
f 414/748 413/360 275/94
f 276/320 277/548 359/627
f 359/627 277/548 363/72
f 363/72 277/548 338/69
f 338/69 278/552 363/72
f 279/422 278/552 338/69
f 275/94 278/552 279/422
f 279/422 280/505 275/94
f 275/94 280/505 414/748
f 414/748 280/505 281/139
f 281/139 280/505 279/422
f 279/422 282/616 281/139
f 283/96 282/616 279/422
f 285/611 282/616 283/96
f 285/611 284/555 286/640
f 286/640 284/555 293/214
f 293/214 287/343 286/640
f 288/462 287/343 293/214
f 293/214 284/555 283/96
f 283/96 291/655 293/214
f 363/72 278/552 275/94
f 338/69 277/548 276/320
f 276/320 337/684 338/69
f 295/799 759/781 288/462
f 288/462 294/264 295/799
f 338/69 289/908 279/422
f 279/422 289/908 283/96
f 283/96 289/908 290/285
f 290/285 291/655 283/96
f 292/103 291/655 290/285
f 293/214 291/655 292/103
f 292/103 300/825 293/214
f 293/214 300/825 288/462
f 288/462 300/825 307/175
f 307/175 294/264 288/462
f 308/818 294/264 307/175
f 295/799 294/264 308/818
f 308/818 296/1 295/799
f 295/799 296/1 301/461
f 301/461 296/1 297/838
f 297/838 302/111 301/461
f 298/133 302/111 297/838
f 762/479 302/111 298/133
f 298/133 299/321 762/479
f 762/479 299/321 763/289
f 307/175 300/825 292/103
f 762/479 761/540 301/461
f 301/461 302/111 762/479
f 307/175 309/374 308/818
f 290/285 303/819 292/103
f 313/625 304/821 297/838
f 297/838 304/821 298/133
f 305/448 303/819 290/285
f 306/271 303/819 305/448
f 292/103 303/819 306/271
f 306/271 311/924 292/103
f 292/103 311/924 307/175
f 307/175 311/924 310/531
f 310/531 309/374 307/175
f 316/85 309/374 310/531
f 308/818 309/374 316/85
f 316/85 312/156 308/818
f 306/271 318/150 310/531
f 310/531 311/924 306/271
f 297/838 296/1 308/818
f 308/818 312/156 297/838
f 297/838 312/156 313/625
f 313/625 312/156 316/85
f 316/85 314/414 313/625
f 315/840 314/414 316/85
f 316/85 317/170 315/840
f 310/531 317/170 316/85
f 321/874 317/170 310/531
f 310/531 318/150 321/874
f 321/874 318/150 324/107
f 324/107 318/150 306/271
f 306/271 319/435 324/107
f 305/448 319/435 306/271
f 335/716 319/435 305/448
f 305/448 336/119 335/716
f 324/107 319/435 335/716
f 324/107 322/357 321/874
f 315/840 317/170 321/874
f 321/874 320/768 315/840
f 808/478 320/768 321/874
f 321/874 322/357 808/478
f 808/478 322/357 323/470
f 323/470 322/357 324/107
f 324/107 326/600 323/470
f 335/716 326/600 324/107
f 327/679 326/600 335/716
f 323/470 325/441 808/478
f 796/333 325/441 323/470
f 323/470 326/600 327/679
f 327/679 328/387 323/470
f 323/470 328/387 796/333
f 796/333 328/387 331/190
f 331/190 329/945 796/333
f 794/58 329/945 331/190
f 327/679 332/898 331/190
f 331/190 328/387 327/679
f 790/756 791/629 345/266
f 345/266 791/629 794/58
f 794/58 330/318 345/266
f 331/190 330/318 794/58
f 340/582 330/318 331/190
f 331/190 332/898 340/582
f 340/582 332/898 333/249
f 333/249 332/898 327/679
f 327/679 334/73 333/249
f 335/716 334/73 327/679
f 339/510 334/73 335/716
f 335/716 336/119 339/510
f 339/510 336/119 276/320
f 276/320 336/119 305/448
f 305/448 337/684 276/320
f 290/285 337/684 305/448
f 338/69 337/684 290/285
f 290/285 289/908 338/69
f 333/249 334/73 339/510
f 339/510 349/944 333/249
f 340/582 346/137 345/266
f 345/266 330/318 340/582
f 342/324 877/84 341/18
f 341/18 784/775 342/324
f 342/324 784/775 790/756
f 790/756 343/609 342/324
f 345/266 343/609 790/756
f 344/560 343/609 345/266
f 345/266 346/137 344/560
f 344/560 346/137 354/152
f 354/152 346/137 340/582
f 340/582 347/738 354/152
f 333/249 347/738 340/582
f 351/282 347/738 333/249
f 333/249 349/944 351/282
f 351/282 349/944 348/9
f 348/9 349/944 339/510
f 339/510 350/891 348/9
f 276/320 350/891 339/510
f 359/627 350/891 276/320
f 354/152 347/738 351/282
f 348/9 350/891 359/627
f 342/324 343/609 344/560
f 348/9 357/650 351/282
f 354/152 353/49 344/560
f 344/560 353/49 352/235
f 352/235 353/49 364/149
f 364/149 353/49 354/152
f 354/152 355/493 364/149
f 351/282 355/493 354/152
f 356/60 355/493 351/282
f 351/282 357/650 356/60
f 356/60 357/650 369/167
f 369/167 357/650 348/9
f 348/9 358/452 369/167
f 359/627 358/452 348/9
f 360/92 358/452 359/627
f 359/627 362/784 360/92
f 360/92 362/784 361/946
f 361/946 362/784 363/72
f 363/72 365/793 361/946
f 275/94 365/793 363/72
f 366/806 365/793 275/94
f 363/72 362/784 359/627
f 369/167 358/452 360/92
f 360/92 412/225 369/167
f 356/60 371/519 364/149
f 364/149 355/493 356/60
f 361/946 365/793 366/806
f 366/806 367/693 361/946
f 352/235 368/580 374/517
f 374/517 878/88 352/235
f 380/688 379/407 369/167
f 369/167 379/407 356/60
f 356/60 379/407 370/698
f 370/698 371/519 356/60
f 372/594 371/519 370/698
f 364/149 371/519 372/594
f 372/594 378/494 364/149
f 364/149 378/494 352/235
f 352/235 378/494 373/508
f 373/508 368/580 352/235
f 384/499 368/580 373/508
f 374/517 368/580 384/499
f 384/499 375/465 374/517
f 374/517 375/465 377/876
f 377/876 375/465 386/75
f 386/75 376/746 377/876
f 386/75 375/465 384/499
f 372/594 383/674 373/508
f 373/508 378/494 372/594
f 370/698 379/407 380/688
f 380/688 382/883 370/698
f 381/128 382/883 380/688
f 390/93 382/883 381/128
f 370/698 382/883 390/93
f 390/93 389/910 370/698
f 370/698 389/910 372/594
f 372/594 389/910 394/144
f 394/144 383/674 372/594
f 391/220 383/674 394/144
f 373/508 383/674 391/220
f 391/220 388/613 373/508
f 373/508 388/613 384/499
f 384/499 388/613 862/222
f 862/222 385/292 384/499
f 384/499 385/292 386/75
f 386/75 385/292 387/20
f 862/222 388/613 391/220
f 394/144 389/910 390/93
f 390/93 395/651 394/144
f 391/220 392/514 862/222
f 862/222 392/514 865/31
f 865/31 392/514 868/446
f 868/446 392/514 391/220
f 391/220 393/199 868/446
f 394/144 393/199 391/220
f 400/12 393/199 394/144
f 394/144 395/651 400/12
f 400/12 395/651 402/831
f 402/831 395/651 390/93
f 390/93 396/316 402/831
f 381/128 396/316 390/93
f 406/368 396/316 381/128
f 381/128 397/97 406/368
f 406/368 397/97 398/859
f 398/859 397/97 404/172
f 404/172 397/97 381/128
f 381/128 399/699 404/172
f 400/12 870/853 868/446
f 868/446 393/199 400/12
f 406/368 401/194 402/831
f 402/831 396/316 406/368
f 380/688 399/699 381/128
f 403/704 399/699 380/688
f 404/172 399/699 403/704
f 403/704 411/783 404/172
f 872/722 401/194 405/530
f 405/530 401/194 406/368
f 406/368 407/535 405/530
f 398/859 407/535 406/368
f 408/176 407/535 398/859
f 398/859 410/885 408/176
f 408/176 410/885 409/89
f 409/89 410/885 366/806
f 366/806 410/885 398/859
f 398/859 367/693 366/806
f 404/172 367/693 398/859
f 361/946 367/693 404/172
f 404/172 411/783 361/946
f 361/946 411/783 360/92
f 360/92 411/783 403/704
f 403/704 412/225 360/92
f 380/688 412/225 403/704
f 369/167 412/225 380/688
f 408/176 419/398 405/530
f 405/530 407/535 408/176
f 275/94 413/360 366/806
f 366/806 413/360 409/89
f 409/89 413/360 414/748
f 414/748 416/437 409/89
f 415/186 416/437 414/748
f 424/809 416/437 415/186
f 409/89 416/437 424/809
f 424/809 417/246 409/89
f 409/89 417/246 408/176
f 408/176 417/246 418/615
f 418/615 419/398 408/176
f 427/665 419/398 418/615
f 405/530 419/398 427/665
f 427/665 420/311 405/530
f 405/530 420/311 872/722
f 872/722 420/311 422/358
f 422/358 421/888 872/722
f 434/747 421/888 422/358
f 427/665 430/427 422/358
f 422/358 420/311 427/665
f 424/809 426/250 418/615
f 418/615 417/246 424/809
f 872/722 421/888 581/501
f 581/501 871/541 872/722
f 415/186 423/907 424/809
f 424/809 423/907 425/496
f 425/496 426/250 424/809
f 444/849 426/250 425/496
f 418/615 426/250 444/849
f 444/849 428/823 418/615
f 418/615 428/823 427/665
f 427/665 428/823 443/796
f 443/796 430/427 427/665
f 429/160 430/427 443/796
f 422/358 430/427 429/160
f 429/160 431/926 422/358
f 422/358 431/926 434/747
f 434/747 431/926 432/762
f 435/445 433/571 432/762
f 437/306 433/571 435/445
f 435/445 436/624 437/306
f 432/762 431/926 429/160
f 443/796 428/823 444/849
f 437/306 582/356 434/747
f 434/747 433/571 437/306
f 565/68 436/624 435/445
f 425/496 438/710 444/849
f 432/762 439/284 435/445
f 443/796 441/474 429/160
f 432/762 440/805 567/757
f 429/160 440/805 432/762
f 450/226 440/805 429/160
f 429/160 441/474 450/226
f 450/226 441/474 448/895
f 448/895 441/474 443/796
f 443/796 442/390 448/895
f 444/849 442/390 443/796
f 449/98 442/390 444/849
f 444/849 438/710 449/98
f 449/98 438/710 451/353
f 451/353 438/710 425/496
f 425/496 445/206 451/353
f 264/890 445/206 425/496
f 446/682 445/206 264/890
f 264/890 447/115 446/682
f 446/682 447/115 239/367
f 239/367 447/115 261/854
f 448/895 442/390 449/98
f 449/98 452/328 448/895
f 450/226 554/647 567/757
f 567/757 440/805 450/226
f 446/682 455/642 451/353
f 451/353 445/206 446/682
f 505/303 452/328 464/283
f 464/283 452/328 449/98
f 449/98 453/459 464/283
f 451/353 453/459 449/98
f 454/397 453/459 451/353
f 451/353 455/642 454/397
f 454/397 455/642 466/502
f 466/502 455/642 446/682
f 446/682 461/534 466/502
f 239/367 461/534 446/682
f 456/253 461/534 239/367
f 239/367 248/563 456/253
f 456/253 248/563 470/187
f 470/187 248/563 241/925
f 241/925 458/816 470/187
f 457/736 458/816 241/925
f 459/188 458/816 457/736
f 457/736 226/521 459/188
f 470/187 458/816 459/188
f 459/188 460/350 470/187
f 456/253 468/733 466/502
f 466/502 461/534 456/253
f 454/397 462/596 464/283
f 464/283 453/459 454/397
f 505/303 463/833 503/237
f 464/283 463/833 505/303
f 478/331 463/833 464/283
f 464/283 462/596 478/331
f 478/331 462/596 465/33
f 465/33 462/596 454/397
f 454/397 467/636 465/33
f 466/502 467/636 454/397
f 201/327 467/636 466/502
f 466/502 468/733 201/327
f 201/327 468/733 469/76
f 469/76 468/733 456/253
f 456/253 212/78 469/76
f 470/187 212/78 456/253
f 203/532 212/78 470/187
f 470/187 460/350 203/532
f 203/532 460/350 471/577
f 471/577 460/350 459/188
f 201/327 200/564 465/33
f 465/33 467/636 201/327
f 472/489 485/543 189/904
f 177/798 485/543 472/489
f 484/569 485/543 177/798
f 177/798 176/16 484/569
f 484/569 176/16 475/893
f 475/893 176/16 488/361
f 488/361 473/695 475/893
f 490/191 473/695 488/361
f 493/850 473/695 490/191
f 475/893 473/695 493/850
f 493/850 474/933 475/893
f 475/893 474/933 476/606
f 476/606 474/933 477/602
f 477/602 479/298 476/606
f 478/331 479/298 477/602
f 465/33 479/298 478/331
f 476/606 479/298 465/33
f 465/33 200/564 476/606
f 477/602 474/933 493/850
f 493/850 495/45 477/602
f 483/141 480/669 481/197
f 481/197 482/509 483/141
f 483/141 482/509 484/569
f 484/569 482/509 189/904
f 189/904 485/543 484/569
f 476/606 486/719 475/893
f 483/141 486/719 476/606
f 484/569 486/719 483/141
f 475/893 486/719 484/569
f 488/361 178/364 487/633
f 487/633 162/727 488/361
f 488/361 162/727 490/191
f 490/191 162/727 489/495
f 489/495 491/329 490/191
f 492/713 491/329 489/495
f 150/484 491/329 492/713
f 490/191 491/329 150/484
f 150/484 494/431 490/191
f 490/191 494/431 493/850
f 493/850 494/431 499/267
f 499/267 495/45 493/850
f 497/330 495/45 499/267
f 477/602 495/45 497/330
f 497/330 496/15 477/602
f 477/602 496/15 478/331
f 478/331 496/15 503/237
f 503/237 463/833 478/331
f 499/267 494/431 150/484
f 150/484 498/213 499/267
f 503/237 496/15 497/330
f 497/330 501/233 503/237
f 150/484 149/302 509/812
f 509/812 498/213 150/484
f 516/486 498/213 509/812
f 499/267 498/213 516/486
f 516/486 500/583 499/267
f 499/267 500/583 497/330
f 497/330 500/583 527/656
f 527/656 501/233 497/330
f 502/355 501/233 527/656
f 503/237 501/233 502/355
f 502/355 539/767 503/237
f 503/237 539/767 505/303
f 505/303 539/767 553/19
f 553/19 504/744 505/303
f 450/226 504/744 553/19
f 448/895 504/744 450/226
f 505/303 504/744 448/895
f 448/895 452/328 505/303
f 509/812 149/302 148/468
f 148/468 506/347 509/812
f 509/812 506/347 507/726
f 507/726 510/198 509/812
f 508/780 510/198 507/726
f 516/486 510/198 508/780
f 509/812 510/198 516/486
f 511/751 518/476 508/780
f 508/780 512/91 511/751
f 507/726 512/91 508/780
f 8/855 512/91 507/726
f 511/751 512/91 8/855
f 8/855 1/174 511/751
f 511/751 1/174 513/817
f 513/817 514/62 524/506
f 524/506 520/761 513/817
f 527/656 500/583 516/486
f 516/486 515/335 527/656
f 508/780 515/335 516/486
f 517/293 515/335 508/780
f 508/780 518/476 517/293
f 517/293 518/476 532/491
f 532/491 518/476 511/751
f 511/751 519/644 532/491
f 513/817 519/644 511/751
f 533/25 519/644 513/817
f 513/817 520/761 533/25
f 533/25 520/761 523/731
f 523/731 520/761 524/506
f 524/506 521/830 523/731
f 525/132 521/830 524/506
f 644/735 521/830 525/132
f 525/132 522/863 644/735
f 523/731 521/830 644/735
f 532/491 519/644 533/25
f 527/656 515/335 517/293
f 523/731 534/758 533/25
f 532/491 528/64 517/293
f 524/506 14/384 525/132
f 527/656 526/402 502/355
f 517/293 526/402 527/656
f 529/664 526/402 517/293
f 517/293 528/64 529/664
f 529/664 528/64 530/723
f 530/723 528/64 532/491
f 532/491 531/875 530/723
f 533/25 531/875 532/491
f 538/795 531/875 533/25
f 533/25 534/758 538/795
f 538/795 534/758 537/524
f 537/524 534/758 523/731
f 523/731 536/82 537/524
f 644/735 536/82 523/731
f 535/52 536/82 644/735
f 537/524 536/82 535/52
f 535/52 544/498 537/524
f 530/723 531/875 538/795
f 538/795 542/841 530/723
f 502/355 526/402 529/664
f 529/664 540/834 502/355
f 553/19 539/767 502/355
f 502/355 540/834 553/19
f 553/19 540/834 552/824
f 552/824 540/834 529/664
f 529/664 546/404 552/824
f 530/723 546/404 529/664
f 541/263 546/404 530/723
f 530/723 542/841 541/263
f 541/263 542/841 548/151
f 548/151 542/841 538/795
f 538/795 549/136 548/151
f 537/524 549/136 538/795
f 543/603 549/136 537/524
f 537/524 544/498 543/603
f 543/603 544/498 545/730
f 545/730 544/498 535/52
f 535/52 646/312 545/730
f 552/824 546/404 541/263
f 541/263 551/99 552/824
f 543/603 547/856 548/151
f 548/151 549/136 543/603
f 560/108 555/30 545/730
f 545/730 555/30 543/603
f 543/603 555/30 561/371
f 561/371 547/856 543/603
f 556/243 547/856 561/371
f 548/151 547/856 556/243
f 556/243 550/181 548/151
f 548/151 550/181 541/263
f 541/263 550/181 557/138
f 557/138 551/99 541/263
f 567/757 551/99 557/138
f 552/824 551/99 567/757
f 567/757 554/647 552/824
f 552/824 554/647 553/19
f 553/19 554/647 450/226
f 561/371 555/30 560/108
f 560/108 562/605 561/371
f 556/243 566/589 557/138
f 557/138 550/181 556/243
f 558/434 568/230 627/216
f 571/870 568/230 558/434
f 648/648 568/230 571/870
f 571/870 559/867 648/648
f 648/648 559/867 560/108
f 560/108 559/867 573/241
f 573/241 562/605 560/108
f 563/120 562/605 573/241
f 563/120 564/545 561/371
f 561/371 564/545 556/243
f 556/243 564/545 565/68
f 565/68 566/589 556/243
f 435/445 566/589 565/68
f 557/138 566/589 435/445
f 435/445 439/284 557/138
f 557/138 439/284 567/757
f 567/757 439/284 432/762
f 573/241 559/867 571/870
f 565/68 564/545 563/120
f 648/648 649/105 627/216
f 627/216 568/230 648/648
f 573/241 569/161 563/120
f 558/434 570/858 571/870
f 558/434 623/55 576/426
f 437/306 436/624 584/879
f 584/879 436/624 565/68
f 565/68 572/258 584/879
f 563/120 572/258 565/68
f 580/645 572/258 563/120
f 563/120 569/161 580/645
f 580/645 569/161 579/643
f 579/643 569/161 573/241
f 573/241 574/453 579/643
f 571/870 574/453 573/241
f 575/570 574/453 571/870
f 571/870 570/858 575/570
f 575/570 570/858 591/848
f 591/848 570/858 558/434
f 558/434 577/410 591/848
f 576/426 577/410 558/434
f 613/518 577/410 576/426
f 576/426 618/11 613/518
f 613/518 611/667 591/848
f 591/848 577/410 613/518
f 575/570 578/492 579/643
f 579/643 574/453 575/570
f 584/879 572/258 580/645
f 580/645 587/10 584/879
f 581/501 421/888 434/747
f 434/747 582/356 581/501
f 581/501 582/356 869/626
f 869/626 582/356 437/306
f 437/306 583/125 869/626
f 584/879 583/125 437/306
f 585/322 583/125 584/879
f 584/879 587/10 585/322
f 585/322 587/10 586/732
f 586/732 587/10 580/645
f 580/645 588/660 586/732
f 579/643 588/660 580/645
f 593/544 588/660 579/643
f 579/643 578/492 593/544
f 593/544 578/492 590/932
f 590/932 578/492 575/570
f 575/570 589/460 590/932
f 591/848 589/460 575/570
f 586/732 588/660 593/544
f 585/322 867/228 869/626
f 869/626 583/125 585/322
f 586/732 592/6 863/649
f 593/544 592/6 586/732
f 873/880 592/6 593/544
f 593/544 594/894 873/880
f 590/932 594/894 593/544
f 609/349 594/894 590/932
f 873/880 594/894 609/349
f 609/349 596/581 873/880
f 873/880 596/581 595/678
f 595/678 596/581 603/110
f 603/110 599/87 595/678
f 597/439 599/87 603/110
f 598/100 599/87 597/439
f 597/439 600/584 598/100
f 598/100 600/584 876/593
f 595/678 599/87 598/100
f 598/100 875/36 595/678
f 601/701 842/865 603/110
f 603/110 842/865 597/439
f 607/938 602/57 609/349
f 603/110 596/581 609/349
f 609/349 602/57 603/110
f 603/110 602/57 601/701
f 601/701 602/57 607/938
f 607/938 604/547 601/701
f 605/238 604/547 607/938
f 607/938 606/319 605/238
f 605/238 606/319 612/934
f 612/934 606/319 610/29
f 610/29 606/319 607/938
f 607/938 608/168 610/29
f 609/349 608/168 607/938
f 590/932 608/168 609/349
f 610/29 608/168 590/932
f 590/932 589/460 610/29
f 612/934 825/936 605/238
f 826/148 825/936 612/934
f 612/934 614/586 826/148
f 610/29 589/460 591/848
f 591/848 611/667 610/29
f 610/29 611/667 612/934
f 612/934 611/667 613/518
f 613/518 614/586 612/934
f 617/305 614/586 613/518
f 826/148 614/586 617/305
f 617/305 615/63 826/148
f 616/200 615/63 617/305
f 617/305 620/436 616/200
f 613/518 618/11 617/305
f 617/305 618/11 619/296
f 619/296 620/436 617/305
f 621/393 620/436 619/296
f 616/200 620/436 621/393
f 621/393 118/675 616/200
f 116/202 118/675 621/393
f 621/393 53/394 116/202
f 630/193 53/394 621/393
f 621/393 622/777 630/193
f 630/193 622/777 626/415
f 626/415 622/777 619/296
f 619/296 624/254 626/415
f 576/426 624/254 619/296
f 625/248 624/254 576/426
f 576/426 623/55 625/248
f 625/248 623/55 627/216
f 627/216 623/55 558/434
f 619/296 622/777 621/393
f 619/296 618/11 576/426
f 626/415 624/254 625/248
f 625/248 629/778 626/415
f 627/216 649/105 638/482
f 638/482 628/913 627/216
f 627/216 628/913 625/248
f 625/248 628/913 634/705
f 634/705 629/778 625/248
f 635/488 629/778 634/705
f 626/415 629/778 635/488
f 635/488 631/670 626/415
f 626/415 631/670 630/193
f 630/193 631/670 51/878
f 51/878 50/772 630/193
f 634/705 628/913 638/482
f 638/482 637/408 634/705
f 51/878 631/670 635/488
f 635/488 632/308 51/878
f 633/729 632/308 635/488
f 635/488 636/412 633/729
f 634/705 636/412 635/488
f 641/8 636/412 634/705
f 634/705 637/408 641/8
f 641/8 637/408 642/590
f 642/590 637/408 638/482
f 638/482 640/44 642/590
f 639/892 640/44 638/482
f 645/70 640/44 639/892
f 642/590 640/44 645/70
f 645/70 643/537 642/590
f 633/729 636/412 641/8
f 641/8 13/182 633/729
f 525/132 13/182 641/8
f 641/8 522/863 525/132
f 642/590 522/863 641/8
f 644/735 522/863 642/590
f 642/590 643/537 644/735
f 644/735 643/537 535/52
f 535/52 643/537 645/70
f 645/70 646/312 535/52
f 639/892 646/312 645/70
f 545/730 646/312 639/892
f 639/892 647/430 545/730
f 545/730 647/430 560/108
f 560/108 647/430 648/648
f 648/648 647/430 639/892
f 639/892 649/105 648/648
f 638/482 649/105 639/892
f 654/211 89/205 653/884
f 666/37 650/754 652/113
f 652/113 651/928 666/37
f 653/884 651/928 652/113
f 652/113 655/388 653/884
f 653/884 655/388 654/211
f 654/211 655/388 669/811
f 669/811 655/388 652/113
f 659/685 656/528 654/211
f 654/211 657/931 659/685
f 669/811 657/931 654/211
f 670/512 657/931 669/811
f 669/811 671/559 670/512
f 881/689 658/500 670/512
f 670/512 658/500 659/685
f 659/685 657/931 670/512
f 766/905 767/681 674/372
f 674/372 673/851 766/905
f 766/905 673/851 660/881
f 660/881 673/851 662/288
f 662/288 661/835 660/881
f 663/533 661/835 662/288
f 662/288 664/339 663/533
f 663/533 664/339 666/37
f 666/37 664/339 665/901
f 665/901 650/754 666/37
f 667/604 650/754 665/901
f 652/113 650/754 667/604
f 667/604 668/690 652/113
f 652/113 668/690 669/811
f 669/811 668/690 677/417
f 677/417 671/559 669/811
f 678/217 671/559 677/417
f 670/512 671/559 678/217
f 662/288 675/385 665/901
f 665/901 664/339 662/288
f 677/417 668/690 667/604
f 667/604 672/539 677/417
f 662/288 673/851 674/372
f 674/372 675/385 662/288
f 682/915 675/385 674/372
f 665/901 675/385 682/915
f 682/915 676/776 665/901
f 665/901 676/776 667/604
f 667/604 676/776 683/820
f 683/820 672/539 667/604
f 685/416 672/539 683/820
f 677/417 672/539 685/416
f 685/416 684/457 677/417
f 677/417 684/457 678/217
f 678/217 684/457 692/592
f 692/592 679/247 678/217
f 694/741 679/247 692/592
f 681/326 679/247 694/741
f 694/741 680/827 681/326
f 681/326 686/47 678/217
f 678/217 679/247 681/326
f 682/915 771/376 683/820
f 683/820 676/776 682/915
f 692/592 684/457 685/416
f 685/416 691/276 692/592
f 678/217 686/47 670/512
f 670/512 686/47 881/689
f 881/689 686/47 681/326
f 681/326 687/352 881/689
f 688/846 687/352 681/326
f 681/326 680/827 688/846
f 688/846 680/827 690/425
f 690/425 680/827 694/741
f 694/741 689/619 690/425
f 690/425 831/201 688/846
f 696/117 831/201 690/425
f 692/592 691/276 772/920
f 772/920 693/401 692/592
f 694/741 693/401 699/169
f 699/169 689/619 694/741
f 700/130 689/619 699/169
f 690/425 689/619 700/130
f 700/130 695/28 690/425
f 690/425 695/28 696/117
f 696/117 695/28 704/294
f 704/294 834/792 696/117
f 833/7 834/792 704/294
f 704/294 697/135 833/7
f 833/7 697/135 707/801
f 707/801 697/135 705/836
f 705/836 709/3 707/801
f 772/920 698/553 699/169
f 699/169 693/401 772/920
f 704/294 695/28 700/130
f 700/130 703/614 704/294
f 772/920 701/639 714/737
f 714/737 698/553 772/920
f 712/54 698/553 714/737
f 699/169 698/553 712/54
f 712/54 702/860 699/169
f 699/169 702/860 700/130
f 700/130 702/860 706/265
f 706/265 703/614 700/130
f 705/836 703/614 706/265
f 704/294 703/614 705/836
f 705/836 697/135 704/294
f 712/54 711/618 706/265
f 706/265 702/860 712/54
f 857/269 708/843 707/801
f 707/801 708/843 833/7
f 782/317 716/86 714/737
f 714/737 701/639 782/317
f 738/379 709/3 724/550
f 724/550 709/3 705/836
f 705/836 710/126 724/550
f 706/265 710/126 705/836
f 725/154 710/126 706/265
f 706/265 711/618 725/154
f 725/154 711/618 721/118
f 721/118 711/618 712/54
f 712/54 713/475 721/118
f 714/737 713/475 712/54
f 715/720 713/475 714/737
f 714/737 716/86 715/720
f 715/720 716/86 163/921
f 163/921 716/86 782/317
f 782/317 717/79 163/921
f 780/423 717/79 782/317
f 159/256 717/79 780/423
f 780/423 139/789 159/256
f 715/720 720/405 721/118
f 721/118 713/475 715/720
f 718/638 139/789 780/423
f 780/423 778/909 718/638
f 715/720 719/74 170/14
f 170/14 720/405 715/720
f 169/363 720/405 170/14
f 721/118 720/405 169/363
f 169/363 722/366 721/118
f 721/118 722/366 725/154
f 725/154 722/366 187/632
f 187/632 723/918 725/154
f 726/381 723/918 187/632
f 724/550 723/918 726/381
f 725/154 723/918 724/550
f 724/550 710/126 725/154
f 728/50 188/377 225/444
f 729/696 188/377 728/50
f 726/381 188/377 729/696
f 729/696 727/652 726/381
f 726/381 727/652 724/550
f 724/550 727/652 738/379
f 738/379 727/652 729/696
f 729/696 731/301 738/379
f 728/50 730/255 729/696
f 729/696 730/255 734/418
f 734/418 731/301 729/696
f 736/568 731/301 734/418
f 738/379 731/301 736/568
f 736/568 737/617 738/379
f 739/923 236/17 231/240
f 741/939 236/17 739/923
f 237/668 236/17 741/939
f 741/939 732/477 237/668
f 237/668 732/477 733/140
f 733/140 732/477 743/262
f 743/262 238/861 733/140
f 745/163 238/861 743/262
f 734/418 238/861 745/163
f 745/163 735/383 734/418
f 734/418 735/383 736/568
f 736/568 735/383 852/759
f 852/759 851/857 736/568
f 736/568 851/857 857/269
f 857/269 737/617 736/568
f 707/801 737/617 857/269
f 738/379 737/617 707/801
f 707/801 709/3 738/379
f 743/262 732/477 741/939
f 798/828 797/900 745/163
f 745/163 797/900 852/759
f 852/759 735/383 745/163
f 739/923 740/451 741/939
f 750/585 740/451 739/923
f 744/753 740/451 750/585
f 741/939 740/451 744/753
f 744/753 742/300 741/939
f 741/939 742/300 743/262
f 743/262 742/300 747/779
f 747/779 746/546 743/262
f 747/779 742/300 744/753
f 744/753 749/490 747/779
f 743/262 746/546 745/163
f 745/163 746/546 798/828
f 798/828 746/546 747/779
f 747/779 815/210 798/828
f 816/804 815/210 747/779
f 747/779 749/490 816/804
f 816/804 749/490 748/365
f 748/365 749/490 744/753
f 744/753 756/215 748/365
f 750/585 756/215 744/753
f 757/411 756/215 750/585
f 750/585 751/153 757/411
f 757/411 751/153 274/337
f 274/337 751/153 752/351
f 752/351 753/158 274/337
f 754/185 753/158 752/351
f 266/277 753/158 754/185
f 754/185 755/409 266/277
f 748/365 756/215 757/411
f 757/411 758/677 748/365
f 273/380 287/343 288/462
f 288/462 759/781 273/380
f 273/380 759/781 266/277
f 266/277 759/781 295/799
f 295/799 760/561 266/277
f 301/461 760/561 295/799
f 274/337 760/561 301/461
f 301/461 761/540 274/337
f 274/337 761/540 757/411
f 757/411 761/540 762/479
f 762/479 758/677 757/411
f 763/289 758/677 762/479
f 748/365 758/677 763/289
f 763/289 817/662 748/365
f 748/365 817/662 816/804
f 765/362 764/595 81/516
f 81/516 775/661 765/362
f 660/881 79/708 81/516
f 81/516 764/595 660/881
f 660/881 764/595 766/905
f 766/905 764/595 765/362
f 765/362 767/681 766/905
f 768/515 767/681 765/362
f 674/372 767/681 768/515
f 768/515 769/307 674/372
f 674/372 769/307 682/915
f 682/915 769/307 770/706
f 770/706 771/376 682/915
f 779/724 771/376 770/706
f 683/820 771/376 779/724
f 779/724 774/442 683/820
f 683/820 774/442 685/416
f 685/416 774/442 773/71
f 773/71 691/276 685/416
f 772/920 691/276 773/71
f 779/724 781/752 773/71
f 773/71 774/442 779/724
f 770/706 769/307 768/515
f 768/515 777/764 770/706
f 81/516 82/791 145/702
f 145/702 775/661 81/516
f 143/178 775/661 145/702
f 765/362 775/661 143/178
f 143/178 776/712 765/362
f 765/362 776/712 768/515
f 768/515 776/712 151/278
f 151/278 777/764 768/515
f 718/638 777/764 151/278
f 770/706 777/764 718/638
f 718/638 778/909 770/706
f 770/706 778/909 779/724
f 779/724 778/909 780/423
f 780/423 781/752 779/724
f 782/317 781/752 780/423
f 773/71 781/752 782/317
f 782/317 701/639 773/71
f 773/71 701/639 772/920
f 783/864 848/896 788/95
f 788/95 785/164 783/864
f 783/864 784/391 341/42
f 790/687 784/391 783/864
f 783/864 785/164 790/687
f 790/687 785/164 786/511
f 786/511 785/164 788/95
f 788/95 787/260 786/511
f 789/123 787/260 788/95
f 792/131 787/260 789/123
f 789/123 799/646 792/131
f 786/511 791/480 790/687
f 794/66 791/480 786/511
f 786/511 787/260 792/131
f 792/131 793/109 786/511
f 786/511 793/109 794/66
f 794/66 793/109 795/917
f 795/917 329/573 794/66
f 796/572 329/573 795/917
f 795/917 802/526 796/572
f 795/917 793/109 792/131
f 852/522 797/472 789/123
f 789/123 797/472 798/574
f 798/574 799/646 789/123
f 800/336 799/646 798/574
f 792/131 799/646 800/336
f 800/336 801/549 792/131
f 792/131 801/549 795/917
f 795/917 801/549 813/142
f 813/142 802/526 795/917
f 803/659 802/526 813/142
f 796/572 802/526 803/659
f 803/659 325/598 796/572
f 808/557 325/598 803/659
f 803/659 807/5 808/557
f 808/557 807/5 804/769
f 804/769 807/5 806/911
f 806/911 805/567 804/769
f 809/275 805/567 806/911
f 806/911 807/5 803/659
f 813/142 801/549 800/336
f 800/336 814/749 813/142
f 806/911 810/773 809/275
f 804/769 320/790 808/557
f 315/697 320/790 804/769
f 804/769 314/290 315/697
f 313/272 314/290 804/769
f 804/769 805/567 313/272
f 313/272 805/567 809/275
f 809/275 304/239 313/272
f 298/711 304/239 809/275
f 809/275 299/382 298/711
f 763/270 299/382 809/275
f 809/275 810/773 763/270
f 763/270 810/773 812/180
f 812/180 810/773 806/911
f 806/911 811/83 812/180
f 803/659 811/83 806/911
f 813/142 811/83 803/659
f 812/180 811/83 813/142
f 813/142 814/749 812/180
f 812/180 814/749 816/653
f 816/653 814/749 800/336
f 800/336 815/345 816/653
f 798/574 815/345 800/336
f 812/180 817/832 763/270
f 816/653 817/832 812/180
f 659/341 658/400 822/77
f 879/224 821/155 822/77
f 879/224 818/192 820/760
f 820/760 821/155 879/224
f 819/766 821/155 820/760
f 822/77 821/155 819/766
f 819/766 823/334 822/77
f 822/77 823/334 659/341
f 659/341 823/334 109/177
f 109/177 656/173 659/341
f 109/177 823/334 819/766
f 819/766 824/32 832/935
f 820/760 824/32 819/766
f 826/575 824/32 820/760
f 820/760 825/273 826/575
f 605/268 825/273 820/760
f 820/760 818/192 605/268
f 605/268 818/192 827/576
f 827/576 818/192 879/224
f 879/224 828/443 827/576
f 882/671 828/443 879/224
f 838/39 828/443 882/671
f 882/671 829/844 838/39
f 838/39 829/844 830/212
f 830/212 829/844 688/41
f 688/41 831/432 830/212
f 830/212 831/432 696/558
f 696/558 843/728 830/212
f 854/419 843/728 696/558
f 827/576 828/443 838/39
f 838/39 841/242 827/576
f 830/212 843/728 844/725
f 616/450 107/127 832/935
f 832/935 615/106 616/450
f 826/575 615/106 832/935
f 832/935 824/32 826/575
f 854/419 834/755 833/621
f 696/558 834/755 854/419
f 836/221 837/403 844/725
f 836/221 835/102 876/922
f 876/922 600/399 836/221
f 836/221 600/399 597/721
f 597/721 837/403 836/221
f 840/129 837/403 597/721
f 844/725 837/403 840/129
f 840/129 839/691 844/725
f 844/725 839/691 830/212
f 830/212 839/691 838/39
f 840/129 841/242 838/39
f 601/291 841/242 840/129
f 827/576 841/242 601/291
f 601/291 604/829 827/576
f 827/576 604/829 605/268
f 840/129 842/608 601/291
f 597/721 842/608 840/129
f 844/725 843/728 854/419
f 854/419 853/487 844/725
f 844/725 853/487 836/221
f 836/221 853/487 845/538
f 845/538 835/102 836/221
f 861/770 835/102 845/538
f 876/922 835/102 861/770
f 861/770 846/620 876/922
f 341/42 846/620 861/770
f 861/770 847/421 341/42
f 341/42 847/421 783/864
f 783/864 847/421 858/433
f 858/433 848/896 783/864
f 849/654 848/896 858/433
f 788/95 848/896 849/654
f 849/654 850/143 788/95
f 788/95 850/143 789/123
f 789/123 850/143 852/522
f 857/877 851/348 849/654
f 849/654 851/348 852/522
f 852/522 850/143 849/654
f 845/538 855/718 856/22
f 854/419 855/718 845/538
f 845/538 853/487 854/419
f 833/621 855/718 854/419
f 856/22 855/718 833/621
f 833/621 708/413 856/22
f 856/22 708/413 857/877
f 857/877 859/774 856/22
f 849/654 859/774 857/877
f 858/433 859/774 849/654
f 856/22 859/774 858/433
f 858/433 860/370 856/22
f 856/22 860/370 845/538
f 845/538 860/370 861/770
f 861/770 860/370 858/433
f 858/433 847/421 861/770
f 387/20 385/292 862/222
f 862/222 864/114 387/20
f 865/31 864/114 862/222
f 863/649 864/114 865/31
f 865/31 866/717 863/649
f 863/649 866/717 586/732
f 586/732 866/717 585/322
f 585/322 866/717 865/31
f 865/31 867/228 585/322
f 868/446 867/228 865/31
f 869/626 867/228 868/446
f 868/446 870/853 869/626
f 869/626 870/853 581/501
f 581/501 870/853 400/12
f 400/12 871/541 581/501
f 402/831 871/541 400/12
f 872/722 871/541 402/831
f 402/831 401/194 872/722
f 387/20 864/114 863/649
f 863/649 874/556 387/20
f 863/649 592/6 873/880
f 873/880 874/556 863/649
f 595/678 874/556 873/880
f 387/20 874/556 595/678
f 595/678 875/36 387/20
f 387/20 875/36 386/75
f 386/75 875/36 598/100
f 598/100 376/746 386/75
f 876/593 376/746 598/100
f 377/876 376/746 876/593
f 876/593 846/694 377/876
f 377/876 846/694 341/18
f 341/18 877/84 377/876
f 377/876 877/84 374/517
f 374/517 877/84 342/324
f 342/324 878/88 374/517
f 344/560 878/88 342/324
f 352/235 878/88 344/560
f 822/77 658/400 881/229
f 881/229 880/354 822/77
f 822/77 880/354 879/224
f 879/224 880/354 882/671
f 882/671 880/354 881/229
f 881/229 687/782 882/671
f 882/671 687/782 688/41
f 688/41 829/844 882/671
