# This file uses centimeters as units for non-parametric coordinates.

mtllib eye_right.mtl
g default
v -1.858600 37.159996 19.751051
v -2.160500 36.535496 19.226452
v -1.956500 36.729797 19.615051
v -2.253700 36.154896 19.103149
v -2.517700 35.515297 18.808849
v -2.437100 35.656395 19.074348
v -2.743100 35.481094 19.001152
v -2.991800 35.236595 18.750950
v -3.148000 35.358295 18.851049
v -3.325700 35.522297 18.939152
v -3.415900 35.152397 18.580149
v -3.590400 35.321796 18.674049
v -4.040800 35.376995 18.478849
v -2.643300 35.386696 18.869249
v -2.309600 36.088097 19.445250
v -2.514900 35.764698 19.231552
v -2.894500 35.603195 19.104149
v -3.074600 35.759598 19.185749
v -4.223200 35.638096 18.550949
v -3.771300 35.535095 18.754749
v -3.957300 35.792698 18.822250
v -3.698000 35.980198 19.075951
v -3.509700 35.729397 19.013851
v -2.660200 35.885498 19.338451
v -2.450000 36.203495 19.552849
v -2.249800 35.973995 19.271851
v -2.087500 36.333797 19.454449
v -1.987500 36.845295 19.810852
v -2.132100 36.449196 19.639250
v -1.878000 37.274696 19.957552
v -3.260700 35.957195 19.253651
v -2.842100 36.031696 19.413050
v -3.029400 36.215996 19.473049
v -2.821300 36.502895 19.670849
v -2.633300 36.336395 19.619749
v -2.268700 36.556396 19.746149
v -2.453500 36.673496 19.805252
v -2.121100 36.943295 19.917250
v -2.308100 37.042496 19.968849
v -2.642400 36.818195 19.846752
v -3.008900 36.706596 19.710550
v -3.218400 36.440796 19.521549
v -3.404900 36.708694 19.561550
v -3.825200 36.810795 19.391649
v -4.077700 36.614895 19.164852
v -3.585200 37.021496 19.594749
v -3.362700 37.240696 19.771851
v -3.191000 36.950996 19.743050
v -3.005300 37.201397 19.898149
v -2.828700 36.993298 19.875952
v -2.499000 37.161697 20.000549
v -4.263700 36.997795 19.190849
v -4.527900 36.828094 18.941450
v -4.983300 37.105896 18.678249
v -4.793100 36.679996 18.673351
v -4.338000 36.440098 18.916552
v -3.888200 36.275597 19.126450
v -3.639100 36.481895 19.355450
v -3.449800 36.197495 19.309547
v -4.146999 36.094597 18.876549
v -4.313700 35.257896 18.188351
v -4.490900 35.519695 18.264650
v -4.757200 35.438396 17.968651
v -4.934800 35.739899 18.031651
v -5.366000 36.021797 17.778450
v -5.119200 36.081696 18.074854
v -4.863000 36.171295 18.367149
v -5.055100 36.558197 18.389549
v -4.674400 35.824696 18.324852
v -4.601200 36.290695 18.649750
v -4.410600 35.942997 18.608452
v -5.599501 35.989899 17.485050
v -5.188000 35.688995 17.734550
v -5.431100 35.671299 17.440449
v -5.019000 35.394600 17.668650
v -4.858700 35.140099 17.584049
v -4.587300 35.178596 17.888451
v -4.847300 34.769001 17.058250
v -4.266900 34.787102 17.685049
v -4.985200 34.936501 17.175453
v -5.126400 35.143497 17.281250
v -4.705400 34.926495 17.483850
v -4.406000 34.632996 17.270052
v -4.557000 34.754601 17.371349
v -4.424100 34.961201 17.793049
v -4.142900 35.039497 18.097652
v -3.864200 35.160095 18.392849
v -4.245100 34.570396 17.203449
v -3.694200 34.987495 18.293749
v -3.538600 34.864395 18.187550
v -4.117900 34.662296 17.579052
v -3.978600 34.865196 17.993950
v -3.694100 34.670998 17.784550
v -3.979300 34.592896 17.490150
v -4.508100 34.600800 16.919151
v -4.694400 34.653099 16.962049
v -4.986100 34.723099 16.657253
v -5.136700 34.832001 16.750952
v -3.826900 34.740601 17.886452
v -4.464100 34.747498 16.784750
v -4.785300 34.681801 16.631752
v -3.629000 34.658997 17.672449
v -3.405300 34.795895 18.080452
v -3.129000 34.958897 18.371552
v -3.258600 35.030396 18.477749
v -2.872500 35.156796 18.640450
v -2.676800 35.272495 18.658550
v -3.020200 34.968895 18.304449
v -2.842300 35.128498 18.539251
v -2.925500 35.091198 18.318949
v -3.952700 34.960094 17.226349
v -3.358400 35.251396 17.822449
v -3.313500 35.044994 17.870350
v -4.230500 34.642601 17.026749
v -3.680400 34.706799 17.534550
v -4.020900 34.587894 17.261551
v -3.877500 34.601196 17.463850
v -3.316000 34.798302 17.986752
v -3.292400 34.887695 17.920853
v -2.847400 35.295998 18.376650
v -2.374700 35.812195 18.960449
v -3.803400 34.808994 17.382050
v -4.118501 35.159695 17.070450
v -3.499500 35.800198 17.719551
v -2.732200 36.200996 18.541952
v -3.422000 35.504101 17.773449
v -4.710200 34.903301 16.543751
v -4.290600 35.406998 16.917450
v -3.590500 36.139702 17.659950
v -3.694200 36.522400 17.594051
v -2.737000 36.584095 18.572252
v -2.096600 36.951996 19.328049
v -2.788300 35.553394 18.438950
v -2.749400 35.857098 18.496952
v -4.341000 38.044796 19.433552
v -4.177101 37.597496 19.433552
v -4.004800 37.184498 19.418652
v -3.755400 37.381096 19.622551
v -3.916000 37.781998 19.641350
v -3.423000 38.134396 19.978350
v -3.664200 37.965195 19.823452
v -3.378500 39.115295 20.143852
v -3.284500 38.675797 20.132750
v -3.475400 39.580597 20.129654
v -3.112500 39.212296 20.256752
v -3.286600 40.159096 20.208252
v -3.538800 38.544994 19.998253
v -3.760800 39.460796 19.981552
v -3.196700 39.677696 20.247652
v -3.165300 37.455597 19.920252
v -3.519500 37.580597 19.800354
v -3.301500 37.768898 19.949753
v -3.193400 38.276497 20.104750
v -2.853200 39.275394 20.339554
v -2.602600 39.309998 20.392151
v -2.926300 39.747894 20.333954
v -2.666300 39.794098 20.388651
v -3.036100 38.772396 20.238850
v -2.184600 39.829098 20.403751
v -2.253000 40.347496 20.364952
v -2.490600 40.326195 20.374451
v -3.105800 37.931896 20.068352
v -2.920000 38.035595 20.154951
v -2.970800 38.374596 20.202250
v -2.531300 38.405994 20.310852
v -2.555300 38.844696 20.364752
v -2.792600 38.825695 20.316151
v -2.134300 39.316498 20.407352
v -2.418500 39.819695 20.411751
v -2.731400 38.045998 20.208050
v -2.750100 38.411594 20.270153
v -2.200200 37.442997 20.109449
v -2.314400 38.376396 20.326252
v -2.325500 38.838398 20.385151
v -2.537500 38.001595 20.234550
v -2.585000 37.632298 20.136652
v -2.891700 37.803696 20.108452
v -2.855900 37.452698 20.025049
v -3.000400 37.653496 20.037151
v -2.684700 37.298996 20.017550
v -2.759200 37.726894 20.127151
v -2.395300 37.535297 20.132149
v -2.335700 37.941097 20.241352
v -2.103000 38.333797 20.315552
v -1.937600 37.812798 20.184952
v -2.362400 39.321495 20.414751
v -2.105200 38.816296 20.377052
v -1.901000 38.289295 20.277653
v -1.762500 38.730495 20.226950
v -1.768400 38.222195 20.167652
v -1.784000 39.254295 20.253254
v -1.920000 39.301895 20.370052
v -1.896700 38.787598 20.340151
v -1.765000 38.622997 19.990051
v -2.031700 40.355896 20.324152
v -1.966100 39.826694 20.365051
v -1.790600 39.150394 20.007553
v -2.078400 38.386696 19.483150
v -1.805900 37.735294 20.077152
v -2.009800 37.362595 20.064152
v -2.133300 37.874798 20.225651
v -2.063300 37.402798 19.405750
v -1.795800 37.622295 19.860054
v -1.765500 38.111694 19.940350
v -1.838400 39.687897 19.991253
v -1.828700 39.787895 20.244551
v -1.905700 40.229797 19.940752
v -1.989800 40.770096 19.855453
v -1.893600 40.325397 20.200054
v -2.089600 41.303394 19.736752
v -2.450600 41.060795 19.169754
v -2.564500 41.586395 19.020752
v -2.333900 42.326992 19.406654
v -2.478900 42.806591 19.201452
v -2.316800 42.398994 19.671352
v -2.589300 42.861797 19.595753
v -1.975900 40.860897 20.119053
v -2.336100 40.865395 20.289352
v -2.432600 41.376396 20.177853
v -2.113800 40.883495 20.246254
v -2.211200 41.403496 20.132351
v -2.074300 41.388695 20.002752
v -2.322600 41.910194 19.983551
v -2.187900 41.903095 19.852453
v -2.204300 41.824097 19.586151
v -2.802100 43.722492 18.978653
v -2.461700 42.870991 19.462952
v -2.623200 43.313892 19.230854
v -2.816900 43.675297 18.727253
v -2.639700 43.257797 18.973852
v -3.138600 43.477097 18.212353
v -2.827300 42.584702 18.652954
v -2.976800 43.046791 18.440151
v -3.009000 40.234196 20.296551
v -3.098800 40.725494 20.224651
v -2.743000 40.289295 20.351854
v -2.829700 40.787598 20.279652
v -2.670900 41.335697 20.191652
v -2.575100 40.833797 20.300854
v -2.776900 41.824898 20.047752
v -2.662600 42.353695 19.853851
v -2.541300 41.874397 20.031353
v -2.448500 42.398094 19.803452
v -2.925300 41.281296 20.172451
v -3.800000 38.389194 19.836052
v -3.650800 38.990597 20.001852
v -3.573700 40.062298 20.086754
v -3.868300 39.946697 19.933853
v -3.380400 40.646797 20.135551
v -3.194600 41.213497 20.118652
v -3.028600 41.762997 20.030851
v -3.672500 40.550896 20.011854
v -3.972700 40.439697 19.855551
v -3.477200 41.132397 20.029751
v -3.257500 42.664692 19.663952
v -3.677600 42.065098 19.725252
v -3.576600 41.607395 19.891151
v -3.771300 41.038097 19.904951
v -4.168000 39.815495 19.751551
v -4.470700 39.672997 19.542252
v -4.345000 39.171795 19.601654
v -4.495700 38.519295 19.414951
v -4.640399 39.014397 19.373951
v -4.278500 40.315395 19.669052
v -4.067600 38.218998 19.647354
v -4.210400 38.684597 19.635754
v -3.928400 38.844395 19.831951
v -4.051200 39.322495 19.804852
v -4.074100 40.931896 19.746754
v -4.172200 41.415295 19.607552
v -4.382900 40.814995 19.557552
v -4.587300 40.180897 19.455151
v -4.896400 40.038998 19.216852
v -4.774200 39.523197 19.308651
v -5.226400 38.699696 18.855053
v -4.935000 38.855396 19.124352
v -5.066300 38.195595 18.908253
v -4.694799 40.688896 19.340551
v -5.106300 41.066097 18.955654
v -5.007000 40.555298 19.099052
v -5.203100 39.892296 18.957052
v -5.504700 39.743595 18.678551
v -5.075800 39.370197 19.053354
v -5.373200 39.217697 18.778851
v -5.346000 38.047195 18.627251
v -5.511800 38.550797 18.568850
v -5.316600 40.415695 18.836254
v -5.663400 39.068695 18.487953
v -6.052400 38.284302 17.957150
v -5.788301 38.412495 18.268250
v -5.943699 38.926296 18.183552
v -5.798400 39.595200 18.384453
v -5.915700 40.124699 18.259953
v -5.620500 40.271698 18.555552
v -5.416100 40.934597 18.691853
v -4.882300 41.679596 19.033752
v -5.193100 41.566097 18.790752
v -6.081100 39.449398 18.077652
v -6.349900 39.306995 17.761551
v -6.210700 38.790600 17.869152
v -5.266500 42.050495 18.608452
v -6.199300 39.976395 17.952652
v -6.296800 40.502102 17.810452
v -6.014500 40.651794 18.115952
v -5.719900 40.796196 18.410852
v -5.802701 41.312096 18.247753
v -5.500999 41.443798 18.527451
v -5.868600 41.814198 18.069553
v -5.570600 41.938496 18.346752
v -5.624000 42.413795 18.153954
v -5.325000 42.514698 18.413754
v -5.367000 42.954391 18.211452
v -6.156799 41.677197 17.780752
v -6.468200 39.828297 17.636854
v -6.719399 39.681900 17.315651
v -6.812700 40.195900 17.179653
v -6.563800 40.349297 17.497452
v -6.374100 41.020802 17.653551
v -6.094800 41.171101 17.955252
v -5.917201 42.297497 17.879753
v -5.660100 42.865192 17.953253
v -6.882800 40.704800 17.033352
v -5.319499 44.392296 17.418253
v -5.368101 44.087597 17.606354
v -5.677299 43.288197 17.748856
v -5.960500 43.187996 17.479452
v -6.234900 43.063992 17.202852
v -5.948100 42.757095 17.681952
v -6.226799 42.629002 17.401751
v -6.470700 42.015491 17.304552
v -6.200700 42.164993 17.595251
v -6.431700 41.527199 17.484053
v -6.690600 41.367699 17.182352
v -5.673900 43.678291 17.544455
v -6.724300 41.853191 17.010452
v -5.648700 44.031593 17.343353
v -5.926701 43.944592 17.072451
v -6.196700 43.826195 16.798351
v -6.224899 43.464497 17.001053
v -5.953600 43.585194 17.275452
v -6.495600 42.915398 16.923653
v -6.491700 42.480095 17.117151
v -6.739600 42.747097 16.645252
v -6.740100 42.314999 16.831051
v -6.958800 41.682297 16.715851
v -7.171800 41.508598 16.422852
v -6.150199 44.144497 16.596851
v -5.879200 44.261898 16.873154
v -7.149600 41.036095 16.574152
v -7.106700 40.545799 16.720154
v -7.176100 41.956299 16.266951
v -7.165700 42.372498 16.104952
v -6.963800 42.563698 16.371351
v -6.969100 42.138199 16.546951
v -6.723900 43.143494 16.453852
v -6.482700 43.315697 16.725855
v -6.453600 43.676296 16.525253
v -6.945200 42.952599 16.189053
v -5.812700 44.536198 16.678551
v -7.463300 42.347195 15.475253
v -7.342900 42.180695 15.848754
v -7.317600 42.543797 15.696054
v -7.113200 43.084698 15.756355
v -7.143900 42.750397 15.935255
v -6.914700 43.299995 15.999956
v -6.408401 43.992397 16.323555
v -6.693999 43.499294 16.257751
v -6.650700 43.809795 16.057751
v -6.347900 44.263695 16.122753
v -6.086400 44.418697 16.398155
v -7.615000 41.846298 15.369555
v -6.272800 44.489597 15.925055
v -7.030300 43.610096 15.370154
v -7.294799 43.318596 14.584453
v -7.342600 43.202297 14.782454
v -6.594200 44.074898 15.856655
v -6.874000 43.600796 15.803854
v -6.822300 43.855698 15.604154
v -6.975000 43.805298 15.170555
v -7.111900 43.654396 14.763855
v -7.039600 43.756897 14.572755
v -7.231000 43.406094 14.392656
v -7.120400 43.484196 14.252355
v -7.289900 43.092197 14.109756
v -7.091401 43.180695 14.080154
v -6.932500 43.572395 14.208656
v -6.827100 44.073895 14.782455
v -7.399300 43.022896 14.246355
v -6.714900 44.164497 14.631754
v -6.750700 43.929096 14.368454
v -6.290500 44.365395 14.640255
v -6.442700 44.070095 14.501057
v -6.554000 44.245197 14.553757
v -6.927500 43.842495 14.427755
v -6.350400 44.514896 14.758855
v -6.023500 44.758297 14.961254
v -5.861801 44.941696 15.250755
v -6.124800 44.744797 14.989256
v -6.239500 44.691895 15.110954
v -6.595100 44.355991 15.017555
v -6.486300 44.447495 14.859957
v -5.016100 45.307896 16.138153
v -5.579400 45.103798 15.535854
v -5.972400 44.897797 15.383354
v -6.346000 44.600994 15.274156
v -6.683800 44.231495 15.207155
v -6.907900 43.958996 14.973055
v -6.759300 44.065296 15.403955
v -6.441800 44.469498 15.461758
v -6.524500 44.294395 15.656958
v -6.081700 44.806995 15.548058
v -6.183800 44.670498 15.732758
v -5.912301 44.832294 16.016056
v -5.804900 44.971996 15.835655
v -5.518000 45.093796 16.133156
v -5.691600 45.063595 15.672457
v -5.295800 45.229298 15.837255
v -4.745600 45.329491 16.421854
v -4.793800 45.291695 16.190754
v -5.403200 45.187298 15.973755
v -5.728900 44.766396 16.489756
v -6.006600 44.647896 16.204054
v -5.630001 44.952393 16.307653
v -5.224800 45.171497 16.437756
v -5.340799 45.029797 16.604755
v -4.929000 45.203495 16.746555
v -4.820100 45.294392 16.587955
v -5.111400 45.265392 16.281054
v -4.478600 45.298496 16.704756
v -4.348800 45.132397 16.672054
v -4.209599 45.219097 17.002655
v -4.530700 45.274498 16.896553
v -4.244600 45.205692 17.209156
v -5.531600 44.615891 16.960051
v -5.444000 44.844498 16.778852
v -5.048900 45.063496 16.904354
v -5.156500 44.881195 17.068054
v -4.634699 45.188992 17.057051
v -3.906400 44.778294 17.202953
v -3.966100 45.086491 17.521753
v -3.944600 45.089695 17.306553
v -5.248000 44.657196 17.239054
v -3.689700 44.908295 17.607056
v -3.800300 44.852196 17.978153
v -3.699600 44.915497 17.830353
v -4.066400 45.014996 17.674555
v -4.345900 45.126698 17.366955
v -4.201700 44.892494 17.794754
v -4.475000 44.996296 17.501055
v -4.758800 45.052692 17.203854
v -4.967500 44.660290 17.512253
v -5.600600 44.344498 17.148352
v -4.871400 44.876095 17.354753
v -4.328401 44.736691 17.912155
v -3.550700 44.637691 18.275856
v -3.214200 44.416191 18.426655
v -3.447900 44.692192 18.132656
v -3.320800 44.370892 18.566151
v -3.943500 44.739292 18.084156
v -4.438800 44.550694 18.031052
v -4.593700 44.828693 17.636253
v -4.695500 44.625298 17.776653
v -4.774100 44.387398 17.926254
v -5.042000 44.406197 17.678953
v -5.090900 44.114594 17.856752
v -2.998800 44.091591 18.709553
v -5.103400 43.423100 18.247353
v -5.389800 43.365498 18.006451
v -5.110300 43.786198 18.047554
v -5.390800 43.744293 17.803551
v -4.577100 44.093594 18.297455
v -4.823500 44.114594 18.089653
v -4.525400 44.337692 18.155754
v -4.204100 44.435192 18.274456
v -3.854100 44.408894 18.447554
v -4.080800 44.597794 18.182156
v -3.485200 44.278996 18.647055
v -3.703600 44.535294 18.368454
v -3.817300 44.046700 18.749653
v -3.651700 44.166794 18.709351
v -5.073400 43.027596 18.451653
v -4.783900 43.087994 18.668951
v -4.823100 43.464294 18.466351
v -4.554500 43.498093 18.656254
v -4.838100 43.806793 18.271454
v -4.583100 43.814392 18.466951
v -4.362800 44.057392 18.472153
v -4.120999 44.130795 18.561453
v -4.305400 44.259193 18.363056
v -3.995500 44.270092 18.512152
v -3.660700 43.769394 18.986256
v -5.024300 42.602795 18.654652
v -4.354101 43.817291 18.625751
v -4.959900 42.151997 18.850552
v -4.433400 42.753098 19.061354
v -4.654500 42.244698 19.068851
v -4.725900 42.680595 18.872253
v -4.502500 43.143196 18.857353
v -4.303100 43.533493 18.809853
v -4.152300 43.846096 18.730654
v -4.211800 44.014393 18.589352
v -4.070500 43.585197 18.918652
v -4.233201 43.200397 19.010754
v -3.978800 43.931194 18.764353
v -3.858600 43.668392 18.973953
v -3.978400 43.266991 19.124153
v -4.150500 42.825397 19.216652
v -4.353700 42.331596 19.258854
v -4.572200 41.785194 19.252552
v -4.793600 41.190197 19.198551
v -3.879900 42.901493 19.334553
v -4.481201 41.306698 19.417053
v -3.740200 43.350094 19.192854
v -4.265900 41.883896 19.443151
v -3.966700 41.976997 19.601751
v -3.470300 43.874992 18.965752
v -3.306300 43.536694 19.214554
v -3.516800 43.442493 19.221354
v -3.624200 42.985294 19.411156
v -4.061000 42.415596 19.416054
v -3.779100 42.498596 19.537352
v -3.869700 41.515697 19.766453
v -3.383300 43.072098 19.449251
v -3.110400 44.055592 18.846252
v -3.287000 43.974091 18.917454
v -3.107500 43.623993 19.177052
v -3.157000 43.157093 19.451653
v -2.944800 43.233891 19.422152
v -3.019500 42.741493 19.672955
v -3.511000 42.582695 19.619354
v -3.139400 42.226295 19.859751
v -3.295700 41.690197 19.978954
v -3.401400 42.148796 19.810852
v -2.919200 43.695694 19.113453
v -2.893000 42.295498 19.873352
v -2.796700 42.808697 19.649353
v -2.745900 43.295994 19.364454
v -3.010600 44.053993 18.464455
v -3.312800 43.870396 17.972153
v -3.221000 44.388493 18.188454
v -3.697400 44.525291 17.465054
v -3.447600 44.674694 17.901852
v -6.140500 44.608997 14.796056
v -5.793001 44.911697 15.143355
v -5.343700 44.617897 15.524355
v -5.382400 44.822495 15.466656
v -4.574100 45.235497 16.418653
v -4.986400 45.284496 16.035254
v -5.183200 45.221096 15.774555
v -5.484900 45.080597 15.448655
v -5.809300 44.780697 15.053757
v -5.424300 44.981796 15.433558
v -5.870800 44.574398 14.983055
v -5.937400 44.318695 14.931955
v -5.052899 45.163998 15.836856
v -4.912700 45.059795 15.975555
v -4.770500 44.910496 16.141853
v -4.124200 44.980595 16.937855
v -4.627601 44.715298 16.324551
v -5.999300 44.018696 14.901055
v -6.585900 43.730495 14.384055
v -5.303100 44.369396 15.600855
v -5.255700 44.078598 15.690255
v -4.485300 44.473194 16.512356
v -4.344700 44.184193 16.704153
v -3.499300 44.221191 17.722256
v -5.072000 42.956196 16.033052
v -4.072500 43.468494 17.093552
v -4.997600 42.509396 16.167751
v -3.815800 42.600098 17.476353
v -4.917201 42.034798 16.308853
v -6.075500 41.965900 15.070953
v -6.041500 41.468098 15.164052
v -6.046900 43.679794 14.891356
v -6.094300 42.888298 14.938655
v -6.093100 42.441097 14.995053
v -5.201400 43.745296 15.792456
v -5.140000 43.369698 15.907355
v -4.207000 43.847794 16.898554
v -6.078900 43.302696 14.903555
v -6.708799 43.354595 14.294955
v -3.461400 41.103100 17.992352
v -2.690000 42.096191 18.847553
v -3.575700 41.620895 17.832052
v -3.693700 42.121696 17.659054
v -5.991200 40.952999 15.271553
v -4.830700 41.537701 16.453953
v -3.942100 43.050797 17.286951
v -6.904400 39.952801 14.468554
v -5.924300 40.426102 15.390654
v -4.738000 41.023499 16.599951
v -3.350800 40.573601 18.137051
v -2.348200 40.524597 19.291553
v -3.243800 40.037796 18.263451
v -3.141300 39.501099 18.369854
v -2.258200 39.983498 19.384552
v -5.840600 39.892502 15.518352
v -4.638801 40.497395 16.743851
v -4.533000 39.964901 16.883053
v -5.739800 39.357800 15.651752
v -5.622000 38.827202 15.788254
v -5.488000 38.306301 15.926151
v -6.298600 37.346500 15.158952
v -5.339000 37.800598 16.063950
v -4.420500 39.431301 17.014551
v -4.302200 38.902199 17.136852
v -4.054100 37.879700 17.349352
v -3.044300 38.969196 18.454651
v -4.179300 38.383099 17.248451
v -5.177500 37.315899 16.201851
v -5.006101 36.857899 16.340050
v -5.899300 36.440201 15.500253
v -4.828400 36.432499 16.479750
v -3.929200 37.397797 17.439749
v -2.955200 38.447895 18.518051
v -2.120700 38.908695 19.480051
v -2.181500 39.442898 19.447351
v -2.876500 37.942799 18.560249
v -2.764400 37.005497 18.586151
v -2.811800 37.460094 18.582554
v -2.058100 37.882698 19.457850
v -3.808100 36.943398 17.520950
v -5.202000 35.369701 16.090851
v -5.442800 35.680801 15.882152
v -4.647900 36.045700 16.622049
v -4.467700 35.702301 16.767750
v -7.405400 37.618000 14.728753
v -7.607500 38.177299 14.798852
v -7.625900 38.256802 15.037253
v -7.683101 38.618301 14.443954
v -7.560000 38.110001 14.580052
v -7.646400 39.128799 14.185853
v -7.816800 39.186901 14.545352
v -7.772799 39.137199 14.321753
v -7.554800 38.602001 14.309753
v -7.430800 38.085999 14.448551
v -7.290900 38.658501 14.331754
v -6.833500 39.414799 14.583155
v -7.384400 39.190800 14.206054
v -7.447900 39.727901 14.097753
v -7.706000 39.660801 14.079953
v -7.275800 37.586300 14.601053
v -6.949901 40.488400 14.370654
v -7.481801 40.264599 14.009953
v -6.627800 36.687099 14.968951
v -6.880900 36.658199 14.943953
v -7.091400 37.108398 14.765952
v -7.221000 37.147900 14.888852
v -6.833300 37.145199 14.791053
v -7.014100 37.630199 14.625653
v -7.167000 38.136501 14.472051
v -6.615200 38.353001 14.851651
v -6.468600 37.840099 15.001153
v -6.737199 38.879799 14.711854
v -6.400600 36.261799 15.159652
v -6.647600 36.241299 15.136052
v -6.107900 36.877899 15.325250
v -6.155500 35.875099 15.364853
v -5.676400 36.039200 15.685553
v -7.010600 36.705700 15.061353
v -7.065300 36.797901 15.257852
v -7.272500 37.231701 15.094852
v -7.454700 37.693501 14.942151
v -7.475300 37.781399 15.174652
v -5.896400 35.532902 15.586150
v -6.527200 35.928299 15.449153
v -7.093800 36.903198 15.470052
v -7.296300 37.327999 15.318652
v -7.420700 37.981499 15.692952
v -7.566500 38.445499 15.567351
v -6.872400 36.513401 15.629752
v -6.837300 36.398300 15.432153
v -6.777800 36.297199 15.247251
v -6.395800 35.863701 15.344050
v -6.263100 35.604801 15.669751
v -5.626699 35.239799 15.824151
v -4.957000 35.110600 16.311853
v -6.593201 36.038799 15.621451
v -6.129500 35.531200 15.570050
v -5.852300 35.248402 15.814952
v -6.338000 35.725201 15.829251
v -7.248800 37.539101 15.818453
v -7.057200 37.125801 15.943452
v -6.986100 37.231400 16.205551
v -7.092200 37.014702 15.698451
v -6.852000 36.748901 16.067551
v -6.656200 36.295200 15.992352
v -6.878700 36.633301 15.841153
v -6.395200 35.864101 15.992351
v -5.989100 35.331100 15.910651
v -5.708900 35.111599 16.173153
v -5.278300 34.844799 16.361351
v -5.567800 35.019699 16.079649
v -5.349900 35.000500 16.079254
v -6.637700 36.164902 15.802352
v -5.068600 34.814499 16.349251
v -5.424100 34.945496 16.454252
v -5.807600 35.253300 16.310652
v -6.075000 35.462002 16.058151
v -6.147800 35.615101 16.204453
v -6.431800 36.008301 16.156151
v -6.644200 36.418400 16.191750
v -6.252500 35.937798 16.466452
v -6.207100 35.777901 16.342749
v -5.262300 34.992699 16.873550
v -5.274000 35.388802 17.371052
v -6.316100 36.287495 16.703751
v -6.007900 35.999298 16.941252
v -6.169500 36.299702 16.944149
v -5.815600 35.984200 17.201950
v -5.660900 35.686001 17.156349
v -5.520000 35.421299 17.082451
v -5.756700 35.494202 16.810352
v -5.388600 35.189602 16.986149
v -5.536500 35.097401 16.583551
v -5.645800 35.281502 16.704754
v -6.492000 36.587601 16.649250
v -6.350000 36.635502 16.912149
v -6.066600 35.808102 16.660652
v -6.169701 36.029797 16.715351
v -6.279300 36.068501 16.557951
v -6.413100 36.246498 16.494150
v -5.983900 35.609795 16.562351
v -5.898400 35.422100 16.443050
v -5.873900 35.732098 16.892952
v -6.444700 36.144600 16.317551
v -6.592600 36.520401 16.408251
v -6.788100 36.852501 16.311251
v -6.683100 36.936600 16.574951
v -6.876700 37.326302 16.485149
v -6.732100 37.414700 16.779251
v -6.735000 37.950901 17.000952
v -6.898300 38.421101 16.902252
v -6.832500 39.035000 17.114651
v -6.601399 39.168697 17.439451
v -7.039700 38.906197 16.790552
v -6.913200 37.849701 16.688049
v -6.949700 39.538700 16.992054
v -7.077900 38.307598 16.584253
v -6.930700 41.202396 16.878353
v -6.637600 40.864399 17.345251
v -7.040600 40.044495 16.859951
v -7.156100 39.400398 16.669151
v -7.244600 39.897701 16.541054
v -7.335400 39.268299 16.349953
v -7.219700 38.782597 16.470554
v -7.226500 38.196896 16.274651
v -7.172900 37.645802 16.093451
v -7.060101 37.748600 16.384451
v -7.341700 38.088402 15.976453
v -7.344699 40.873798 16.272255
v -7.306901 40.391300 16.408154
v -7.421800 39.758400 16.225552
v -7.569400 39.629398 15.916152
v -7.484600 39.144100 16.037451
v -7.369100 38.664299 16.157951
v -7.601200 39.028999 15.734653
v -7.485600 38.551800 15.855852
v -7.289400 37.432098 15.559953
v -7.464900 37.878399 15.425253
v -7.480700 40.245300 16.099554
v -7.815800 39.322701 15.049653
v -7.683100 38.924301 15.444154
v -7.767200 39.410702 15.325852
v -7.685300 39.512699 15.615455
v -7.625500 40.112202 15.796453
v -7.513700 40.721401 15.973853
v -7.361000 41.338001 16.133854
v -7.745501 38.747898 14.908053
v -7.730900 38.830502 15.168053
v -7.515500 41.608196 15.727055
v -7.659500 41.037701 15.570253
v -7.654400 40.584599 15.680652
v -7.765000 40.467701 15.394053
v -7.739299 39.994999 15.501054
v -7.820300 39.896900 15.215352
v -7.843901 40.375099 15.115554
v -7.891600 40.303902 14.847553
v -7.744101 41.348801 15.212052
v -7.644199 41.462799 15.466954
v -7.814200 41.275101 14.960653
v -7.765500 40.922001 15.296853
v -7.840900 40.837299 15.029653
v -7.886200 40.778500 14.770653
v -7.855400 41.232895 14.714852
v -7.768300 41.677097 14.913155
v -7.801499 41.660797 14.685656
v -7.707000 41.732895 15.141355
v -7.707700 42.032097 14.891455
v -7.660500 42.059196 15.086854
v -7.493300 42.001095 15.603453
v -7.524200 41.178398 15.849354
v -7.358900 41.776199 15.993653
v -7.901900 40.740601 14.522353
v -7.854500 41.208099 14.248953
v -7.868400 41.213600 14.476356
v -7.809500 41.665699 14.459753
v -7.727400 42.055695 14.689054
v -7.629400 42.343998 14.917853
v -7.529900 42.617096 15.014354
v -7.614100 42.281498 15.055654
v -7.546000 42.436096 15.166055
v -7.578300 42.174999 15.276855
v -7.792600 41.681301 14.240653
v -7.726800 42.092094 14.478055
v -7.704900 42.131901 14.267554
v -7.814600 41.207500 14.036554
v -7.751400 41.696995 14.034055
v -7.621100 42.491096 14.536255
v -7.632600 42.418095 14.735253
v -7.493000 42.860695 14.639254
v -7.516700 42.748497 14.834453
v -7.405900 42.870796 15.164255
v -7.432000 42.639496 15.332352
v -7.286700 42.860195 15.531455
v -7.253800 43.124596 15.350954
v -7.639800 41.735401 13.900556
v -7.550800 42.214500 13.933556
v -7.543000 42.608795 14.136755
v -7.434000 42.668297 14.002655
v -7.660601 42.165497 14.066753
v -7.592100 42.556702 14.332754
v -7.455100 42.952496 14.439554
v -7.378300 43.054096 14.978555
v -7.169700 43.517395 14.961553
v -7.215900 43.342094 15.159355
v -7.075800 43.370602 15.566654
v -7.225400 42.756195 13.985254
v -6.809500 42.943798 14.235255
v -6.886200 42.499897 14.206855
v -6.938700 42.027298 14.208155
v -7.411600 41.818802 13.900952
v -7.332200 42.300598 13.926055
v -7.463100 41.315300 13.908553
v -7.700400 41.235298 13.902057
v -7.849400 40.701698 14.070254
v -7.889200 40.717098 14.287852
v -7.895600 40.212700 14.352753
v -7.872000 39.700699 14.439853
v -7.908300 40.251202 14.592353
v -7.868900 39.816200 14.941752
v -7.885600 39.751701 14.682452
v -7.613000 38.346802 15.293952
v -7.728900 38.677101 14.666152
v -7.831700 39.248402 14.788753
v -7.829800 39.661098 14.216454
v -7.854900 40.184399 14.131452
v -7.734300 40.192799 13.995054
v -7.732100 40.719398 13.934554
v -6.970600 41.016201 14.292654
v -7.486599 40.795502 13.945854
v -6.966899 41.530994 14.237654
v -6.351700 37.589600 17.396749
v -6.163000 37.146599 17.454350
v -5.937699 37.227695 17.762749
v -6.124800 37.686195 17.711552
v -5.694100 37.322598 18.070452
v -5.618200 37.913395 18.331251
v -5.879000 37.793301 18.024651
v -5.745200 36.794701 17.791752
v -5.970500 36.730099 17.489950
v -5.780900 36.343697 17.500849
v -5.553199 36.391602 17.797249
v -5.247400 36.980698 18.391453
v -5.309800 36.462196 18.095650
v -5.502700 36.877197 18.094151
v -5.988700 36.315800 17.213150
v -6.174100 36.679996 17.194550
v -6.540900 37.008595 16.855553
v -6.555601 37.500801 17.084553
v -6.365800 37.076096 17.150349
v -6.529600 38.055199 17.319450
v -6.691600 38.538696 17.224751
v -6.300800 38.165794 17.639553
v -6.461201 38.661594 17.548252
v -4.617600 37.873398 19.196650
v -4.781800 38.354298 19.171654
v -4.444300 37.419098 19.202150
v -4.714300 37.253597 18.949451
v -4.894600 37.711494 18.939049
v -5.168701 37.563595 18.663252
v -5.436500 37.434296 18.372150
vt 0.667100 0.610575
vt 0.514550 0.246975
vt 0.249600 -1.807000
vt 0.226800 -1.879100
vt 0.440600 0.363525
vt 0.624800 0.631875
vt 0.738350 0.461775
vt 0.437900 0.548925
vt 0.574400 0.122175
vt 0.591650 0.160875
vt 0.680900 0.573225
vt 0.729950 0.321675
vt 0.238900 -1.972700
vt 0.202700 0.644325
vt 0.727700 0.630825
vt 0.801650 0.377325
vt 0.493100 0.640575
vt 0.375050 0.422475
vt 0.527450 0.665775
vt 0.233600 -1.802200
vt 0.835850 0.587475
vt 0.312050 0.348375
vt 0.248300 -1.968700
vt 0.177900 -1.937000
vt 0.176750 0.473775
vt 0.653750 0.215625
vt 0.185600 -1.824000
vt 0.257450 0.168375
vt 0.499400 0.569475
vt 0.825050 0.371475
vt 0.608000 0.754575
vt 0.225700 -1.973500
vt 0.410300 0.623175
vt 0.218000 0.367425
vt 0.421850 0.837375
vt 0.842450 0.502725
vt 0.640250 0.686025
vt 0.528200 0.375075
vt 0.571100 0.269175
vt 0.732800 0.751275
vt 0.256550 0.289425
vt 0.460550 0.134925
vt 0.714050 0.802275
vt 0.726950 0.497025
vt 0.711050 0.253275
vt 0.329300 0.180375
vt 0.617450 0.697425
vt 0.423500 0.726825
vt 0.260450 0.225675
vt 0.592850 0.801975
vt 0.612500 0.263775
vt 0.485300 0.702975
vt 0.452300 0.847275
vt 0.600350 0.093075
vt 0.789200 0.563325
vt 0.774050 0.593025
vt 0.632450 0.560925
vt 0.597500 0.818325
vt 0.642500 0.184125
vt 0.672200 0.198075
vt 0.240500 0.666825
vt 0.362150 0.110025
vt 0.289700 0.452325
vt 0.372650 0.137925
vt 0.614600 0.774675
vt 0.198500 -1.878700
vt 0.516950 0.866775
vt 0.477800 0.065775
vt 0.536450 0.072525
vt 0.225200 0.468675
vt 0.640250 0.488025
vt 0.208500 -1.819000
vt 0.242100 -1.961000
vt 0.152750 0.474075
vt 0.604700 0.843825
vt 0.383600 0.455625
vt 0.744500 0.613575
vt 0.682250 0.232275
vt 0.204600 -1.830800
vt 0.593450 0.707475
vt 0.450650 0.065925
vt 0.264200 0.605025
vt 0.512150 0.416025
vt 0.283700 0.675825
vt 0.268300 -1.825100
vt 0.190550 0.283875
vt 0.396800 0.782625
vt 0.170600 0.561225
vt 0.576050 0.109275
vt 0.512300 0.855975
vt 0.686000 0.600675
vt 0.346400 0.503175
vt 0.254900 0.653775
vt 0.366950 0.123075
vt 0.240300 -1.802800
vt 0.305300 0.245925
vt 0.296900 0.554175
vt 0.634550 0.194025
vt 0.296600 0.229575
vt 0.318650 0.651525
vt 0.473600 0.575925
vt 0.518150 0.342075
vt 0.239600 -1.965100
vt 0.188900 -1.955400
vt 0.255650 0.154125
vt 0.557900 0.300975
vt 0.246600 -1.950700
vt 0.178400 0.270225
vt 0.680450 0.187275
vt 0.586250 0.202725
vt 0.768800 0.623925
vt 0.791900 0.637125
vt 0.542150 0.158025
vt 0.366350 0.567075
vt 0.655100 0.312975
vt 0.247250 0.719025
vt 0.267050 0.644475
vt 0.224750 0.584025
vt 0.632000 0.455025
vt 0.382700 0.349125
vt 0.733700 0.585375
vt 0.205250 0.366375
vt 0.245500 -1.819400
vt 0.266300 0.425925
vt 0.174950 0.355875
vt 0.238850 0.619575
vt 0.232300 -1.973100
vt 0.317150 0.377025
vt 0.672650 0.307725
vt 0.315800 0.212625
vt 0.687500 0.404925
vt 0.546500 0.098475
vt 0.809600 0.329625
vt 0.749000 0.680175
vt 0.346700 0.670725
vt 0.420650 0.652275
vt 0.507050 0.829725
vt 0.220550 0.335625
vt 0.384050 0.741375
vt 0.587750 0.783825
vt 0.170200 -1.878400
vt 0.270800 -1.944700
vt 0.245750 0.250275
vt 0.392300 0.795525
vt 0.501500 0.775425
vt 0.206400 -1.824500
vt 0.768650 0.698925
vt 0.592250 0.220125
vt 0.369050 0.496125
vt 0.307250 0.322125
vt 0.274850 0.337125
vt 0.728300 0.359025
vt 0.731450 0.428775
vt 0.499700 0.195825
vt 0.303800 0.128325
vt 0.175600 -1.929300
vt 0.691400 0.816375
vt 0.262900 -1.956300
vt 0.198600 -1.905000
vt 0.214100 0.301425
vt 0.543650 0.336525
vt 0.573350 0.851175
vt 0.227000 -1.814200
vt 0.542600 0.085425
vt 0.692450 0.224475
vt 0.638600 0.843225
vt 0.399200 0.413925
vt 0.538400 0.408975
vt 0.213050 0.547575
vt 0.215700 -1.806700
vt 0.431150 0.234225
vt 0.151550 0.430725
vt 0.367550 0.289725
vt 0.533450 0.305175
vt 0.226600 -1.896700
vt 0.164000 0.305925
vt 0.442700 0.179025
vt 0.438200 0.705375
vt 0.713450 0.786675
vt 0.274700 0.300525
vt 0.461150 0.704775
vt 0.756650 0.310125
vt 0.408200 0.447525
vt 0.567800 0.149475
vt 0.631400 0.141525
vt 0.433700 0.439425
vt 0.448250 0.750675
vt 0.456350 0.227925
vt 0.218000 -1.804100
vt 0.172250 0.394275
vt 0.841700 0.459075
vt 0.508700 0.844125
vt 0.192800 0.234675
vt 0.519650 0.173775
vt 0.422900 0.092325
vt 0.660800 0.147075
vt 0.390800 0.381075
vt 0.582650 0.241875
vt 0.587900 0.174225
vt 0.353150 0.166275
vt 0.308600 0.760425
vt 0.821750 0.537825
vt 0.227000 -1.819100
vt 0.345950 0.300675
vt 0.447650 0.833925
vt 0.237100 -1.968400
vt 0.298550 0.183075
vt 0.730850 0.528225
vt 0.150350 0.387225
vt 0.802250 0.494475
vt 0.246350 0.499275
vt 0.786350 0.597075
vt 0.543050 0.722175
vt 0.226200 -1.937400
vt 0.324500 0.102675
vt 0.309050 0.445875
vt 0.578900 0.363075
vt 0.181100 0.318825
vt 0.271700 -1.831800
vt 0.724100 0.693225
vt 0.443900 0.648975
vt 0.695000 0.151575
vt 0.592700 0.266625
vt 0.297800 0.384825
vt 0.802850 0.567975
vt 0.482000 0.076425
vt 0.663800 0.129225
vt 0.643250 0.224025
vt 0.213200 -1.810000
vt 0.182100 -1.830700
vt 0.592250 0.326775
vt 0.254400 -1.905700
vt 0.316550 0.477825
vt 0.422300 0.795675
vt 0.734150 0.704925
vt 0.414500 0.270075
vt 0.283600 -1.888700
vt 0.385250 0.076425
vt 0.812600 0.614025
vt 0.334700 0.541725
vt 0.489650 0.250575
vt 0.211700 0.471225
vt 0.207800 -1.970300
vt 0.212400 -1.972300
vt 0.255000 -1.888300
vt 0.687650 0.266925
vt 0.675500 0.543675
vt 0.549650 0.747225
vt 0.206750 0.592875
vt 0.574250 0.219525
vt 0.560300 0.587775
vt 0.377300 0.597975
vt 0.278450 0.637125
vt 0.207050 0.435675
vt 0.173300 -1.921600
vt 0.277400 0.598425
vt 0.279950 0.146625
vt 0.608300 0.855975
vt 0.231350 0.368175
vt 0.603650 0.293625
vt 0.250250 0.216525
vt 0.220400 -1.802000
vt 0.321800 0.687225
vt 0.255000 -1.879400
vt 0.339350 0.712425
vt 0.276050 0.277875
vt 0.360050 0.463425
vt 0.356000 0.535425
vt 0.495800 0.458325
vt 0.504350 0.795375
vt 0.450050 0.770475
vt 0.642800 0.285225
vt 0.713600 0.531375
vt 0.735200 0.230625
vt 0.543950 0.628125
vt 0.601400 0.832275
vt 0.374300 0.714225
vt 0.742550 0.354675
vt 0.199600 -1.861400
vt 0.172850 0.433725
vt 0.602900 0.357675
vt 0.260600 0.366375
vt 0.814100 0.664125
vt 0.650300 0.174375
vt 0.691100 0.625425
vt 0.716300 0.326925
vt 0.352700 0.328725
vt 0.249300 -1.831400
vt 0.329600 0.112875
vt 0.656300 0.730275
vt 0.710750 0.773475
vt 0.325100 0.509925
vt 0.466250 0.355575
vt 0.568400 0.331425
vt 0.253300 -1.853800
vt 0.528350 0.773925
vt 0.302900 0.414675
vt 0.388850 0.088425
vt 0.311450 0.696225
vt 0.422750 0.299625
vt 0.234700 -1.970900
vt 0.684950 0.337275
vt 0.359750 0.358725
vt 0.567500 0.512025
vt 0.596300 0.148125
vt 0.482750 0.853425
vt 0.547250 0.196725
vt 0.510350 0.699825
vt 0.799550 0.699825
vt 0.609650 0.670725
vt 0.753200 0.388575
vt 0.504800 0.065775
vt 0.240800 -1.810400
vt 0.225650 0.233925
vt 0.608150 0.186975
vt 0.218750 0.506925
vt 0.654650 0.551925
vt 0.437300 0.157875
vt 0.581450 0.297225
vt 0.803150 0.649425
vt 0.589250 0.395625
vt 0.400850 0.768825
vt 0.315050 0.548025
vt 0.511850 0.079125
vt 0.494600 0.173325
vt 0.178700 -1.837300
vt 0.475250 0.774225
vt 0.669500 0.512775
vt 0.738350 0.670575
vt 0.485150 0.088125
vt 0.735950 0.765075
vt 0.356450 0.603375
vt 0.225800 -1.968300
vt 0.695900 0.437025
vt 0.743600 0.494475
vt 0.227000 -1.804100
vt 0.738050 0.638025
vt 0.656750 0.162825
vt 0.791300 0.419175
vt 0.632900 0.743475
vt 0.245600 0.368025
vt 0.630350 0.259725
vt 0.697400 0.698475
vt 0.232100 0.503325
vt 0.680600 0.660075
vt 0.404150 0.754425
vt 0.250100 0.313275
vt 0.239000 0.577425
vt 0.254100 -1.862100
vt 0.492200 0.348525
vt 0.564200 0.808875
vt 0.302450 0.298575
vt 0.207400 -1.955800
vt 0.719600 0.625125
vt 0.313100 0.264975
vt 0.283250 0.290925
vt 0.329900 0.438675
vt 0.740600 0.276225
vt 0.307250 0.196875
vt 0.244900 -1.804900
vt 0.593600 0.611325
vt 0.530600 0.219075
vt 0.516950 0.154125
vt 0.486950 0.117225
vt 0.722900 0.395925
vt 0.534800 0.595725
vt 0.417650 0.481425
vt 0.744200 0.715275
vt 0.738650 0.392025
vt 0.532100 0.485475
vt 0.238400 -1.807000
vt 0.448100 0.581925
vt 0.360350 0.184275
vt 0.398450 0.308775
vt 0.459650 0.431475
vt 0.624950 0.528675
vt 0.600950 0.732225
vt 0.218600 0.220875
vt 0.170500 -1.904800
vt 0.222350 0.630675
vt 0.776150 0.527175
vt 0.680150 0.779625
vt 0.226700 -1.887900
vt 0.761150 0.589425
vt 0.287150 0.522075
vt 0.645950 0.415875
vt 0.227000 -1.838000
vt 0.392000 0.099675
vt 0.760550 0.653025
vt 0.343700 0.756525
vt 0.212750 0.205725
vt 0.560900 0.688575
vt 0.237950 0.309525
vt 0.490850 0.152775
vt 0.345050 0.216825
vt 0.218000 0.400275
vt 0.614750 0.322275
vt 0.581900 0.763425
vt 0.669500 0.695625
vt 0.196400 0.473025
vt 0.585650 0.680325
vt 0.253400 -1.965100
vt 0.517550 0.726675
vt 0.346250 0.150225
vt 0.201600 -1.845200
vt 0.843050 0.546375
vt 0.279650 0.390975
vt 0.608300 0.462375
vt 0.333500 0.678525
vt 0.325850 0.311775
vt 0.262700 0.395325
vt 0.635900 0.317775
vt 0.264000 -1.819800
vt 0.265400 0.566025
vt 0.191450 0.363075
vt 0.225800 0.305325
vt 0.227000 -1.824700
vt 0.620300 0.164475
vt 0.516050 0.091575
vt 0.648200 0.709425
vt 0.430100 0.679725
vt 0.417500 0.705225
vt 0.664400 0.748875
vt 0.647150 0.347475
vt 0.358250 0.099225
vt 0.225700 -1.971000
vt 0.279900 -1.854100
vt 0.349400 0.637725
vt 0.170800 -1.869600
vt 0.716900 0.560625
vt 0.554000 0.368925
vt 0.392000 0.823725
vt 0.523550 0.275325
vt 0.358100 0.734625
vt 0.200500 -1.853200
vt 0.245450 0.282975
vt 0.193850 0.553875
vt 0.444500 0.728925
vt 0.323000 0.407325
vt 0.244400 -1.956200
vt 0.349250 0.702825
vt 0.772100 0.250575
vt 0.320150 0.615525
vt 0.396200 0.839625
vt 0.321350 0.165375
vt 0.663200 0.206775
vt 0.782000 0.381975
vt 0.718850 0.587025
vt 0.750050 0.213075
vt 0.566000 0.164775
vt 0.606950 0.218475
vt 0.227750 0.542475
vt 0.699500 0.565875
vt 0.322100 0.732225
vt 0.268700 0.192525
vt 0.459200 0.860025
vt 0.378650 0.753675
vt 0.243200 -1.814500
vt 0.667400 0.410175
vt 0.314750 0.744075
vt 0.709100 0.500775
vt 0.560150 0.790425
vt 0.284000 0.421125
vt 0.241850 0.206625
vt 0.210700 -1.814100
vt 0.308000 0.585375
vt 0.399650 0.592725
vt 0.280900 -1.914500
vt 0.339050 0.274875
vt 0.625250 0.721725
vt 0.216700 -1.970700
vt 0.236000 -1.804400
vt 0.498500 0.279525
vt 0.794150 0.287925
vt 0.631400 0.822075
vt 0.632450 0.660075
vt 0.274250 0.315375
vt 0.626600 0.153675
vt 0.782600 0.457125
vt 0.252700 -1.922500
vt 0.522200 0.450675
vt 0.647300 0.780225
vt 0.515750 0.119925
vt 0.468050 0.645225
vt 0.363050 0.806475
vt 0.198900 -1.870000
vt 0.524150 0.195375
vt 0.601100 0.537375
vt 0.198100 -1.964400
vt 0.609350 0.570075
vt 0.477200 0.674925
vt 0.200900 -1.929700
vt 0.570650 0.135225
vt 0.289850 0.171075
vt 0.811250 0.417225
vt 0.261200 0.700725
vt 0.219000 -1.972900
vt 0.256400 0.258525
vt 0.391850 0.193875
vt 0.570650 0.839625
vt 0.189900 -1.818900
vt 0.686300 0.792675
vt 0.390500 0.279375
vt 0.542150 0.855225
vt 0.565850 0.181125
vt 0.449900 0.397125
vt 0.516500 0.105075
vt 0.283100 0.159375
vt 0.543650 0.176475
vt 0.568100 0.079275
vt 0.705950 0.400125
vt 0.798950 0.603375
vt 0.254600 -1.810800
vt 0.424700 0.780375
vt 0.640250 0.762975
vt 0.601700 0.240375
vt 0.255050 0.532875
vt 0.382700 0.252075
vt 0.226800 -1.870300
vt 0.225900 -1.960800
vt 0.184600 -1.950200
vt 0.762800 0.558525
vt 0.169700 -1.887200
vt 0.599150 0.428775
vt 0.659900 0.808725
vt 0.360200 0.263025
vt 0.250100 -1.937700
vt 0.787100 0.492975
vt 0.171900 -1.913200
vt 0.677750 0.373275
vt 0.301550 0.117075
vt 0.575900 0.861375
vt 0.258500 -1.961400
vt 0.701300 0.332025
vt 0.542300 0.141225
vt 0.632600 0.106875
vt 0.195500 0.328275
vt 0.821300 0.498075
vt 0.645800 0.254175
vt 0.363350 0.790575
vt 0.558050 0.477675
vt 0.378650 0.154425
vt 0.732350 0.609825
vt 0.278150 0.203175
vt 0.464150 0.153975
vt 0.324050 0.230775
vt 0.646700 0.621225
vt 0.212000 -1.964700
vt 0.756650 0.740325
vt 0.226400 -1.922100
vt 0.202400 0.294975
vt 0.766700 0.385575
vt 0.267300 -1.951200
vt 0.555350 0.769875
vt 0.748400 0.557475
vt 0.509150 0.602775
vt 0.653900 0.648525
vt 0.687500 0.171675
vt 0.231950 0.399675
vt 0.663800 0.819975
vt 0.259700 -1.814500
vt 0.350750 0.745725
vt 0.248500 -1.944500
vt 0.733100 0.557925
vt 0.564200 0.402075
vt 0.659450 0.279825
vt 0.203700 -1.944000
vt 0.725600 0.739425
vt 0.283200 -1.879900
vt 0.199900 -1.921800
vt 0.719750 0.609675
vt 0.392900 0.488925
vt 0.568250 0.199275
vt 0.193100 -1.960700
vt 0.614000 0.175725
vt 0.351800 0.430875
vt 0.543650 0.125925
vt 0.773600 0.492825
vt 0.683450 0.474375
vt 0.360500 0.694275
vt 0.482450 0.316125
vt 0.204800 0.400575
vt 0.378800 0.528825
vt 0.225800 -1.965000
vt 0.497600 0.753375
vt 0.458300 0.614175
vt 0.789500 0.528525
vt 0.676100 0.442275
vt 0.276650 0.362775
vt 0.157100 0.346575
vt 0.833450 0.415275
vt 0.415400 0.372075
vt 0.539600 0.843525
vt 0.535250 0.812775
vt 0.505850 0.493275
vt 0.598700 0.206175
vt 0.384800 0.707475
vt 0.186650 0.602775
vt 0.270350 0.527625
vt 0.367100 0.390075
vt 0.352700 0.238725
vt 0.427700 0.515325
vt 0.454100 0.088425
vt 0.518600 0.635025
vt 0.573350 0.095325
vt 0.293000 0.716325
vt 0.209100 -1.804400
vt 0.192050 0.435825
vt 0.782000 0.669075
vt 0.161600 0.517575
vt 0.247500 -1.825000
vt 0.203000 -1.837700
vt 0.759800 0.757425
vt 0.236750 0.193275
vt 0.703100 0.469125
vt 0.672500 0.765225
vt 0.408950 0.681525
vt 0.277500 -1.846300
vt 0.302000 0.705225
vt 0.624200 0.289725
vt 0.483500 0.608775
vt 0.617150 0.601725
vt 0.170100 -1.896000
vt 0.233300 0.338025
vt 0.569000 0.620175
vt 0.278600 0.489825
vt 0.296750 0.278325
vt 0.453350 0.508125
vt 0.617750 0.212475
vt 0.291950 0.591825
vt 0.486350 0.101775
vt 0.431450 0.330975
vt 0.715700 0.290025
vt 0.467750 0.729975
vt 0.474500 0.198075
vt 0.410750 0.164175
vt 0.220400 0.434175
vt 0.261800 0.494775
vt 0.304700 0.622425
vt 0.439250 0.261975
vt 0.768800 0.458025
vt 0.305300 0.516225
vt 0.551150 0.554325
vt 0.283850 0.732075
vt 0.205400 -1.950200
vt 0.246650 0.339525
vt 0.742700 0.316725
vt 0.780650 0.629325
vt 0.279300 -1.922900
vt 0.490400 0.866925
vt 0.747650 0.586575
vt 0.702350 0.214425
vt 0.755750 0.264375
vt 0.399350 0.705225
vt 0.601250 0.136275
vt 0.585500 0.187725
vt 0.463400 0.542325
vt 0.428900 0.121575
vt 0.203100 -1.968200
vt 0.405350 0.145275
vt 0.699800 0.260025
vt 0.476900 0.793425
vt 0.319700 0.287025
vt 0.457850 0.117675
vt 0.476000 0.389175
vt 0.423350 0.587475
vt 0.583550 0.469875
vt 0.331700 0.338925
vt 0.671450 0.240075
vt 0.660950 0.582225
vt 0.689600 0.804675
vt 0.798050 0.456825
vt 0.616850 0.495675
vt 0.194300 -1.813700
vt 0.776450 0.560625
vt 0.689900 0.506175
vt 0.661400 0.673425
vt 0.678050 0.715275
vt 0.626450 0.808425
vt 0.413000 0.555225
vt 0.702650 0.296025
vt 0.254800 -1.897000
vt 0.395900 0.113025
vt 0.575600 0.740775
vt 0.344450 0.398925
vt 0.235100 0.242925
vt 0.183800 0.513975
vt 0.508100 0.310125
vt 0.173800 -1.852800
vt 0.375050 0.318525
vt 0.450200 0.788625
vt 0.553400 0.218925
vt 0.547850 0.271875
vt 0.282800 -1.871100
vt 0.331850 0.251475
vt 0.204400 -1.806300
vt 0.453050 0.677775
vt 0.537500 0.829275
vt 0.592550 0.503775
vt 0.333650 0.123525
vt 0.260450 0.339675
vt 0.433850 0.618825
vt 0.290450 0.330975
vt 0.416900 0.185325
vt 0.674450 0.273675
vt 0.485900 0.423525
vt 0.281300 -1.862600
vt 0.274700 0.749925
vt 0.261950 0.316125
vt 0.552650 0.659175
vt 0.365900 0.723975
vt 0.214400 -1.968100
vt 0.754100 0.459525
vt 0.654650 0.448425
vt 0.603500 0.108975
vt 0.828650 0.628425
vt 0.543500 0.866625
vt 0.337400 0.609225
vt 0.330350 0.722325
vt 0.226000 -1.950500
vt 0.817850 0.457725
vt 0.226900 -1.853400
vt 0.209600 -1.960600
vt 0.254700 -1.870700
vt 0.367850 0.632175
vt 0.296900 0.484125
vt 0.203450 0.510375
vt 0.389150 0.729675
vt 0.222950 0.271125
vt 0.253700 -1.914200
vt 0.305750 0.659475
vt 0.232550 0.176775
vt 0.492200 0.729225
vt 0.420350 0.081225
vt 0.367250 0.777675
vt 0.477350 0.810975
vt 0.198300 -1.887500
vt 0.631700 0.231525
vt 0.425600 0.105975
vt 0.252200 -1.845900
vt 0.469400 0.466125
vt 0.294200 0.667725
vt 0.456800 0.323025
vt 0.333350 0.803325
vt 0.773750 0.300375
vt 0.198400 -1.896300
vt 0.406550 0.242475
vt 0.668750 0.830475
vt 0.568550 0.715725
vt 0.339350 0.135975
vt 0.479450 0.500775
vt 0.302300 0.780975
vt 0.226900 -1.861700
vt 0.770450 0.345525
vt 0.255050 0.462075
vt 0.426050 0.746175
vt 0.250900 -1.838400
vt 0.399050 0.655575
vt 0.736850 0.779775
vt 0.716300 0.727425
vt 0.502100 0.671025
vt 0.208250 0.333225
vt 0.251500 -1.930300
vt 0.278750 0.131475
vt 0.752300 0.726375
vt 0.759050 0.493275
vt 0.227000 -1.810100
vt 0.313550 0.152175
vt 0.226500 -1.905400
vt 0.176300 -1.845000
vt 0.604550 0.123675
vt 0.398900 0.216975
vt 0.361850 0.664125
vt 0.190400 0.399075
vt 0.697250 0.646875
vt 0.393050 0.720375
vt 0.545900 0.111825
vt 0.239600 0.465675
vt 0.338150 0.768975
vt 0.226100 -1.944300
vt 0.548450 0.443175
vt 0.625850 0.352575
vt 0.212450 0.263475
vt 0.280550 0.560175
vt 0.506150 0.813525
vt 0.662600 0.480825
vt 0.307250 0.140025
vt 0.747350 0.425625
vt 0.181300 -1.943600
vt 0.419150 0.809625
vt 0.722450 0.244275
vt 0.688400 0.302025
vt 0.447500 0.820125
vt 0.203150 0.251025
vt 0.632750 0.126075
vt 0.384950 0.173025
vt 0.696050 0.368325
vt 0.704150 0.760875
vt 0.225900 -1.956000
vt 0.372950 0.765975
vt 0.623150 0.422175
vt 0.657800 0.378375
vt 0.423650 0.208575
vt 0.246800 0.398175
vt 0.199200 -1.913600
vt 0.626450 0.203775
vt 0.282400 -1.906200
vt 0.273050 0.686175
vt 0.714350 0.432525
vt 0.276800 -1.930600
vt 0.790550 0.682425
vt 0.673550 0.636675
vt 0.601700 0.641925
vt 0.379400 0.659325
vt 0.364400 0.825825
vt 0.654200 0.795525
vt 0.762050 0.423225
vt 0.274300 -1.938200
vt 0.325700 0.579075
vt 0.710750 0.634575
vt 0.213800 -1.802500
vt 0.390050 0.683775
vt 0.432800 0.138675
vt 0.476900 0.826725
vt 0.251750 0.571875
vt 0.345200 0.573075
vt 0.695150 0.536775
vt 0.774950 0.712725
vt 0.287600 0.215475
vt 0.388250 0.627525
vt 0.481550 0.223275
vt 0.428150 0.853275
vt 0.712850 0.363525
vt 0.703100 0.592425
vt 0.289100 0.261825
vt 0.618050 0.237225
vt 0.686750 0.732375
vt 0.636200 0.383925
vt 0.417950 0.071175
vt 0.234200 0.276825
vt 0.293750 0.356625
vt 0.688550 0.680625
vt 0.567650 0.825375
vt 0.515750 0.136125
vt 0.771800 0.660075
vt 0.280100 0.248025
vt 0.270500 0.236025
vt 0.202200 -1.937100
vt 0.424250 0.405375
vt 0.535700 0.695025
vt 0.502100 0.381975
vt 0.464300 0.255525
vt 0.705050 0.664875
vt 0.172300 -1.861200
vt 0.712400 0.199575
vt 0.746900 0.526575
vt 0.714200 0.680025
vt 0.227000 -1.801600
vt 0.243600 -1.970700
vt 0.718400 0.648675
vt 0.532250 0.794325
vt 0.515750 0.527925
vt 0.541700 0.520125
vt 0.525350 0.562275
vt 0.443300 0.473775
vt 0.468800 0.174975
vt 0.426200 0.763875
vt 0.266600 0.267675
vt 0.389000 0.561225
vt 0.227000 -1.806700
vt 0.749300 0.645675
vt 0.290900 0.629775
vt 0.576500 0.545925
vt 0.283000 -1.897400
vt 0.402650 0.522225
vt 0.756800 0.618525
vt 0.226900 -1.845500
vt 0.666950 0.342525
vt 0.227000 -1.831000
vt 0.789050 0.338175
vt 0.574100 0.435825
vt 0.488300 0.134175
vt 0.477950 0.840825
vt 0.727850 0.284175
vt 0.337100 0.197475
vt 0.455900 0.102075
vt 0.287600 0.308775
vt 0.561500 0.243075
vt 0.706250 0.615675
vt 0.451850 0.077175
vt 0.727850 0.660075
vt 0.585200 0.579225
vt 0.418100 0.823275
vt 0.333050 0.644175
vt 0.266750 0.295575
vt 0.818750 0.576675
vt 0.375200 0.227025
vt 0.762050 0.526425
vt 0.337850 0.368175
vt 0.489500 0.535275
vt 0.275100 -1.838500
vt 0.647750 0.520425
vt 0.506450 0.220425
vt 0.538550 0.244575
vt 0.400400 0.128325
vt 0.224900 0.681675
vt 0.406700 0.339675
vt 0.620750 0.792525
vt 0.337550 0.470775
vt 0.577550 0.651225
vt 0.706700 0.713925
vt 0.449000 0.202425
vt 0.390050 0.808725
vt 0.367700 0.204375
vt 0.261200 0.181575
vt 0.613250 0.389625
vt 0.447800 0.291675
vt 0.373850 0.687675
vt 0.473150 0.285075
vt 0.226300 -1.930000
vt 0.335150 0.785175
vt 0.635300 0.833325
vt 0.249950 0.429675
vt 0.406400 0.739725
vt 0.639650 0.591825
vt 0.779750 0.728625
vt 0.472250 0.753075
vt 0.722450 0.182325
vt 0.755750 0.350625
vt 0.449300 0.804975
vt 0.405500 0.723675
vt 0.226400 -1.913900
vt 0.721400 0.464925
vt 0.523550 0.751275
vt 0.803900 0.531675
vt 0.659300 0.247575
vt 0.199300 -1.810000
vt 0.271700 0.457575
vt 0.252050 0.611625
vt 0.775700 0.421125
vt 0.695450 0.747525
vt 0.234650 0.432225
vt 0.759650 0.688725
vt 0.240950 0.537825
vt 0.354800 0.089475
vt 0.602750 0.197625
s 1
g vn_lyra_reference_001
usemtl vn_lyra_reference_001SG2
f 165/651 166/555 167/564
f 338/803 339/171 340/188
f 623/27 624/230 625/79
f 831/176 832/218 833/86
f 3/828 1/811 30/609
f 132/309 1/811 3/828
f 3/828 2/926 132/309
f 4/613 2/926 3/828
f 3/828 27/549 4/613
f 4/613 27/549 26/331
f 26/331 121/759 4/613
f 5/43 121/759 26/331
f 26/331 6/179 5/43
f 5/43 6/179 14/671
f 14/671 6/179 16/291
f 16/291 7/502 14/671
f 17/382 7/502 16/291
f 8/525 7/502 17/382
f 17/382 9/816 8/525
f 8/525 9/816 11/679
f 11/679 9/816 10/482
f 10/482 12/908 11/679
f 20/65 12/908 10/482
f 87/50 12/908 20/65
f 20/65 13/140 87/50
f 87/50 13/140 61/462
f 14/671 7/502 8/525
f 8/525 106/560 14/671
f 16/291 6/179 26/331
f 26/331 15/40 16/291
f 10/482 9/816 17/382
f 17/382 18/616 10/482
f 20/65 21/31 19/398
f 19/398 13/140 20/65
f 60/377 21/31 22/340
f 22/340 21/31 20/65
f 20/65 23/515 22/340
f 10/482 23/515 20/65
f 31/423 23/515 10/482
f 10/482 18/616 31/423
f 31/423 18/616 32/941
f 32/941 18/616 17/382
f 17/382 24/798 32/941
f 16/291 24/798 17/382
f 25/568 24/798 16/291
f 16/291 15/40 25/568
f 25/568 15/40 29/765
f 29/765 15/40 26/331
f 26/331 27/549 29/765
f 29/765 27/549 3/828
f 3/828 28/147 29/765
f 30/609 28/147 3/828
f 22/340 23/515 31/423
f 31/423 59/290 22/340
f 32/941 24/798 25/568
f 25/568 35/760 32/941
f 31/423 33/837 42/678
f 32/941 33/837 31/423
f 34/911 33/837 32/941
f 32/941 35/760 34/911
f 34/911 35/760 37/235
f 37/235 35/760 25/568
f 25/568 36/368 37/235
f 29/765 36/368 25/568
f 38/943 36/368 29/765
f 29/765 28/147 38/943
f 37/235 36/368 38/943
f 38/943 39/134 37/235
f 34/911 41/343 42/678
f 42/678 33/837 34/911
f 38/943 28/147 30/609
f 30/609 200/845 38/943
f 38/943 200/845 172/389
f 172/389 39/134 38/943
f 51/329 39/134 172/389
f 37/235 39/134 51/329
f 51/329 40/220 37/235
f 37/235 40/220 34/911
f 34/911 40/220 50/857
f 50/857 41/343 34/911
f 48/842 41/343 50/857
f 42/678 41/343 48/842
f 48/842 43/399 42/678
f 42/678 43/399 58/420
f 58/420 43/399 46/677
f 46/677 44/37 58/420
f 137/476 44/37 46/677
f 45/47 44/37 137/476
f 50/857 40/220 51/329
f 46/677 43/399 48/842
f 58/420 44/37 45/47
f 45/47 57/470 58/420
f 46/677 138/557 137/476
f 151/812 138/557 46/677
f 46/677 47/345 151/812
f 48/842 47/345 46/677
f 150/775 47/345 48/842
f 48/842 49/853 150/775
f 50/857 49/853 48/842
f 178/860 49/853 50/857
f 50/857 180/891 178/860
f 51/329 180/891 50/857
f 176/337 180/891 51/329
f 51/329 182/871 176/337
f 172/389 182/871 51/329
f 137/476 52/310 45/47
f 45/47 52/310 53/401
f 53/401 52/310 878/813
f 878/813 879/910 53/401
f 53/401 879/910 54/710
f 54/710 55/392 53/401
f 68/850 55/392 54/710
f 70/749 55/392 68/850
f 53/401 55/392 70/749
f 70/749 56/80 53/401
f 53/401 56/80 45/47
f 45/47 56/80 60/377
f 60/377 57/470 45/47
f 22/340 57/470 60/377
f 58/420 57/470 22/340
f 22/340 59/290 58/420
f 58/420 59/290 42/678
f 42/678 59/290 31/423
f 60/377 56/80 70/749
f 70/749 71/684 60/377
f 61/462 13/140 19/398
f 19/398 62/554 61/462
f 69/248 62/554 19/398
f 63/296 62/554 69/248
f 69/248 64/934 63/296
f 63/296 64/934 73/585
f 73/585 64/934 66/403
f 66/403 65/733 73/585
f 863/52 65/733 66/403
f 66/403 865/308 863/52
f 68/850 865/308 66/403
f 66/403 67/213 68/850
f 68/850 67/213 70/749
f 70/749 67/213 69/248
f 69/248 71/684 70/749
f 19/398 71/684 69/248
f 60/377 71/684 19/398
f 19/398 21/31 60/377
f 69/248 67/213 66/403
f 66/403 64/934 69/248
f 73/585 65/733 72/634
f 72/634 74/927 73/585
f 73/585 74/927 706/327
f 706/327 75/145 73/585
f 76/270 75/145 706/327
f 63/296 75/145 76/270
f 73/585 75/145 63/296
f 98/793 78/824 80/736
f 80/736 78/824 84/137
f 84/137 82/785 80/736
f 85/594 82/785 84/137
f 76/270 82/785 85/594
f 85/594 77/861 76/270
f 76/270 77/861 63/296
f 63/296 77/861 61/462
f 61/462 62/554 63/296
f 61/462 77/861 85/594
f 84/137 78/824 96/883
f 84/137 79/698 85/594
f 80/736 705/930 98/793
f 714/691 705/930 80/736
f 80/736 81/662 714/691
f 714/691 81/662 706/327
f 706/327 81/662 76/270
f 76/270 81/662 80/736
f 80/736 82/785 76/270
f 88/90 83/192 96/883
f 96/883 83/192 84/137
f 84/137 83/192 91/593
f 91/593 79/698 84/137
f 92/843 79/698 91/593
f 85/594 79/698 92/843
f 92/843 86/351 85/594
f 85/594 86/351 61/462
f 61/462 86/351 87/50
f 87/50 86/351 92/843
f 92/843 89/58 87/50
f 91/593 83/192 88/90
f 88/90 94/504 91/593
f 11/679 12/908 87/50
f 87/50 89/58 11/679
f 11/679 89/58 90/276
f 90/276 89/58 92/843
f 92/843 99/500 90/276
f 91/593 99/500 92/843
f 93/162 99/500 91/593
f 91/593 94/504 93/162
f 93/162 94/504 117/717
f 117/717 94/504 88/90
f 88/90 116/67 117/717
f 114/650 116/67 88/90
f 88/90 95/306 114/650
f 96/883 95/306 88/90
f 101/53 95/306 96/883
f 96/883 97/205 101/53
f 98/793 97/205 96/883
f 96/883 78/824 98/793
f 90/276 99/500 93/162
f 93/162 103/75 90/276
f 127/832 100/456 101/53
f 101/53 100/456 114/650
f 114/650 95/306 101/53
f 117/717 102/532 93/162
f 93/162 102/532 118/258
f 118/258 103/75 93/162
f 104/922 103/75 118/258
f 90/276 103/75 104/922
f 104/922 105/475 90/276
f 90/276 105/475 11/679
f 11/679 105/475 8/525
f 8/525 105/475 104/922
f 104/922 106/560 8/525
f 109/748 106/560 104/922
f 14/671 106/560 109/748
f 109/748 107/157 14/671
f 14/671 107/157 5/43
f 118/258 108/166 104/922
f 104/922 108/166 109/748
f 110/472 108/20 118/858
f 109/95 108/20 110/472
f 110/472 107/360 109/95
f 5/3 107/360 110/472
f 110/472 120/371 5/3
f 126/163 112/767 111/229
f 111/229 112/767 113/870
f 113/870 122/170 111/229
f 115/189 122/170 113/870
f 114/696 122/170 115/189
f 115/189 116/607 114/696
f 117/821 116/607 115/189
f 115/189 102/262 117/821
f 118/858 102/262 115/189
f 115/189 119/336 118/858
f 118/858 119/336 110/472
f 110/472 119/336 113/870
f 113/870 120/371 110/472
f 133/313 120/371 113/870
f 5/3 120/371 133/313
f 133/313 121/513 5/3
f 4/561 121/513 133/313
f 111/229 122/170 114/696
f 113/870 112/767 133/313
f 113/870 119/336 115/189
f 111/229 123/465 126/163
f 114/696 100/937 111/229
f 111/229 100/937 127/674
f 127/674 123/465 111/229
f 128/72 123/465 127/674
f 126/163 123/465 128/72
f 128/72 124/203 126/163
f 126/163 124/203 125/123
f 125/123 124/203 129/417
f 129/417 124/203 128/72
f 125/123 134/458 126/163
f 127/674 677/501 128/72
f 128/72 677/501 623/27
f 623/27 626/146 128/72
f 128/72 626/146 129/417
f 129/417 626/146 625/79
f 625/79 130/879 129/417
f 622/387 130/879 625/79
f 619/288 130/879 622/387
f 129/417 130/879 619/288
f 619/288 131/611 129/417
f 129/417 131/611 125/123
f 125/123 131/611 132/85
f 132/85 2/413 125/123
f 125/123 2/413 4/561
f 4/561 134/458 125/123
f 133/313 134/458 4/561
f 126/163 134/458 133/313
f 133/313 112/767 126/163
f 132/85 131/611 619/288
f 878/813 52/310 137/476
f 135/622 876/361 878/813
f 878/813 136/6 135/622
f 137/476 136/6 878/813
f 139/547 136/6 137/476
f 137/476 138/557 139/547
f 139/547 138/557 151/812
f 151/812 141/1 139/547
f 140/91 141/1 151/812
f 245/670 141/1 140/91
f 140/91 147/11 245/670
f 245/670 147/11 246/247
f 246/247 147/11 143/453
f 143/453 142/827 246/247
f 145/273 142/827 143/453
f 144/676 142/827 145/273
f 145/273 149/461 144/676
f 144/676 149/461 146/615
f 146/615 149/461 156/44
f 135/622 136/6 139/547
f 140/91 153/834 143/453
f 143/453 147/11 140/91
f 246/247 142/827 144/676
f 144/676 148/328 246/247
f 156/44 149/461 145/273
f 145/273 154/208 156/44
f 151/812 47/345 150/775
f 150/775 152/285 151/812
f 151/812 152/285 140/91
f 140/91 152/285 162/889
f 162/889 153/834 140/91
f 164/448 153/834 162/889
f 143/453 153/834 164/448
f 164/448 158/430 143/453
f 143/453 158/430 145/273
f 145/273 158/430 167/564
f 167/564 154/208 145/273
f 155/856 154/208 167/564
f 156/44 154/208 155/856
f 155/856 157/335 156/44
f 156/44 157/335 236/7
f 236/7 157/335 169/766
f 169/766 161/713 236/7
f 160/641 161/713 169/766
f 169/766 157/335 155/856
f 167/564 158/430 164/448
f 162/889 152/285 150/775
f 162/889 163/571 164/448
f 169/766 159/578 160/641
f 167/564 166/555 155/856
f 239/788 237/153 236/7
f 236/7 161/713 239/788
f 150/775 49/853 178/860
f 178/860 179/820 150/775
f 150/775 179/820 162/889
f 162/889 179/820 177/354
f 177/354 163/571 162/889
f 170/543 163/571 177/354
f 164/448 163/571 170/543
f 170/543 171/121 164/448
f 164/448 171/121 167/564
f 167/564 171/121 165/651
f 174/522 166/555 165/651
f 155/856 166/555 174/522
f 174/522 186/898 155/856
f 155/856 186/898 169/766
f 169/766 186/898 168/381
f 168/381 159/578 169/766
f 196/528 159/578 168/381
f 170/543 175/77 165/651
f 165/651 171/121 170/543
f 172/389 201/111 183/876
f 183/876 201/111 184/56
f 184/56 173/384 183/876
f 174/522 173/384 184/56
f 165/651 173/384 174/522
f 183/876 173/384 165/651
f 165/651 175/77 183/876
f 183/876 175/77 176/337
f 176/337 175/77 170/543
f 170/543 181/15 176/337
f 177/354 181/15 170/543
f 178/860 181/15 177/354
f 177/354 179/820 178/860
f 178/860 180/891 176/337
f 176/337 181/15 178/860
f 176/337 182/871 183/876
f 183/876 182/871 172/389
f 184/56 201/111 185/648
f 168/381 186/898 174/522
f 174/522 187/675 168/381
f 168/381 187/675 193/55
f 193/55 187/675 184/56
f 184/56 188/212 193/55
f 185/648 188/212 184/56
f 190/512 188/212 185/648
f 185/648 199/112 190/512
f 193/55 188/212 190/512
f 184/56 187/675 174/522
f 194/896 189/225 190/512
f 190/512 189/225 193/55
f 193/55 189/225 191/935
f 191/935 192/587 193/55
f 196/528 192/587 191/935
f 168/381 192/587 196/528
f 193/55 192/587 168/381
f 194/896 197/202 191/935
f 191/935 189/225 194/896
f 209/672 195/479 196/528
f 196/528 206/210 209/672
f 191/935 206/210 196/528
f 205/538 206/210 191/935
f 191/935 197/202 205/538
f 205/538 197/202 616/406
f 616/406 197/202 194/896
f 194/896 198/21 616/406
f 621/716 198/21 194/896
f 194/896 204/239 621/716
f 190/512 204/239 194/896
f 203/320 204/239 190/512
f 190/512 199/112 203/320
f 203/320 199/112 30/609
f 30/609 199/112 185/648
f 185/648 200/845 30/609
f 172/389 200/845 185/648
f 185/648 201/111 172/389
f 30/609 1/811 203/320
f 203/320 1/811 132/309
f 132/309 202/283 203/320
f 203/320 202/283 621/716
f 621/716 204/239 203/320
f 205/538 617/36 596/191
f 616/406 617/36 205/538
f 209/672 206/210 205/538
f 205/538 207/721 209/672
f 596/191 207/721 205/538
f 208/495 207/721 596/191
f 596/191 593/591 208/495
f 208/495 593/591 211/30
f 211/30 210/16 208/495
f 209/672 207/721 208/495
f 160/641 159/578 196/528
f 196/528 195/479 160/641
f 160/641 195/479 220/940
f 220/940 195/479 209/672
f 209/672 217/339 220/940
f 208/495 217/339 209/672
f 222/447 217/339 208/495
f 208/495 210/16 222/447
f 222/447 210/16 225/880
f 225/880 210/16 211/30
f 211/30 212/133 225/880
f 225/880 212/133 583/474
f 583/474 213/745 225/880
f 214/653 213/745 583/474
f 215/182 213/745 214/653
f 214/653 227/358 215/182
f 215/182 227/358 216/884
f 216/884 227/358 228/791
f 220/940 217/339 222/447
f 220/940 218/817 160/641
f 225/880 224/754 222/447
f 239/788 161/713 160/641
f 160/641 218/817 239/788
f 239/788 218/817 219/311
f 219/311 218/817 220/940
f 220/940 221/552 219/311
f 222/447 221/552 220/940
f 223/929 221/552 222/447
f 222/447 224/754 223/929
f 223/929 224/754 215/182
f 215/182 224/754 225/880
f 225/880 213/745 215/182
f 219/311 221/552 223/929
f 223/929 242/278 219/311
f 228/791 230/274 229/855
f 229/855 226/652 228/791
f 228/791 227/358 214/653
f 214/653 230/274 228/791
f 233/449 230/274 214/653
f 229/855 230/274 233/449
f 233/449 231/928 229/855
f 229/855 231/928 539/222
f 583/474 232/442 214/653
f 214/653 232/442 233/449
f 156/44 234/933 146/615
f 236/7 234/933 156/44
f 235/809 234/933 236/7
f 236/7 237/153 235/809
f 235/809 237/153 244/365
f 244/365 237/153 239/788
f 239/788 238/369 244/365
f 219/311 238/369 239/788
f 240/152 238/369 219/311
f 219/311 242/278 240/152
f 240/152 242/278 241/12
f 241/12 242/278 223/929
f 223/929 243/647 241/12
f 215/182 243/647 223/929
f 216/884 243/647 215/182
f 241/12 243/647 216/884
f 216/884 536/633 241/12
f 146/615 234/933 235/809
f 235/809 249/334 146/615
f 244/365 238/369 240/152
f 240/152 251/833 244/365
f 246/247 267/317 245/670
f 268/902 267/317 246/247
f 246/247 148/328 268/902
f 268/902 148/328 248/786
f 248/786 148/328 144/676
f 144/676 247/579 248/786
f 146/615 247/579 144/676
f 252/588 247/579 146/615
f 146/615 249/334 252/588
f 252/588 249/334 254/131
f 254/131 249/334 235/809
f 235/809 250/511 254/131
f 244/365 250/511 235/809
f 532/797 250/511 244/365
f 244/365 251/833 532/797
f 532/797 251/833 531/534
f 531/534 251/833 240/152
f 240/152 535/286 531/534
f 248/786 247/579 252/588
f 252/588 253/714 248/786
f 532/797 257/530 254/131
f 254/131 250/511 532/797
f 529/681 255/792 531/534
f 531/534 535/286 529/681
f 256/878 257/530 532/797
f 522/802 257/530 256/878
f 254/131 257/530 522/802
f 522/802 258/459 254/131
f 254/131 258/459 252/588
f 252/588 258/459 269/386
f 269/386 253/714 252/588
f 264/119 253/714 269/386
f 248/786 253/714 264/119
f 264/119 259/71 248/786
f 248/786 259/71 268/902
f 268/902 259/71 260/673
f 260/673 261/376 268/902
f 263/488 261/376 260/673
f 266/57 261/376 263/488
f 263/488 262/490 266/57
f 266/57 262/490 135/622
f 135/622 262/490 877/892
f 263/488 276/873 877/892
f 877/892 262/490 263/488
f 269/386 258/459 522/802
f 522/802 270/838 269/386
f 264/119 272/408 260/673
f 260/673 259/71 264/119
f 139/547 141/1 245/670
f 245/670 265/925 139/547
f 139/547 265/925 135/622
f 135/622 265/925 266/57
f 266/57 265/925 245/670
f 245/670 267/317 266/57
f 266/57 267/317 268/902
f 268/902 261/376 266/57
f 269/386 270/838 512/916
f 512/916 271/801 269/386
f 269/386 271/801 264/119
f 264/119 271/801 278/524
f 278/524 272/408 264/119
f 273/667 272/408 278/524
f 260/673 272/408 273/667
f 273/667 274/699 260/673
f 260/673 274/699 263/488
f 263/488 274/699 283/304
f 283/304 276/873 263/488
f 275/643 276/873 283/304
f 877/892 276/873 275/643
f 275/643 277/251 877/892
f 877/892 277/251 880/625
f 880/625 277/251 285/366
f 285/366 881/275 880/625
f 283/304 274/699 273/667
f 285/366 277/251 275/643
f 278/524 271/801 512/916
f 278/524 280/881 273/667
f 283/304 284/863 275/643
f 279/565 280/881 278/524
f 287/781 280/881 279/565
f 273/667 280/881 287/781
f 287/781 281/541 273/667
f 273/667 281/541 283/304
f 283/304 281/541 282/370
f 282/370 284/863 283/304
f 288/862 284/863 282/370
f 275/643 284/863 288/862
f 288/862 286/864 275/643
f 275/643 286/864 285/366
f 285/366 286/864 290/29
f 290/29 286/864 288/862
f 282/370 281/541 287/781
f 279/565 295/168 287/781
f 282/370 292/595 288/862
f 300/657 289/101 290/29
f 290/29 291/900 300/657
f 288/862 291/900 290/29
f 298/751 291/900 288/862
f 288/862 292/595 298/751
f 298/751 292/595 293/269
f 293/269 292/595 282/370
f 282/370 294/481 293/269
f 287/781 294/481 282/370
f 305/83 294/481 287/781
f 287/781 295/168 305/83
f 305/83 295/168 307/38
f 307/38 295/168 279/565
f 279/565 297/431 307/38
f 296/217 297/431 279/565
f 301/161 297/431 296/217
f 296/217 494/294 301/161
f 301/161 494/294 492/106
f 300/657 291/900 298/751
f 298/751 299/628 300/657
f 305/83 304/706 293/269
f 293/269 294/481 305/83
f 301/161 309/102 307/38
f 307/38 297/431 301/161
f 496/231 494/294 296/217
f 279/565 510/321 296/217
f 300/657 299/628 735/602
f 735/602 299/628 314/865
f 314/865 299/628 298/751
f 298/751 302/741 314/865
f 293/269 302/741 298/751
f 303/375 302/741 293/269
f 293/269 304/706 303/375
f 303/375 304/706 319/665
f 319/665 304/706 305/83
f 305/83 306/851 319/665
f 307/38 306/851 305/83
f 308/350 306/851 307/38
f 307/38 309/102 308/350
f 308/350 309/102 310/688
f 310/688 309/102 301/161
f 301/161 311/174 310/688
f 492/106 311/174 301/161
f 312/433 311/174 492/106
f 312/433 321/473 310/688
f 310/688 311/174 312/433
f 308/350 313/293 319/665
f 319/665 306/851 308/350
f 303/375 317/186 314/865
f 314/865 302/741 303/375
f 314/865 315/367 735/602
f 316/183 315/367 314/865
f 314/865 317/186 316/183
f 316/183 317/186 741/849
f 741/849 317/186 303/375
f 303/375 318/506 741/849
f 319/665 318/506 303/375
f 332/5 318/506 319/665
f 319/665 313/293 332/5
f 332/5 313/293 331/743
f 331/743 313/293 308/350
f 308/350 320/581 331/743
f 310/688 320/581 308/350
f 328/919 320/581 310/688
f 310/688 321/473 328/919
f 328/919 321/473 325/241
f 325/241 321/473 312/433
f 312/433 468/2 325/241
f 741/849 318/506 332/5
f 331/743 320/581 328/919
f 738/572 315/367 316/183
f 325/241 468/2 470/903
f 741/849 322/167 316/183
f 325/241 326/852 328/919
f 331/743 330/632 332/5
f 465/487 464/194 323/325
f 323/325 324/154 465/487
f 336/635 324/154 323/325
f 470/903 324/154 336/635
f 336/635 334/831 470/903
f 470/903 334/831 325/241
f 325/241 334/831 340/188
f 340/188 326/852 325/241
f 327/640 326/852 340/188
f 328/919 326/852 327/640
f 327/640 329/917 328/919
f 328/919 329/917 331/743
f 331/743 329/917 342/300
f 342/300 330/632 331/743
f 335/907 330/632 342/300
f 332/5 330/632 335/907
f 335/907 333/592 332/5
f 332/5 333/592 741/849
f 342/300 329/917 327/640
f 340/188 334/831 336/635
f 465/487 324/154 470/903
f 740/197 333/592 335/907
f 323/325 464/194 451/363
f 342/300 344/374 335/907
f 340/188 339/171 327/640
f 336/635 452/866 348/177
f 348/177 337/912 336/635
f 336/635 337/912 340/188
f 340/188 337/912 338/803
f 356/747 339/171 338/803
f 327/640 339/171 356/747
f 356/747 341/236 327/640
f 327/640 341/236 342/300
f 342/300 341/236 343/503
f 343/503 344/374 342/300
f 354/690 344/374 343/503
f 335/907 344/374 354/690
f 354/690 345/120 335/907
f 335/907 345/120 740/197
f 740/197 345/120 346/303
f 346/303 349/600 740/197
f 751/685 349/600 346/303
f 348/177 347/704 338/803
f 338/803 337/912 348/177
f 346/303 345/120 354/690
f 354/690 351/287 346/303
f 356/747 355/518 343/503
f 343/503 341/236 356/747
f 740/197 349/600 350/18
f 793/668 768/899 346/303
f 346/303 351/287 793/668
f 793/668 351/287 352/204
f 352/204 351/287 354/690
f 354/690 353/173 352/204
f 343/503 353/173 354/690
f 358/526 353/173 343/503
f 343/503 355/518 358/526
f 358/526 355/518 367/897
f 367/897 355/518 356/747
f 356/747 357/772 367/897
f 338/803 357/772 356/747
f 366/499 357/772 338/803
f 338/803 347/704 366/499
f 366/499 347/704 370/636
f 370/636 347/704 348/177
f 348/177 359/318 370/636
f 434/545 359/318 348/177
f 367/897 357/772 366/499
f 358/526 364/469 352/204
f 352/204 353/173 358/526
f 370/636 369/796 366/499
f 370/636 359/318 421/823
f 362/663 360/352 791/150
f 791/150 361/410 362/663
f 793/668 361/410 791/150
f 352/204 361/410 793/668
f 362/663 361/410 352/204
f 352/204 364/469 362/663
f 362/663 364/469 363/695
f 363/695 364/469 358/526
f 358/526 365/601 363/695
f 367/897 365/601 358/526
f 377/395 365/601 367/897
f 367/897 368/914 377/395
f 366/499 368/914 367/897
f 376/373 368/914 366/499
f 366/499 369/796 376/373
f 376/373 369/796 372/542
f 372/542 369/796 370/636
f 370/636 422/660 372/542
f 791/150 360/352 803/887
f 803/887 371/703 791/150
f 372/542 422/660 413/905
f 413/905 412/64 372/542
f 373/130 827/546 377/395
f 373/130 379/359 825/829
f 374/49 375/847 825/829
f 377/395 368/914 376/373
f 376/373 378/885 377/395
f 377/395 378/885 373/130
f 373/130 378/885 408/46
f 408/46 379/359 373/130
f 407/207 379/359 408/46
f 825/829 379/359 407/207
f 407/207 380/544 825/829
f 825/829 380/544 374/49
f 374/49 380/544 381/455
f 381/455 382/261 374/49
f 383/464 382/261 381/455
f 388/686 382/261 383/464
f 383/464 384/314 388/686
f 388/686 384/314 820/783
f 820/783 384/314 385/378
f 385/378 828/794 820/783
f 829/193 828/794 385/378
f 374/49 382/261 388/686
f 385/378 384/314 383/464
f 383/464 386/614 385/378
f 407/207 387/494 381/455
f 381/455 380/544 407/207
f 820/783 828/794 833/86
f 820/783 819/729 388/686
f 381/455 387/494 389/508
f 389/508 394/915 381/455
f 381/455 394/915 383/464
f 383/464 394/915 390/28
f 390/28 386/614 383/464
f 561/732 386/614 390/28
f 385/378 386/614 561/732
f 561/732 581/391 385/378
f 385/378 581/391 829/193
f 391/764 392/105 390/28
f 390/28 392/105 561/732
f 395/155 393/257 389/508
f 389/508 401/787 395/155
f 390/28 394/915 389/508
f 389/508 393/257 390/28
f 390/28 393/257 391/764
f 391/764 393/257 395/155
f 395/155 543/531 391/764
f 396/215 543/531 395/155
f 395/155 398/289 396/215
f 396/215 398/289 397/425
f 397/425 398/289 399/700
f 399/700 404/62 397/425
f 400/768 401/787 389/508
f 399/700 401/787 400/768
f 395/155 401/787 399/700
f 399/700 398/289 395/155
f 397/425 544/945 396/215
f 550/238 544/945 397/425
f 417/734 402/890 548/81
f 548/81 549/839 417/734
f 417/734 549/839 550/238
f 550/238 403/298 417/734
f 397/425 403/298 550/238
f 416/388 403/298 397/425
f 397/425 404/62 416/388
f 416/388 404/62 411/94
f 411/94 404/62 399/700
f 399/700 405/750 411/94
f 400/768 405/750 399/700
f 409/404 405/750 400/768
f 400/768 406/445 409/404
f 409/404 406/445 408/46
f 408/46 406/445 407/207
f 407/207 406/445 400/768
f 400/768 387/494 407/207
f 389/508 387/494 400/768
f 417/734 403/298 416/388
f 411/94 405/750 409/404
f 411/94 414/683 416/388
f 408/46 410/200 409/404
f 408/46 378/885 376/373
f 376/373 410/200 408/46
f 372/542 410/200 376/373
f 409/404 410/200 372/542
f 372/542 412/64 409/404
f 409/404 412/64 411/94
f 411/94 412/64 413/905
f 413/905 414/683 411/94
f 415/739 414/683 413/905
f 416/388 414/683 415/739
f 415/739 420/195 416/388
f 416/388 420/195 417/734
f 417/734 420/195 428/603
f 428/603 402/890 417/734
f 418/226 402/890 428/603
f 548/81 402/890 418/226
f 418/226 419/68 548/81
f 547/312 419/68 418/226
f 418/226 429/324 547/312
f 415/739 424/886 428/603
f 428/603 420/195 415/739
f 421/823 422/660 370/636
f 413/905 422/660 421/823
f 421/823 423/658 413/905
f 413/905 423/658 415/739
f 415/739 423/658 425/664
f 425/664 424/886 415/739
f 426/631 424/886 425/664
f 428/603 424/886 426/631
f 426/631 427/330 428/603
f 428/603 427/330 418/226
f 418/226 427/330 432/419
f 432/419 429/324 418/226
f 431/164 429/324 432/419
f 547/312 429/324 431/164
f 431/164 430/69 547/312
f 558/510 430/69 431/164
f 425/664 423/658 421/823
f 432/419 427/330 426/631
f 425/664 436/364 426/631
f 432/419 433/132 431/164
f 421/823 359/318 434/545
f 434/545 435/42 421/823
f 421/823 435/42 425/664
f 425/664 435/42 437/882
f 437/882 436/364 425/664
f 450/483 436/364 437/882
f 426/631 436/364 450/483
f 450/483 438/507 426/631
f 426/631 438/507 432/419
f 432/419 438/507 447/777
f 447/777 433/132 432/419
f 440/89 433/132 447/777
f 431/164 433/132 440/89
f 440/89 441/605 431/164
f 431/164 441/605 558/510
f 558/510 441/605 443/715
f 443/715 439/54 558/510
f 541/536 439/54 443/715
f 440/89 445/771 443/715
f 443/715 441/605 440/89
f 437/882 435/42 434/545
f 434/545 442/394 437/882
f 447/777 438/507 450/483
f 450/483 449/577 447/777
f 457/185 542/795 443/715
f 443/715 445/771 457/185
f 457/185 445/771 444/655
f 444/655 445/771 440/89
f 440/89 446/9 444/655
f 447/777 446/9 440/89
f 448/493 446/9 447/777
f 447/777 449/577 448/493
f 448/493 449/577 461/535
f 461/535 449/577 450/483
f 450/483 453/844 461/535
f 437/882 453/844 450/483
f 451/363 453/844 437/882
f 437/882 442/394 451/363
f 451/363 442/394 323/325
f 323/325 442/394 434/545
f 434/545 452/866 323/325
f 348/177 452/866 434/545
f 461/535 453/844 451/363
f 444/655 446/9 448/493
f 461/535 454/184 448/493
f 540/196 542/795 457/185
f 323/325 452/866 336/635
f 444/655 455/478 457/185
f 466/109 538/558 540/196
f 540/196 456/338 466/109
f 457/185 456/338 540/196
f 458/284 456/338 457/185
f 457/185 455/478 458/284
f 458/284 455/478 478/418
f 478/418 455/478 444/655
f 444/655 459/305 478/418
f 448/493 459/305 444/655
f 476/10 459/305 448/493
f 448/493 454/184 476/10
f 476/10 454/184 460/450
f 460/450 454/184 461/535
f 461/535 462/113 460/450
f 451/363 462/113 461/535
f 463/509 462/113 451/363
f 451/363 464/194 463/509
f 463/509 464/194 465/487
f 460/450 462/113 463/509
f 478/418 459/305 476/10
f 466/109 456/338 458/284
f 460/450 474/199 476/10
f 465/487 472/307 463/509
f 478/418 477/59 458/284
f 467/904 468/2 312/433
f 470/903 468/2 467/904
f 467/904 469/362 470/903
f 470/903 469/362 465/487
f 465/487 469/362 485/692
f 485/692 472/307 465/487
f 471/573 472/307 485/692
f 463/509 472/307 471/573
f 471/573 473/505 463/509
f 463/509 473/505 460/450
f 460/450 473/505 489/656
f 489/656 474/199 460/450
f 490/315 474/199 489/656
f 476/10 474/199 490/315
f 490/315 475/575 476/10
f 476/10 475/575 478/418
f 478/418 475/575 480/98
f 480/98 477/59 478/418
f 485/692 469/362 467/904
f 467/904 483/888 485/692
f 480/98 475/575 490/315
f 490/315 479/806 480/98
f 471/573 487/110 489/656
f 489/656 473/505 471/573
f 492/106 481/693 312/433
f 312/433 481/693 467/904
f 467/904 481/693 482/39
f 482/39 483/888 467/904
f 484/198 483/888 482/39
f 485/692 483/888 484/198
f 484/198 486/250 485/692
f 485/692 486/250 471/573
f 471/573 486/250 493/148
f 493/148 487/110 471/573
f 501/596 487/110 493/148
f 489/656 487/110 501/596
f 501/596 488/946 489/656
f 489/656 488/946 490/315
f 490/315 488/946 504/629
f 504/629 479/806 490/315
f 491/228 479/806 504/629
f 480/98 479/806 491/228
f 492/106 497/319 482/39
f 482/39 481/693 492/106
f 493/148 486/250 484/198
f 484/198 499/516 493/148
f 492/106 494/294 496/231
f 496/231 497/319 492/106
f 495/260 497/319 496/231
f 482/39 497/319 495/260
f 495/260 498/223 482/39
f 482/39 498/223 484/198
f 484/198 498/223 503/51
f 503/51 499/516 484/198
f 502/836 499/516 503/51
f 493/148 499/516 502/836
f 502/836 500/451 493/148
f 493/148 500/451 501/596
f 501/596 500/451 504/629
f 504/629 488/946 501/596
f 504/629 500/451 502/836
f 503/51 498/223 495/260
f 503/51 506/342 502/836
f 496/231 508/397 495/260
f 504/629 505/738 491/228
f 502/836 505/738 504/629
f 513/539 505/738 502/836
f 502/836 506/342 513/539
f 513/539 506/342 511/272
f 511/272 506/342 503/51
f 503/51 507/620 511/272
f 495/260 507/620 503/51
f 520/412 507/620 495/260
f 495/260 508/397 520/412
f 520/412 508/397 514/782
f 514/782 508/397 496/231
f 496/231 509/281 514/782
f 296/217 509/281 496/231
f 512/916 509/281 296/217
f 296/217 510/321 512/916
f 512/916 510/321 278/524
f 278/524 510/321 279/565
f 511/272 507/620 520/412
f 514/782 509/281 512/916
f 491/228 505/738 513/539
f 511/272 519/566 513/539
f 514/782 515/424 520/412
f 491/228 516/26 480/98
f 480/98 516/26 525/446
f 525/446 516/26 517/669
f 517/669 516/26 491/228
f 491/228 518/936 517/669
f 513/539 518/936 491/228
f 523/705 518/936 513/539
f 513/539 519/566 523/705
f 523/705 519/566 530/129
f 530/129 519/566 511/272
f 511/272 521/115 530/129
f 520/412 521/115 511/272
f 256/878 521/115 520/412
f 520/412 515/424 256/878
f 256/878 515/424 522/802
f 522/802 515/424 514/782
f 514/782 270/838 522/802
f 512/916 270/838 514/782
f 256/878 533/302 530/129
f 530/129 521/115 256/878
f 517/669 518/936 523/705
f 523/705 527/246 517/669
f 525/446 477/59 480/98
f 458/284 477/59 525/446
f 525/446 524/60 458/284
f 458/284 524/60 466/109
f 466/109 524/60 534/165
f 534/165 524/60 525/446
f 525/446 526/78 534/165
f 517/669 526/78 525/446
f 528/661 526/78 517/669
f 517/669 527/246 528/661
f 528/661 527/246 529/681
f 529/681 527/246 523/705
f 523/705 255/792 529/681
f 530/129 255/792 523/705
f 531/534 255/792 530/129
f 530/129 533/302 531/534
f 531/534 533/302 532/797
f 532/797 533/302 256/878
f 534/165 526/78 528/661
f 528/661 537/45 534/165
f 241/12 535/286 240/152
f 529/681 535/286 241/12
f 241/12 536/633 529/681
f 529/681 536/633 528/661
f 528/661 536/633 216/884
f 216/884 537/45 528/661
f 228/791 537/45 216/884
f 534/165 537/45 228/791
f 228/791 226/652 534/165
f 534/165 226/652 466/109
f 466/109 226/652 229/855
f 229/855 538/558 466/109
f 539/222 538/558 229/855
f 540/196 538/558 539/222
f 539/222 566/227 540/196
f 540/196 566/227 541/536
f 541/536 542/795 540/196
f 443/715 542/795 541/536
f 551/471 553/712 391/659
f 391/659 543/243 551/471
f 551/471 543/243 396/244
f 396/244 544/497 551/471
f 551/471 544/497 550/32
f 554/548 545/584 562/520
f 546/333 545/584 554/548
f 557/103 545/584 546/333
f 546/333 556/206 557/103
f 557/103 556/206 547/23
f 547/23 556/206 555/301
f 555/301 419/859 547/23
f 548/13 419/859 555/301
f 555/301 549/127 548/13
f 550/32 549/127 555/301
f 555/301 552/426 550/32
f 550/32 552/426 551/471
f 551/471 552/426 546/333
f 546/333 553/712 551/471
f 554/548 553/712 546/333
f 391/659 553/712 554/548
f 554/548 392/489 391/659
f 561/574 392/489 554/548
f 546/333 552/426 555/301
f 555/301 556/206 546/333
f 562/520 560/723 554/548
f 547/23 430/402 557/103
f 557/103 430/402 558/533
f 558/533 559/73 557/103
f 564/440 559/73 558/533
f 562/520 559/73 564/440
f 557/103 559/73 562/520
f 562/520 545/584 557/103
f 541/553 565/107 564/440
f 564/440 439/158 541/553
f 558/533 439/158 564/440
f 554/548 560/723 561/574
f 561/574 560/723 574/353
f 574/353 560/723 562/520
f 562/520 563/799 574/353
f 564/440 563/799 562/520
f 577/720 563/799 564/440
f 564/440 565/107 577/720
f 577/720 565/107 579/563
f 579/563 565/107 541/553
f 541/553 566/142 579/563
f 579/563 566/142 539/818
f 539/818 568/527 579/563
f 588/763 568/527 539/818
f 567/214 568/527 588/763
f 588/763 569/920 567/214
f 567/214 569/920 572/492
f 572/492 569/920 571/550
f 571/550 573/570 572/492
f 588/763 570/480 571/550
f 571/550 569/920 588/763
f 572/492 852/156 831/24
f 850/255 852/156 572/492
f 572/492 573/570 850/255
f 574/353 563/799 577/720
f 577/720 580/645 574/353
f 574/353 580/645 829/521
f 829/521 580/645 575/567
f 575/567 830/789 829/521
f 831/24 830/789 575/567
f 575/567 576/848 831/24
f 831/24 576/848 572/492
f 572/492 576/848 567/214
f 567/214 576/848 575/567
f 575/567 578/780 567/214
f 577/720 578/780 575/567
f 579/563 578/780 577/720
f 567/214 578/780 579/563
f 579/563 568/527 567/214
f 575/567 580/645 577/720
f 574/353 581/104 561/574
f 829/521 581/104 574/353
f 211/237 592/245 582/682
f 582/682 212/874 211/237
f 583/807 212/874 582/682
f 582/682 584/232 583/807
f 583/807 584/232 585/730
f 585/730 584/232 591/769
f 591/769 587/932 585/730
f 586/805 587/932 591/769
f 571/550 587/932 586/805
f 585/730 587/932 571/550
f 571/550 570/480 585/730
f 585/730 570/480 233/649
f 233/649 570/480 588/763
f 588/763 231/810 233/649
f 539/818 231/810 588/763
f 591/769 584/232 582/682
f 591/769 590/159 586/805
f 585/730 232/468 583/807
f 233/649 232/468 585/730
f 586/805 573/570 571/550
f 850/255 573/570 586/805
f 586/805 643/529 850/255
f 589/379 643/529 586/805
f 586/805 590/159 589/379
f 589/379 590/159 597/746
f 597/746 590/159 591/769
f 591/769 598/175 597/746
f 582/682 598/175 591/769
f 599/383 598/175 582/682
f 582/682 592/245 599/383
f 599/383 592/245 594/264
f 594/264 592/245 211/237
f 211/237 593/569 594/264
f 594/264 593/569 596/694
f 596/694 595/724 594/264
f 608/349 595/724 596/694
f 606/519 595/724 608/349
f 654/523 638/623 597/746
f 597/746 638/623 589/379
f 597/746 598/175 599/383
f 599/383 600/737 597/746
f 597/746 600/737 654/523
f 654/523 600/737 601/66
f 601/66 652/141 654/523
f 653/429 652/141 601/66
f 601/66 602/486 653/429
f 601/66 600/737 599/383
f 604/279 610/435 657/689
f 657/689 603/854 604/279
f 604/279 603/854 653/429
f 653/429 602/486 604/279
f 604/279 602/486 606/519
f 606/519 602/486 601/66
f 601/66 605/4 606/519
f 599/383 605/4 601/66
f 594/264 605/4 599/383
f 606/519 605/4 594/264
f 594/264 595/724 606/519
f 607/722 609/753 608/349
f 608/349 615/295 607/722
f 608/349 609/753 606/519
f 606/519 609/753 604/279
f 604/279 609/753 607/722
f 607/722 610/435 604/279
f 611/405 610/435 607/722
f 657/689 610/435 611/405
f 611/405 612/770 657/689
f 659/326 612/770 611/405
f 611/405 613/612 659/326
f 659/326 613/612 625/79
f 625/79 613/612 622/387
f 622/387 613/612 611/405
f 611/405 614/877 622/387
f 607/722 614/877 611/405
f 618/740 614/877 607/722
f 607/722 615/295 618/740
f 618/740 615/295 616/427
f 616/427 615/295 608/349
f 608/349 617/707 616/427
f 596/694 617/707 608/349
f 616/427 198/618 618/740
f 618/740 198/618 621/901
f 621/901 620/757 618/740
f 619/288 202/219 132/85
f 621/901 202/219 619/288
f 619/288 620/757 621/901
f 622/387 620/757 619/288
f 618/740 620/757 622/387
f 622/387 614/877 618/740
f 625/79 624/230 659/326
f 625/79 626/146 623/27
f 663/82 628/825 631/348
f 631/348 627/939 663/82
f 629/414 628/825 663/82
f 844/944 628/825 629/414
f 631/348 628/825 844/944
f 844/944 630/452 631/348
f 631/348 630/452 635/169
f 635/169 630/452 634/316
f 634/316 632/727 635/169
f 641/400 632/727 634/316
f 639/687 632/727 641/400
f 635/169 632/727 639/687
f 639/687 637/437 635/169
f 634/316 630/452 844/944
f 844/944 633/344 634/316
f 648/117 662/253 663/82
f 663/82 627/939 648/117
f 648/117 627/939 642/126
f 642/126 627/939 631/348
f 631/348 636/118 642/126
f 635/169 636/118 631/348
f 651/249 636/118 635/169
f 635/169 637/437 651/249
f 651/249 637/437 654/88
f 654/88 637/437 639/687
f 639/687 638/610 654/88
f 589/74 638/610 639/687
f 639/687 640/25 589/74
f 641/400 640/25 639/687
f 644/280 640/25 641/400
f 641/400 848/608 644/280
f 642/126 636/118 651/249
f 651/249 650/380 642/126
f 589/74 640/25 644/280
f 644/280 643/172 589/74
f 850/209 643/172 644/280
f 655/644 612/708 659/752
f 657/116 612/708 655/644
f 655/644 645/496 657/116
f 657/116 645/496 649/61
f 649/61 645/496 646/808
f 646/808 647/93 649/61
f 648/117 647/93 646/808
f 642/126 647/93 648/117
f 649/61 647/93 642/126
f 642/126 650/380 649/61
f 649/61 650/380 653/14
f 653/14 650/380 651/249
f 651/249 652/598 653/14
f 654/88 652/598 651/249
f 655/644 656/606 646/808
f 646/808 645/496 655/644
f 653/14 603/906 649/61
f 649/61 603/906 657/116
f 623/815 676/485 665/921
f 665/921 624/744 623/815
f 659/752 624/744 665/921
f 665/921 658/201 659/752
f 659/752 658/201 655/644
f 655/644 658/201 674/460
f 674/460 656/606 655/644
f 673/619 656/606 674/460
f 646/808 656/606 673/619
f 673/619 660/84 646/808
f 646/808 660/84 648/117
f 648/117 660/84 661/742
f 661/742 662/253 648/117
f 668/872 662/253 661/742
f 663/82 662/253 668/872
f 668/872 664/256 663/82
f 663/82 664/256 629/414
f 629/414 664/256 760/630
f 760/630 664/256 668/872
f 661/742 660/84 673/619
f 674/460 658/201 665/921
f 674/460 666/454 673/619
f 661/742 667/731 668/872
f 760/630 669/466 670/97
f 685/100 759/639 668/872
f 668/872 667/731 685/100
f 685/100 667/731 671/263
f 671/263 667/731 661/742
f 661/742 672/299 671/263
f 673/619 672/299 661/742
f 678/719 672/299 673/619
f 673/619 666/454 678/719
f 678/719 666/454 675/390
f 675/390 666/454 674/460
f 674/460 679/779 675/390
f 665/921 679/779 674/460
f 680/540 679/779 665/921
f 665/921 676/485 680/540
f 680/540 676/485 694/432
f 694/432 676/485 623/815
f 623/815 677/444 694/432
f 694/432 677/444 127/832
f 671/263 672/299 678/719
f 675/390 679/779 680/540
f 682/443 759/639 685/100
f 694/432 693/913 680/540
f 671/263 688/409 685/100
f 675/390 681/562 678/719
f 684/428 748/718 682/443
f 682/443 683/894 684/428
f 685/100 683/894 682/443
f 686/135 683/894 685/100
f 685/100 688/409 686/135
f 686/135 688/409 687/441
f 687/441 688/409 671/263
f 671/263 695/265 687/441
f 678/719 695/265 671/263
f 689/434 695/265 678/719
f 678/719 681/562 689/434
f 689/434 681/562 699/800
f 699/800 681/562 675/390
f 675/390 690/735 699/800
f 680/540 690/735 675/390
f 691/144 690/735 680/540
f 680/540 693/913 691/144
f 691/144 693/913 692/893
f 692/893 693/913 694/432
f 694/432 696/35 692/893
f 699/800 690/735 691/144
f 687/441 695/265 689/434
f 684/428 683/894 686/135
f 699/800 700/457 689/434
f 687/441 702/580 686/135
f 692/893 697/790 691/144
f 127/832 696/35 694/432
f 101/53 696/35 127/832
f 692/893 696/35 101/53
f 101/53 97/205 692/893
f 692/893 97/205 98/793
f 98/793 697/790 692/893
f 715/234 697/790 98/793
f 691/144 697/790 715/234
f 715/234 698/87 691/144
f 691/144 698/87 699/800
f 699/800 698/87 724/322
f 724/322 700/457 699/800
f 704/139 700/457 724/322
f 689/434 700/457 704/139
f 704/139 701/711 689/434
f 689/434 701/711 687/441
f 687/441 701/711 726/277
f 726/277 702/580 687/441
f 704/139 703/728 726/277
f 726/277 701/711 704/139
f 98/793 705/930 715/234
f 715/234 705/930 714/691
f 706/327 712/271 714/691
f 729/814 728/773 727/918
f 727/918 717/822 729/814
f 729/814 717/822 718/617
f 718/617 717/822 707/654
f 707/654 709/422 718/617
f 708/48 709/422 707/654
f 867/178 709/422 708/48
f 708/48 710/438 867/178
f 867/178 710/438 72/634
f 72/634 710/438 711/187
f 711/187 74/927 72/634
f 706/327 74/927 711/187
f 711/187 712/271 706/327
f 713/867 712/271 711/187
f 714/691 712/271 713/867
f 713/867 716/514 714/691
f 714/691 716/514 715/234
f 715/234 716/514 724/322
f 724/322 698/87 715/234
f 711/187 710/438 708/48
f 707/654 717/822 727/918
f 718/617 709/422 867/178
f 867/178 868/421 718/617
f 707/654 720/931 708/48
f 711/187 725/756 713/867
f 708/48 725/756 711/187
f 719/924 725/756 708/48
f 708/48 720/931 719/924
f 719/924 720/931 721/776
f 721/776 720/931 707/654
f 707/654 722/597 721/776
f 727/918 722/597 707/654
f 726/277 722/597 727/918
f 721/776 722/597 726/277
f 726/277 703/728 721/776
f 721/776 703/728 719/924
f 719/924 703/728 704/139
f 704/139 723/346 719/924
f 724/322 723/346 704/139
f 713/867 723/346 724/322
f 724/322 716/514 713/867
f 719/924 723/346 713/867
f 713/867 725/756 719/924
f 727/918 702/580 726/277
f 686/135 702/580 727/918
f 727/918 728/773 686/135
f 686/135 728/773 684/428
f 684/428 728/773 729/814
f 729/814 730/725 684/428
f 731/830 730/725 729/814
f 749/332 730/725 731/830
f 731/830 737/252 749/332
f 749/332 737/252 739/114
f 739/114 737/252 732/467
f 732/467 733/869 739/114
f 873/680 733/869 732/467
f 736/583 733/869 873/680
f 873/680 734/875 736/583
f 736/583 734/875 738/572
f 738/572 734/875 735/602
f 735/602 315/367 738/572
f 739/114 733/869 736/583
f 684/428 730/725 749/332
f 731/830 870/33 732/467
f 732/467 737/252 731/830
f 738/572 743/149 736/583
f 739/114 747/826 749/332
f 741/849 333/592 740/197
f 740/197 322/167 741/849
f 350/18 322/167 740/197
f 316/183 322/167 350/18
f 350/18 742/76 316/183
f 316/183 742/76 738/572
f 738/572 742/76 744/267
f 744/267 743/149 738/572
f 745/92 743/149 744/267
f 736/583 743/149 745/92
f 745/92 746/268 736/583
f 736/583 746/268 739/114
f 739/114 746/268 756/240
f 756/240 747/826 739/114
f 750/819 747/826 756/240
f 749/332 747/826 750/819
f 750/819 748/718 749/332
f 749/332 748/718 684/428
f 756/240 746/268 745/92
f 744/267 742/76 350/18
f 744/267 753/909 745/92
f 682/443 748/718 750/819
f 756/240 758/323 750/819
f 350/18 349/600 751/685
f 751/685 752/576 350/18
f 350/18 752/576 744/267
f 744/267 752/576 761/357
f 761/357 753/909 744/267
f 754/233 753/909 761/357
f 745/92 753/909 754/233
f 754/233 755/292 745/92
f 745/92 755/292 756/240
f 756/240 755/292 757/642
f 757/642 758/323 756/240
f 670/97 758/323 757/642
f 750/819 758/323 670/97
f 670/97 669/466 750/819
f 750/819 669/466 682/443
f 682/443 669/466 760/630
f 760/630 759/639 682/443
f 668/872 759/639 760/630
f 751/685 767/439 761/357
f 761/357 752/576 751/685
f 754/233 765/726 757/642
f 757/642 755/292 754/233
f 845/211 762/638 841/755
f 841/755 762/638 764/626
f 764/626 762/638 770/599
f 770/599 763/385 764/626
f 670/97 763/385 770/599
f 757/642 763/385 670/97
f 764/626 763/385 757/642
f 757/642 765/726 764/626
f 764/626 765/726 775/63
f 775/63 765/726 754/233
f 754/233 766/216 775/63
f 761/357 766/216 754/233
f 773/297 766/216 761/357
f 761/357 767/439 773/297
f 773/297 767/439 792/128
f 792/128 767/439 751/685
f 751/685 768/899 792/128
f 346/303 768/899 751/685
f 845/211 769/517 770/599
f 770/599 762/638 845/211
f 773/297 774/463 775/63
f 775/63 766/216 773/297
f 792/128 771/22 780/841
f 781/282 779/589 788/151
f 782/407 779/589 781/282
f 780/841 779/589 782/407
f 782/407 772/224 780/841
f 780/841 772/224 792/128
f 792/128 772/224 773/297
f 773/297 772/224 782/407
f 782/407 774/463 773/297
f 777/124 774/463 782/407
f 775/63 774/463 777/124
f 777/124 776/938 775/63
f 775/63 776/938 764/626
f 764/626 776/938 841/755
f 841/755 776/938 777/124
f 777/124 778/923 841/755
f 784/804 778/923 777/124
f 840/942 778/923 784/804
f 841/755 778/923 840/942
f 840/942 842/778 841/755
f 788/151 779/589 780/841
f 781/282 783/411 782/407
f 782/407 783/411 777/124
f 777/124 783/411 784/804
f 784/804 783/411 781/282
f 781/282 785/341 784/804
f 840/942 794/559 837/396
f 784/804 794/559 840/942
f 796/259 794/559 784/804
f 784/804 785/341 796/259
f 796/259 785/341 787/646
f 787/646 785/341 781/282
f 781/282 786/701 787/646
f 788/151 786/701 781/282
f 789/709 786/701 788/151
f 788/151 790/477 789/709
f 789/709 790/477 801/180
f 801/180 790/477 803/887
f 803/887 790/477 788/151
f 788/151 371/703 803/887
f 780/841 371/703 788/151
f 791/150 371/703 780/841
f 780/841 771/22 791/150
f 791/150 771/22 793/668
f 793/668 771/22 792/128
f 792/128 768/899 793/668
f 787/646 786/701 789/709
f 837/396 794/559 796/259
f 801/180 799/895 789/709
f 787/646 797/624 796/259
f 807/122 836/582 837/396
f 837/396 795/34 807/122
f 796/259 795/34 837/396
f 804/138 795/34 796/259
f 796/259 797/624 804/138
f 804/138 797/624 805/393
f 805/393 797/624 787/646
f 787/646 798/347 805/393
f 789/709 798/347 787/646
f 810/41 798/347 789/709
f 789/709 799/895 810/41
f 810/41 799/895 800/266
f 800/266 799/895 801/180
f 801/180 802/356 800/266
f 803/887 802/356 801/180
f 814/627 802/356 803/887
f 803/887 360/352 814/627
f 814/627 360/352 362/663
f 800/266 802/356 814/627
f 807/122 795/34 804/138
f 805/393 798/347 810/41
f 805/393 806/416 804/138
f 800/266 812/868 810/41
f 807/122 808/762 817/537
f 804/138 808/762 807/122
f 821/160 808/762 804/138
f 804/138 806/416 821/160
f 821/160 806/416 822/840
f 822/840 806/416 805/393
f 805/393 809/436 822/840
f 810/41 809/436 805/393
f 811/498 809/436 810/41
f 810/41 812/868 811/498
f 811/498 812/868 824/846
f 824/846 812/868 800/266
f 800/266 813/835 824/846
f 814/627 813/835 800/266
f 816/96 813/835 814/627
f 814/627 815/355 816/96
f 816/96 815/355 363/695
f 363/695 815/355 362/663
f 362/663 815/355 814/627
f 822/840 809/436 811/498
f 811/498 823/143 822/840
f 821/160 818/551 817/537
f 817/537 808/762 821/160
f 816/96 826/99 824/846
f 824/846 813/835 816/96
f 833/86 832/218 817/537
f 817/537 818/551 833/86
f 833/86 818/551 820/783
f 820/783 818/551 821/160
f 821/160 819/729 820/783
f 822/840 819/729 821/160
f 388/686 819/729 822/840
f 822/840 823/143 388/686
f 388/686 823/143 374/49
f 374/49 823/143 811/498
f 811/498 375/847 374/49
f 824/846 375/847 811/498
f 825/829 375/847 824/846
f 824/846 826/99 825/829
f 825/829 826/99 373/130
f 373/130 826/99 816/96
f 816/96 827/546 373/130
f 363/695 827/546 816/96
f 377/395 827/546 363/695
f 363/695 365/601 377/395
f 833/86 828/794 829/193
f 829/193 830/108 833/86
f 833/86 830/108 831/176
f 834/125 832/218 831/176
f 817/537 832/218 834/125
f 834/125 835/415 817/537
f 817/537 835/415 807/122
f 807/122 835/415 849/774
f 849/774 836/582 807/122
f 847/254 836/582 849/774
f 837/396 836/582 847/254
f 847/254 838/637 837/396
f 837/396 838/637 840/942
f 840/942 838/637 839/70
f 839/70 842/778 840/942
f 845/211 842/778 839/70
f 841/755 842/778 845/211
f 834/125 851/190 849/774
f 849/774 835/415 834/125
f 847/254 846/242 839/70
f 839/70 838/637 847/254
f 760/630 843/784 629/414
f 670/97 843/784 760/630
f 770/599 843/784 670/97
f 629/414 843/784 770/599
f 770/599 769/517 629/414
f 629/414 769/517 844/944
f 844/944 769/517 845/211
f 845/211 633/344 844/944
f 839/70 633/344 845/211
f 634/316 633/344 839/70
f 839/70 846/242 634/316
f 634/316 846/242 641/400
f 641/400 846/242 847/254
f 847/254 848/608 641/400
f 849/774 848/608 847/254
f 644/280 848/608 849/774
f 849/774 851/190 644/280
f 644/280 851/190 850/209
f 850/209 851/190 834/125
f 834/125 852/590 850/209
f 831/176 852/590 834/125
f 874/372 872/666 853/702
f 871/136 854/221 853/702
f 861/697 854/221 871/136
f 855/484 854/221 861/697
f 853/702 854/221 855/484
f 855/484 856/586 853/702
f 853/702 856/586 874/372
f 874/372 856/586 859/621
f 859/621 856/586 855/484
f 855/484 857/17 859/621
f 882/604 858/556 859/621
f 859/621 857/17 882/604
f 882/604 857/17 866/761
f 866/761 857/17 855/484
f 855/484 860/491 866/761
f 861/697 860/491 855/484
f 863/52 860/491 861/697
f 861/697 862/181 863/52
f 866/761 864/19 882/604
f 882/604 864/19 54/710
f 54/710 864/19 68/850
f 68/850 864/19 866/761
f 866/761 865/308 68/850
f 863/52 865/308 866/761
f 866/761 860/491 863/52
f 72/634 65/733 863/52
f 863/52 862/181 72/634
f 72/634 862/181 867/178
f 867/178 862/181 861/697
f 861/697 868/421 867/178
f 871/136 868/421 861/697
f 718/617 868/421 871/136
f 871/136 869/758 718/617
f 718/617 869/758 729/814
f 729/814 869/758 731/830
f 731/830 869/758 871/136
f 871/136 870/33 731/830
f 853/702 870/33 871/136
f 732/467 870/33 853/702
f 853/702 872/666 732/467
f 732/467 872/666 873/680
f 873/680 872/666 874/372
f 874/372 875/8 873/680
f 877/892 876/361 135/622
f 880/625 876/361 877/892
f 878/813 876/361 880/625
f 880/625 879/910 878/813
f 54/710 879/910 880/625
f 880/625 881/275 54/710
f 54/710 881/275 882/604
f 882/604 881/275 285/366
f 285/366 858/556 882/604
f 290/29 858/556 285/366
f 859/621 858/556 290/29
f 290/29 289/101 859/621
f 859/621 289/101 874/372
f 874/372 289/101 300/657
f 300/657 875/8 874/372
f 735/602 875/8 300/657
f 873/680 875/8 735/602
f 735/602 734/875 873/680
